SplineFontDB: 3.2
FontName: LucidaTypewriter24
FullName: Lucida Typewriter 24
FamilyName: Lucida Typewriter 24
Weight: Book
Copyright: Copyright Bigelow & Holmes 1986, 1985.
UComments: "2021-2-2: Created with FontForge (http://fontforge.org)"
Version: 001.000
ItalicAngle: 0
UnderlinePosition: -100
UnderlineWidth: 50
Ascent: 917
Descent: 83
InvalidEm: 0
LayerCount: 2
Layer: 0 0 "Back" 1
Layer: 1 0 "Fore" 0
XUID: [1021 852 424820466 13680387]
StyleMap: 0x0040
FSType: 0
OS2Version: 0
OS2_WeightWidthSlopeOnly: 0
OS2_UseTypoMetrics: 1
CreationTime: 1612276548
ModificationTime: 1612276548
PfmFamily: 48
TTFWeight: 400
TTFWidth: 5
LineGap: 0
VLineGap: 90
Panose: 2 0 6 9 0 0 0 0 0 0
OS2TypoAscent: 917
OS2TypoAOffset: 1
OS2TypoDescent: -83
OS2TypoDOffset: 1
OS2TypoLinegap: 0
OS2WinAscent: 917
OS2WinAOffset: 1
OS2WinDescent: 83
OS2WinDOffset: 1
HheadAscent: 917
HheadAOffset: 1
HheadDescent: -83
HheadDOffset: 1
OS2SubXSize: 650
OS2SubYSize: 700
OS2SubXOff: 0
OS2SubYOff: 140
OS2SupXSize: 650
OS2SupYSize: 700
OS2SupXOff: 0
OS2SupYOff: 480
OS2StrikeYSize: 49
OS2StrikeYPos: 258
OS2Vendor: 'PfEd'
DEI: 91125
Encoding: UnicodeBmp
UnicodeInterp: none
NameList: AGL For New Fonts
DisplaySize: 24
AntiAlias: 1
FitToEm: 0
BeginChars: 65536 873

StartChar: exclam
Encoding: 33 33 2
Width: 583
Flags: HW
LayerCount: 2
Back
Fore
SplineSet
291.666992188 667 m 1
 375 667 l 1
 375 708.666992188 l 1
 291.666992188 708.666992188 l 1
 291.666992188 667 l 1025
291.666992188 625.333007812 m 1
 375 625.333007812 l 1
 375 667 l 1
 291.666992188 667 l 1
 291.666992188 625.333007812 l 1025
291.666992188 583.666992188 m 1
 375 583.666992188 l 1
 375 625.333007812 l 1
 291.666992188 625.333007812 l 1
 291.666992188 583.666992188 l 1025
291.666992188 542 m 1
 375 542 l 1
 375 583.666992188 l 1
 291.666992188 583.666992188 l 1
 291.666992188 542 l 1025
291.666992188 500.333007812 m 1
 375 500.333007812 l 1
 375 542 l 1
 291.666992188 542 l 1
 291.666992188 500.333007812 l 1025
291.666992188 458.666992188 m 1
 375 458.666992188 l 1
 375 500.333007812 l 1
 291.666992188 500.333007812 l 1
 291.666992188 458.666992188 l 1025
291.666992188 417 m 1
 375 417 l 1
 375 458.666992188 l 1
 291.666992188 458.666992188 l 1
 291.666992188 417 l 1025
291.666992188 375.333007812 m 1
 375 375.333007812 l 1
 375 417 l 1
 291.666992188 417 l 1
 291.666992188 375.333007812 l 1025
291.666992188 333.666992188 m 1
 333.333007812 333.666992188 l 1
 333.333007812 375.333007812 l 1
 291.666992188 375.333007812 l 1
 291.666992188 333.666992188 l 1025
291.666992188 292 m 1
 333.333007812 292 l 1
 333.333007812 333.666992188 l 1
 291.666992188 333.666992188 l 1
 291.666992188 292 l 1025
291.666992188 250.333007812 m 1
 333.333007812 250.333007812 l 1
 333.333007812 292 l 1
 291.666992188 292 l 1
 291.666992188 250.333007812 l 1025
291.666992188 208.666992188 m 1
 333.333007812 208.666992188 l 1
 333.333007812 250.333007812 l 1
 291.666992188 250.333007812 l 1
 291.666992188 208.666992188 l 1025
250 42 m 1
 375 42 l 1
 375 83.6669921875 l 1
 250 83.6669921875 l 1
 250 42 l 1025
250 0.3330078125 m 1
 250 42 l 1
 375 42 l 1
 375 0.3330078125 l 1
 250 0.3330078125 l 1
EndSplineSet
EndChar

StartChar: quotedbl
Encoding: 34 34 3
Width: 583
Flags: HW
LayerCount: 2
Back
Fore
SplineSet
83.3330078125 667 m 1
 166.666992188 667 l 1
 166.666992188 708.666992188 l 1
 83.3330078125 708.666992188 l 1
 83.3330078125 667 l 1025
416.666992188 667 m 1
 500 667 l 1
 500 708.666992188 l 1
 416.666992188 708.666992188 l 1
 416.666992188 667 l 1025
83.3330078125 625.333007812 m 1
 166.666992188 625.333007812 l 1
 166.666992188 667 l 1
 83.3330078125 667 l 1
 83.3330078125 625.333007812 l 1025
416.666992188 625.333007812 m 1
 500 625.333007812 l 1
 500 667 l 1
 416.666992188 667 l 1
 416.666992188 625.333007812 l 1025
83.3330078125 583.666992188 m 1
 166.666992188 583.666992188 l 1
 166.666992188 625.333007812 l 1
 83.3330078125 625.333007812 l 1
 83.3330078125 583.666992188 l 1025
416.666992188 583.666992188 m 1
 500 583.666992188 l 1
 500 625.333007812 l 1
 416.666992188 625.333007812 l 1
 416.666992188 583.666992188 l 1025
125 542 m 1
 166.666992188 542 l 1
 166.666992188 583.666992188 l 1
 125 583.666992188 l 1
 125 542 l 1025
416.666992188 542 m 1
 458.333007812 542 l 1
 458.333007812 583.666992188 l 1
 416.666992188 583.666992188 l 1
 416.666992188 542 l 1025
125 500.333007812 m 1
 166.666992188 500.333007812 l 1
 166.666992188 542 l 1
 125 542 l 1
 125 500.333007812 l 1025
416.666992188 500.333007812 m 1
 416.666992188 542 l 1
 458.333007812 542 l 1
 458.333007812 500.333007812 l 1
 416.666992188 500.333007812 l 1
EndSplineSet
EndChar

StartChar: numbersign
Encoding: 35 35 4
Width: 583
Flags: HW
LayerCount: 2
Back
Fore
SplineSet
291.666992188 667 m 1
 333.333007812 667 l 1
 333.333007812 708.666992188 l 1
 291.666992188 708.666992188 l 1
 291.666992188 667 l 1025
458.333007812 667 m 1
 500 667 l 1
 500 708.666992188 l 1
 458.333007812 708.666992188 l 1
 458.333007812 667 l 1025
291.666992188 625.333007812 m 1
 333.333007812 625.333007812 l 1
 333.333007812 667 l 1
 291.666992188 667 l 1
 291.666992188 625.333007812 l 1025
458.333007812 625.333007812 m 1
 500 625.333007812 l 1
 500 667 l 1
 458.333007812 667 l 1
 458.333007812 625.333007812 l 1025
250 583.666992188 m 1
 291.666992188 583.666992188 l 1
 291.666992188 625.333007812 l 1
 250 625.333007812 l 1
 250 583.666992188 l 1025
458.333007812 583.666992188 m 1
 500 583.666992188 l 1
 500 625.333007812 l 1
 458.333007812 625.333007812 l 1
 458.333007812 583.666992188 l 1025
250 542 m 1
 291.666992188 542 l 1
 291.666992188 583.666992188 l 1
 250 583.666992188 l 1
 250 542 l 1025
458.333007812 542 m 1
 500 542 l 1
 500 583.666992188 l 1
 458.333007812 583.666992188 l 1
 458.333007812 542 l 1025
250 500.333007812 m 1
 291.666992188 500.333007812 l 1
 291.666992188 542 l 1
 250 542 l 1
 250 500.333007812 l 1025
416.666992188 500.333007812 m 1
 458.333007812 500.333007812 l 1
 458.333007812 542 l 1
 416.666992188 542 l 1
 416.666992188 500.333007812 l 1025
250 458.666992188 m 1
 291.666992188 458.666992188 l 1
 291.666992188 500.333007812 l 1
 250 500.333007812 l 1
 250 458.666992188 l 1025
416.666992188 458.666992188 m 1
 458.333007812 458.666992188 l 1
 458.333007812 500.333007812 l 1
 416.666992188 500.333007812 l 1
 416.666992188 458.666992188 l 1025
83.3330078125 417 m 1
 583.333007812 417 l 1
 583.333007812 458.666992188 l 1
 83.3330078125 458.666992188 l 1
 83.3330078125 417 l 1025
208.333007812 375.333007812 m 1
 250 375.333007812 l 1
 250 417 l 1
 208.333007812 417 l 1
 208.333007812 375.333007812 l 1025
375 375.333007812 m 1
 416.666992188 375.333007812 l 1
 416.666992188 417 l 1
 375 417 l 1
 375 375.333007812 l 1025
208.333007812 333.666992188 m 1
 250 333.666992188 l 1
 250 375.333007812 l 1
 208.333007812 375.333007812 l 1
 208.333007812 333.666992188 l 1025
375 333.666992188 m 1
 416.666992188 333.666992188 l 1
 416.666992188 375.333007812 l 1
 375 375.333007812 l 1
 375 333.666992188 l 1025
208.333007812 292 m 1
 250 292 l 1
 250 333.666992188 l 1
 208.333007812 333.666992188 l 1
 208.333007812 292 l 1025
375 292 m 1
 416.666992188 292 l 1
 416.666992188 333.666992188 l 1
 375 333.666992188 l 1
 375 292 l 1025
166.666992188 250.333007812 m 1
 250 250.333007812 l 1
 250 292 l 1
 166.666992188 292 l 1
 166.666992188 250.333007812 l 1025
375 250.333007812 m 1
 416.666992188 250.333007812 l 1
 416.666992188 292 l 1
 375 292 l 1
 375 250.333007812 l 1025
41.6669921875 208.666992188 m 1
 541.666992188 208.666992188 l 1
 541.666992188 250.333007812 l 1
 41.6669921875 250.333007812 l 1
 41.6669921875 208.666992188 l 1025
166.666992188 167 m 1
 208.333007812 167 l 1
 208.333007812 208.666992188 l 1
 166.666992188 208.666992188 l 1
 166.666992188 167 l 1025
333.333007812 167 m 1
 375 167 l 1
 375 208.666992188 l 1
 333.333007812 208.666992188 l 1
 333.333007812 167 l 1025
166.666992188 125.333007812 m 1
 208.333007812 125.333007812 l 1
 208.333007812 167 l 1
 166.666992188 167 l 1
 166.666992188 125.333007812 l 1025
333.333007812 125.333007812 m 1
 375 125.333007812 l 1
 375 167 l 1
 333.333007812 167 l 1
 333.333007812 125.333007812 l 1025
125 83.6669921875 m 1
 166.666992188 83.6669921875 l 1
 166.666992188 125.333007812 l 1
 125 125.333007812 l 1
 125 83.6669921875 l 1025
333.333007812 83.6669921875 m 1
 375 83.6669921875 l 1
 375 125.333007812 l 1
 333.333007812 125.333007812 l 1
 333.333007812 83.6669921875 l 1025
125 42 m 1
 166.666992188 42 l 1
 166.666992188 83.6669921875 l 1
 125 83.6669921875 l 1
 125 42 l 1025
291.666992188 42 m 1
 333.333007812 42 l 1
 333.333007812 83.6669921875 l 1
 291.666992188 83.6669921875 l 1
 291.666992188 42 l 1025
125 0.3330078125 m 1
 166.666992188 0.3330078125 l 1
 166.666992188 42 l 1
 125 42 l 1
 125 0.3330078125 l 1025
291.666992188 0.3330078125 m 1
 291.666992188 42 l 1
 333.333007812 42 l 1
 333.333007812 0.3330078125 l 1
 291.666992188 0.3330078125 l 1
EndSplineSet
EndChar

StartChar: dollar
Encoding: 36 36 5
Width: 583
Flags: HW
LayerCount: 2
Back
Fore
SplineSet
291.666992188 750.333007812 m 1
 333.333007812 750.333007812 l 1
 333.333007812 792 l 1
 291.666992188 792 l 1
 291.666992188 750.333007812 l 1025
291.666992188 708.666992188 m 1
 333.333007812 708.666992188 l 1
 333.333007812 750.333007812 l 1
 291.666992188 750.333007812 l 1
 291.666992188 708.666992188 l 1025
208.333007812 667 m 1
 458.333007812 667 l 1
 458.333007812 708.666992188 l 1
 208.333007812 708.666992188 l 1
 208.333007812 667 l 1025
166.666992188 625.333007812 m 1
 250 625.333007812 l 1
 250 667 l 1
 166.666992188 667 l 1
 166.666992188 625.333007812 l 1025
291.666992188 625.333007812 m 1
 333.333007812 625.333007812 l 1
 333.333007812 667 l 1
 291.666992188 667 l 1
 291.666992188 625.333007812 l 1025
416.666992188 625.333007812 m 1
 500 625.333007812 l 1
 500 667 l 1
 416.666992188 667 l 1
 416.666992188 625.333007812 l 1025
125 583.666992188 m 1
 208.333007812 583.666992188 l 1
 208.333007812 625.333007812 l 1
 125 625.333007812 l 1
 125 583.666992188 l 1025
291.666992188 583.666992188 m 1
 333.333007812 583.666992188 l 1
 333.333007812 625.333007812 l 1
 291.666992188 625.333007812 l 1
 291.666992188 583.666992188 l 1025
125 542 m 1
 208.333007812 542 l 1
 208.333007812 583.666992188 l 1
 125 583.666992188 l 1
 125 542 l 1025
291.666992188 542 m 1
 333.333007812 542 l 1
 333.333007812 583.666992188 l 1
 291.666992188 583.666992188 l 1
 291.666992188 542 l 1025
125 500.333007812 m 1
 208.333007812 500.333007812 l 1
 208.333007812 542 l 1
 125 542 l 1
 125 500.333007812 l 1025
291.666992188 500.333007812 m 1
 333.333007812 500.333007812 l 1
 333.333007812 542 l 1
 291.666992188 542 l 1
 291.666992188 500.333007812 l 1025
125 458.666992188 m 1
 250 458.666992188 l 1
 250 500.333007812 l 1
 125 500.333007812 l 1
 125 458.666992188 l 1025
291.666992188 458.666992188 m 1
 333.333007812 458.666992188 l 1
 333.333007812 500.333007812 l 1
 291.666992188 500.333007812 l 1
 291.666992188 458.666992188 l 1025
166.666992188 417 m 1
 333.333007812 417 l 1
 333.333007812 458.666992188 l 1
 166.666992188 458.666992188 l 1
 166.666992188 417 l 1025
208.333007812 375.333007812 m 1
 333.333007812 375.333007812 l 1
 333.333007812 417 l 1
 208.333007812 417 l 1
 208.333007812 375.333007812 l 1025
250 333.666992188 m 1
 416.666992188 333.666992188 l 1
 416.666992188 375.333007812 l 1
 250 375.333007812 l 1
 250 333.666992188 l 1025
291.666992188 292 m 1
 458.333007812 292 l 1
 458.333007812 333.666992188 l 1
 291.666992188 333.666992188 l 1
 291.666992188 292 l 1025
291.666992188 250.333007812 m 1
 333.333007812 250.333007812 l 1
 333.333007812 292 l 1
 291.666992188 292 l 1
 291.666992188 250.333007812 l 1025
375 250.333007812 m 1
 500 250.333007812 l 1
 500 292 l 1
 375 292 l 1
 375 250.333007812 l 1025
291.666992188 208.666992188 m 1
 333.333007812 208.666992188 l 1
 333.333007812 250.333007812 l 1
 291.666992188 250.333007812 l 1
 291.666992188 208.666992188 l 1025
416.666992188 208.666992188 m 1
 500 208.666992188 l 1
 500 250.333007812 l 1
 416.666992188 250.333007812 l 1
 416.666992188 208.666992188 l 1025
291.666992188 167 m 1
 333.333007812 167 l 1
 333.333007812 208.666992188 l 1
 291.666992188 208.666992188 l 1
 291.666992188 167 l 1025
416.666992188 167 m 1
 500 167 l 1
 500 208.666992188 l 1
 416.666992188 208.666992188 l 1
 416.666992188 167 l 1025
291.666992188 125.333007812 m 1
 333.333007812 125.333007812 l 1
 333.333007812 167 l 1
 291.666992188 167 l 1
 291.666992188 125.333007812 l 1025
416.666992188 125.333007812 m 1
 500 125.333007812 l 1
 500 167 l 1
 416.666992188 167 l 1
 416.666992188 125.333007812 l 1025
125 83.6669921875 m 1
 166.666992188 83.6669921875 l 1
 166.666992188 125.333007812 l 1
 125 125.333007812 l 1
 125 83.6669921875 l 1025
291.666992188 83.6669921875 m 1
 333.333007812 83.6669921875 l 1
 333.333007812 125.333007812 l 1
 291.666992188 125.333007812 l 1
 291.666992188 83.6669921875 l 1025
375 83.6669921875 m 1
 500 83.6669921875 l 1
 500 125.333007812 l 1
 375 125.333007812 l 1
 375 83.6669921875 l 1025
125 42 m 1
 250 42 l 1
 250 83.6669921875 l 1
 125 83.6669921875 l 1
 125 42 l 1025
291.666992188 42 m 1
 458.333007812 42 l 1
 458.333007812 83.6669921875 l 1
 291.666992188 83.6669921875 l 1
 291.666992188 42 l 1025
166.666992188 0.3330078125 m 1
 416.666992188 0.3330078125 l 1
 416.666992188 42 l 1
 166.666992188 42 l 1
 166.666992188 0.3330078125 l 1025
291.666992188 -41.3330078125 m 1
 333.333007812 -41.3330078125 l 1
 333.333007812 0.3330078125 l 1
 291.666992188 0.3330078125 l 1
 291.666992188 -41.3330078125 l 1025
291.666992188 -83 m 1
 291.666992188 -41.3330078125 l 1
 333.333007812 -41.3330078125 l 1
 333.333007812 -83 l 1
 291.666992188 -83 l 1
EndSplineSet
EndChar

StartChar: percent
Encoding: 37 37 6
Width: 583
Flags: HW
LayerCount: 2
Back
Fore
SplineSet
83.3330078125 667 m 1
 208.333007812 667 l 1
 208.333007812 708.666992188 l 1
 83.3330078125 708.666992188 l 1
 83.3330078125 667 l 1025
500 667 m 1
 583.333007812 667 l 1
 583.333007812 708.666992188 l 1
 500 708.666992188 l 1
 500 667 l 1025
41.6669921875 625.333007812 m 1
 83.3330078125 625.333007812 l 1
 83.3330078125 667 l 1
 41.6669921875 667 l 1
 41.6669921875 625.333007812 l 1025
208.333007812 625.333007812 m 1
 250 625.333007812 l 1
 250 667 l 1
 208.333007812 667 l 1
 208.333007812 625.333007812 l 1025
458.333007812 625.333007812 m 1
 541.666992188 625.333007812 l 1
 541.666992188 667 l 1
 458.333007812 667 l 1
 458.333007812 625.333007812 l 1025
0 583.666992188 m 1
 41.6669921875 583.666992188 l 1
 41.6669921875 625.333007812 l 1
 0 625.333007812 l 1
 0 583.666992188 l 1025
250 583.666992188 m 1
 291.666992188 583.666992188 l 1
 291.666992188 625.333007812 l 1
 250 625.333007812 l 1
 250 583.666992188 l 1025
458.333007812 583.666992188 m 1
 500 583.666992188 l 1
 500 625.333007812 l 1
 458.333007812 625.333007812 l 1
 458.333007812 583.666992188 l 1025
0 542 m 1
 41.6669921875 542 l 1
 41.6669921875 583.666992188 l 1
 0 583.666992188 l 1
 0 542 l 1025
250 542 m 1
 291.666992188 542 l 1
 291.666992188 583.666992188 l 1
 250 583.666992188 l 1
 250 542 l 1025
416.666992188 542 m 1
 458.333007812 542 l 1
 458.333007812 583.666992188 l 1
 416.666992188 583.666992188 l 1
 416.666992188 542 l 1025
0 500.333007812 m 1
 41.6669921875 500.333007812 l 1
 41.6669921875 542 l 1
 0 542 l 1
 0 500.333007812 l 1025
250 500.333007812 m 1
 291.666992188 500.333007812 l 1
 291.666992188 542 l 1
 250 542 l 1
 250 500.333007812 l 1025
375 500.333007812 m 1
 458.333007812 500.333007812 l 1
 458.333007812 542 l 1
 375 542 l 1
 375 500.333007812 l 1025
0 458.666992188 m 1
 41.6669921875 458.666992188 l 1
 41.6669921875 500.333007812 l 1
 0 500.333007812 l 1
 0 458.666992188 l 1025
250 458.666992188 m 1
 291.666992188 458.666992188 l 1
 291.666992188 500.333007812 l 1
 250 500.333007812 l 1
 250 458.666992188 l 1025
375 458.666992188 m 1
 416.666992188 458.666992188 l 1
 416.666992188 500.333007812 l 1
 375 500.333007812 l 1
 375 458.666992188 l 1025
41.6669921875 417 m 1
 83.3330078125 417 l 1
 83.3330078125 458.666992188 l 1
 41.6669921875 458.666992188 l 1
 41.6669921875 417 l 1025
208.333007812 417 m 1
 250 417 l 1
 250 458.666992188 l 1
 208.333007812 458.666992188 l 1
 208.333007812 417 l 1025
333.333007812 417 m 1
 375 417 l 1
 375 458.666992188 l 1
 333.333007812 458.666992188 l 1
 333.333007812 417 l 1025
83.3330078125 375.333007812 m 1
 208.333007812 375.333007812 l 1
 208.333007812 417 l 1
 83.3330078125 417 l 1
 83.3330078125 375.333007812 l 1025
291.666992188 375.333007812 m 1
 333.333007812 375.333007812 l 1
 333.333007812 417 l 1
 291.666992188 417 l 1
 291.666992188 375.333007812 l 1025
250 333.666992188 m 1
 333.333007812 333.666992188 l 1
 333.333007812 375.333007812 l 1
 250 375.333007812 l 1
 250 333.666992188 l 1025
250 292 m 1
 291.666992188 292 l 1
 291.666992188 333.666992188 l 1
 250 333.666992188 l 1
 250 292 l 1025
375 292 m 1
 500 292 l 1
 500 333.666992188 l 1
 375 333.666992188 l 1
 375 292 l 1025
208.333007812 250.333007812 m 1
 250 250.333007812 l 1
 250 292 l 1
 208.333007812 292 l 1
 208.333007812 250.333007812 l 1025
333.333007812 250.333007812 m 1
 375 250.333007812 l 1
 375 292 l 1
 333.333007812 292 l 1
 333.333007812 250.333007812 l 1025
500 250.333007812 m 1
 541.666992188 250.333007812 l 1
 541.666992188 292 l 1
 500 292 l 1
 500 250.333007812 l 1025
166.666992188 208.666992188 m 1
 208.333007812 208.666992188 l 1
 208.333007812 250.333007812 l 1
 166.666992188 250.333007812 l 1
 166.666992188 208.666992188 l 1025
291.666992188 208.666992188 m 1
 333.333007812 208.666992188 l 1
 333.333007812 250.333007812 l 1
 291.666992188 250.333007812 l 1
 291.666992188 208.666992188 l 1025
541.666992188 208.666992188 m 1
 583.333007812 208.666992188 l 1
 583.333007812 250.333007812 l 1
 541.666992188 250.333007812 l 1
 541.666992188 208.666992188 l 1025
125 167 m 1
 208.333007812 167 l 1
 208.333007812 208.666992188 l 1
 125 208.666992188 l 1
 125 167 l 1025
291.666992188 167 m 1
 333.333007812 167 l 1
 333.333007812 208.666992188 l 1
 291.666992188 208.666992188 l 1
 291.666992188 167 l 1025
541.666992188 167 m 1
 583.333007812 167 l 1
 583.333007812 208.666992188 l 1
 541.666992188 208.666992188 l 1
 541.666992188 167 l 1025
125 125.333007812 m 1
 166.666992188 125.333007812 l 1
 166.666992188 167 l 1
 125 167 l 1
 125 125.333007812 l 1025
291.666992188 125.333007812 m 1
 333.333007812 125.333007812 l 1
 333.333007812 167 l 1
 291.666992188 167 l 1
 291.666992188 125.333007812 l 1025
541.666992188 125.333007812 m 1
 583.333007812 125.333007812 l 1
 583.333007812 167 l 1
 541.666992188 167 l 1
 541.666992188 125.333007812 l 1025
83.3330078125 83.6669921875 m 1
 125 83.6669921875 l 1
 125 125.333007812 l 1
 83.3330078125 125.333007812 l 1
 83.3330078125 83.6669921875 l 1025
291.666992188 83.6669921875 m 1
 333.333007812 83.6669921875 l 1
 333.333007812 125.333007812 l 1
 291.666992188 125.333007812 l 1
 291.666992188 83.6669921875 l 1025
541.666992188 83.6669921875 m 1
 583.333007812 83.6669921875 l 1
 583.333007812 125.333007812 l 1
 541.666992188 125.333007812 l 1
 541.666992188 83.6669921875 l 1025
41.6669921875 42 m 1
 125 42 l 1
 125 83.6669921875 l 1
 41.6669921875 83.6669921875 l 1
 41.6669921875 42 l 1025
333.333007812 42 m 1
 375 42 l 1
 375 83.6669921875 l 1
 333.333007812 83.6669921875 l 1
 333.333007812 42 l 1025
500 42 m 1
 541.666992188 42 l 1
 541.666992188 83.6669921875 l 1
 500 83.6669921875 l 1
 500 42 l 1025
0 0.3330078125 m 1
 83.3330078125 0.3330078125 l 1
 83.3330078125 42 l 1
 0 42 l 1
 0 0.3330078125 l 1025
375 0.3330078125 m 1
 375 42 l 1
 500 42 l 1
 500 0.3330078125 l 1
 375 0.3330078125 l 1
EndSplineSet
EndChar

StartChar: ampersand
Encoding: 38 38 7
Width: 583
Flags: HW
LayerCount: 2
Back
Fore
SplineSet
208.333007812 667 m 1
 375 667 l 1
 375 708.666992188 l 1
 208.333007812 708.666992188 l 1
 208.333007812 667 l 1025
166.666992188 625.333007812 m 1
 250 625.333007812 l 1
 250 667 l 1
 166.666992188 667 l 1
 166.666992188 625.333007812 l 1025
333.333007812 625.333007812 m 1
 416.666992188 625.333007812 l 1
 416.666992188 667 l 1
 333.333007812 667 l 1
 333.333007812 625.333007812 l 1025
125 583.666992188 m 1
 208.333007812 583.666992188 l 1
 208.333007812 625.333007812 l 1
 125 625.333007812 l 1
 125 583.666992188 l 1025
375 583.666992188 m 1
 458.333007812 583.666992188 l 1
 458.333007812 625.333007812 l 1
 375 625.333007812 l 1
 375 583.666992188 l 1025
125 542 m 1
 208.333007812 542 l 1
 208.333007812 583.666992188 l 1
 125 583.666992188 l 1
 125 542 l 1025
375 542 m 1
 458.333007812 542 l 1
 458.333007812 583.666992188 l 1
 375 583.666992188 l 1
 375 542 l 1025
125 500.333007812 m 1
 208.333007812 500.333007812 l 1
 208.333007812 542 l 1
 125 542 l 1
 125 500.333007812 l 1025
333.333007812 500.333007812 m 1
 458.333007812 500.333007812 l 1
 458.333007812 542 l 1
 333.333007812 542 l 1
 333.333007812 500.333007812 l 1025
125 458.666992188 m 1
 250 458.666992188 l 1
 250 500.333007812 l 1
 125 500.333007812 l 1
 125 458.666992188 l 1025
333.333007812 458.666992188 m 1
 416.666992188 458.666992188 l 1
 416.666992188 500.333007812 l 1
 333.333007812 500.333007812 l 1
 333.333007812 458.666992188 l 1025
166.666992188 417 m 1
 333.333007812 417 l 1
 333.333007812 458.666992188 l 1
 166.666992188 458.666992188 l 1
 166.666992188 417 l 1025
166.666992188 375.333007812 m 1
 291.666992188 375.333007812 l 1
 291.666992188 417 l 1
 166.666992188 417 l 1
 166.666992188 375.333007812 l 1025
83.3330078125 333.666992188 m 1
 166.666992188 333.666992188 l 1
 166.666992188 375.333007812 l 1
 83.3330078125 375.333007812 l 1
 83.3330078125 333.666992188 l 1025
208.333007812 333.666992188 m 1
 291.666992188 333.666992188 l 1
 291.666992188 375.333007812 l 1
 208.333007812 375.333007812 l 1
 208.333007812 333.666992188 l 1025
541.666992188 333.666992188 m 1
 625 333.666992188 l 1
 625 375.333007812 l 1
 541.666992188 375.333007812 l 1
 541.666992188 333.666992188 l 1025
41.6669921875 292 m 1
 125 292 l 1
 125 333.666992188 l 1
 41.6669921875 333.666992188 l 1
 41.6669921875 292 l 1025
208.333007812 292 m 1
 333.333007812 292 l 1
 333.333007812 333.666992188 l 1
 208.333007812 333.666992188 l 1
 208.333007812 292 l 1025
541.666992188 292 m 1
 625 292 l 1
 625 333.666992188 l 1
 541.666992188 333.666992188 l 1
 541.666992188 292 l 1025
0 250.333007812 m 1
 83.3330078125 250.333007812 l 1
 83.3330078125 292 l 1
 0 292 l 1
 0 250.333007812 l 1025
250 250.333007812 m 1
 375 250.333007812 l 1
 375 292 l 1
 250 292 l 1
 250 250.333007812 l 1025
541.666992188 250.333007812 m 1
 625 250.333007812 l 1
 625 292 l 1
 541.666992188 292 l 1
 541.666992188 250.333007812 l 1025
0 208.666992188 m 1
 83.3330078125 208.666992188 l 1
 83.3330078125 250.333007812 l 1
 0 250.333007812 l 1
 0 208.666992188 l 1025
291.666992188 208.666992188 m 1
 416.666992188 208.666992188 l 1
 416.666992188 250.333007812 l 1
 291.666992188 250.333007812 l 1
 291.666992188 208.666992188 l 1025
541.666992188 208.666992188 m 1
 583.333007812 208.666992188 l 1
 583.333007812 250.333007812 l 1
 541.666992188 250.333007812 l 1
 541.666992188 208.666992188 l 1025
0 167 m 1
 83.3330078125 167 l 1
 83.3330078125 208.666992188 l 1
 0 208.666992188 l 1
 0 167 l 1025
333.333007812 167 m 1
 458.333007812 167 l 1
 458.333007812 208.666992188 l 1
 333.333007812 208.666992188 l 1
 333.333007812 167 l 1025
500 167 m 1
 583.333007812 167 l 1
 583.333007812 208.666992188 l 1
 500 208.666992188 l 1
 500 167 l 1025
0 125.333007812 m 1
 83.3330078125 125.333007812 l 1
 83.3330078125 167 l 1
 0 167 l 1
 0 125.333007812 l 1025
375 125.333007812 m 1
 583.333007812 125.333007812 l 1
 583.333007812 167 l 1
 375 167 l 1
 375 125.333007812 l 1025
41.6669921875 83.6669921875 m 1
 125 83.6669921875 l 1
 125 125.333007812 l 1
 41.6669921875 125.333007812 l 1
 41.6669921875 83.6669921875 l 1025
416.666992188 83.6669921875 m 1
 541.666992188 83.6669921875 l 1
 541.666992188 125.333007812 l 1
 416.666992188 125.333007812 l 1
 416.666992188 83.6669921875 l 1025
83.3330078125 42 m 1
 166.666992188 42 l 1
 166.666992188 83.6669921875 l 1
 83.3330078125 83.6669921875 l 1
 83.3330078125 42 l 1025
375 42 m 1
 583.333007812 42 l 1
 583.333007812 83.6669921875 l 1
 375 83.6669921875 l 1
 375 42 l 1025
125 0.3330078125 m 1
 416.666992188 0.3330078125 l 1
 416.666992188 42 l 1
 125 42 l 1
 125 0.3330078125 l 1025
458.333007812 0.3330078125 m 1
 458.333007812 42 l 1
 625 42 l 1
 625 0.3330078125 l 1
 458.333007812 0.3330078125 l 1
EndSplineSet
EndChar

StartChar: quotesingle
Encoding: 39 39 8
Width: 583
Flags: HW
LayerCount: 2
Back
Fore
SplineSet
250 667 m 1
 375 667 l 1
 375 708.666992188 l 1
 250 708.666992188 l 1
 250 667 l 1025
250 625.333007812 m 1
 375 625.333007812 l 1
 375 667 l 1
 250 667 l 1
 250 625.333007812 l 1025
250 583.666992188 m 1
 375 583.666992188 l 1
 375 625.333007812 l 1
 250 625.333007812 l 1
 250 583.666992188 l 1025
291.666992188 542 m 1
 333.333007812 542 l 1
 333.333007812 583.666992188 l 1
 291.666992188 583.666992188 l 1
 291.666992188 542 l 1025
291.666992188 500.333007812 m 1
 333.333007812 500.333007812 l 1
 333.333007812 542 l 1
 291.666992188 542 l 1
 291.666992188 500.333007812 l 1025
291.666992188 458.666992188 m 1
 291.666992188 500.333007812 l 1
 333.333007812 500.333007812 l 1
 333.333007812 458.666992188 l 1
 291.666992188 458.666992188 l 1
EndSplineSet
EndChar

StartChar: parenleft
Encoding: 40 40 9
Width: 583
Flags: HW
LayerCount: 2
Back
Fore
SplineSet
375 667 m 1
 500 667 l 1
 500 708.666992188 l 1
 375 708.666992188 l 1
 375 667 l 1025
333.333007812 625.333007812 m 1
 500 625.333007812 l 1
 500 667 l 1
 333.333007812 667 l 1
 333.333007812 625.333007812 l 1025
250 583.666992188 m 1
 416.666992188 583.666992188 l 1
 416.666992188 625.333007812 l 1
 250 625.333007812 l 1
 250 583.666992188 l 1025
250 542 m 1
 333.333007812 542 l 1
 333.333007812 583.666992188 l 1
 250 583.666992188 l 1
 250 542 l 1025
208.333007812 500.333007812 m 1
 333.333007812 500.333007812 l 1
 333.333007812 542 l 1
 208.333007812 542 l 1
 208.333007812 500.333007812 l 1025
208.333007812 458.666992188 m 1
 291.666992188 458.666992188 l 1
 291.666992188 500.333007812 l 1
 208.333007812 500.333007812 l 1
 208.333007812 458.666992188 l 1025
166.666992188 417 m 1
 291.666992188 417 l 1
 291.666992188 458.666992188 l 1
 166.666992188 458.666992188 l 1
 166.666992188 417 l 1025
166.666992188 375.333007812 m 1
 250 375.333007812 l 1
 250 417 l 1
 166.666992188 417 l 1
 166.666992188 375.333007812 l 1025
166.666992188 333.666992188 m 1
 250 333.666992188 l 1
 250 375.333007812 l 1
 166.666992188 375.333007812 l 1
 166.666992188 333.666992188 l 1025
166.666992188 292 m 1
 250 292 l 1
 250 333.666992188 l 1
 166.666992188 333.666992188 l 1
 166.666992188 292 l 1025
166.666992188 250.333007812 m 1
 250 250.333007812 l 1
 250 292 l 1
 166.666992188 292 l 1
 166.666992188 250.333007812 l 1025
166.666992188 208.666992188 m 1
 250 208.666992188 l 1
 250 250.333007812 l 1
 166.666992188 250.333007812 l 1
 166.666992188 208.666992188 l 1025
166.666992188 167 m 1
 250 167 l 1
 250 208.666992188 l 1
 166.666992188 208.666992188 l 1
 166.666992188 167 l 1025
166.666992188 125.333007812 m 1
 250 125.333007812 l 1
 250 167 l 1
 166.666992188 167 l 1
 166.666992188 125.333007812 l 1025
208.333007812 83.6669921875 m 1
 291.666992188 83.6669921875 l 1
 291.666992188 125.333007812 l 1
 208.333007812 125.333007812 l 1
 208.333007812 83.6669921875 l 1025
208.333007812 42 m 1
 291.666992188 42 l 1
 291.666992188 83.6669921875 l 1
 208.333007812 83.6669921875 l 1
 208.333007812 42 l 1025
250 0.3330078125 m 1
 333.333007812 0.3330078125 l 1
 333.333007812 42 l 1
 250 42 l 1
 250 0.3330078125 l 1025
250 -41.3330078125 m 1
 333.333007812 -41.3330078125 l 1
 333.333007812 0.3330078125 l 1
 250 0.3330078125 l 1
 250 -41.3330078125 l 1025
291.666992188 -83 m 1
 416.666992188 -83 l 1
 416.666992188 -41.3330078125 l 1
 291.666992188 -41.3330078125 l 1
 291.666992188 -83 l 1025
333.333007812 -124.666992188 m 1
 500 -124.666992188 l 1
 500 -83 l 1
 333.333007812 -83 l 1
 333.333007812 -124.666992188 l 1025
416.666992188 -166.333007812 m 1
 416.666992188 -124.666992188 l 1
 500 -124.666992188 l 1
 500 -166.333007812 l 1
 416.666992188 -166.333007812 l 1
EndSplineSet
EndChar

StartChar: parenright
Encoding: 41 41 10
Width: 583
Flags: HW
LayerCount: 2
Back
Fore
SplineSet
83.3330078125 667 m 1
 166.666992188 667 l 1
 166.666992188 708.666992188 l 1
 83.3330078125 708.666992188 l 1
 83.3330078125 667 l 1025
83.3330078125 625.333007812 m 1
 250 625.333007812 l 1
 250 667 l 1
 83.3330078125 667 l 1
 83.3330078125 625.333007812 l 1025
166.666992188 583.666992188 m 1
 291.666992188 583.666992188 l 1
 291.666992188 625.333007812 l 1
 166.666992188 625.333007812 l 1
 166.666992188 583.666992188 l 1025
250 542 m 1
 333.333007812 542 l 1
 333.333007812 583.666992188 l 1
 250 583.666992188 l 1
 250 542 l 1025
250 500.333007812 m 1
 333.333007812 500.333007812 l 1
 333.333007812 542 l 1
 250 542 l 1
 250 500.333007812 l 1025
291.666992188 458.666992188 m 1
 375 458.666992188 l 1
 375 500.333007812 l 1
 291.666992188 500.333007812 l 1
 291.666992188 458.666992188 l 1025
291.666992188 417 m 1
 375 417 l 1
 375 458.666992188 l 1
 291.666992188 458.666992188 l 1
 291.666992188 417 l 1025
333.333007812 375.333007812 m 1
 416.666992188 375.333007812 l 1
 416.666992188 417 l 1
 333.333007812 417 l 1
 333.333007812 375.333007812 l 1025
333.333007812 333.666992188 m 1
 416.666992188 333.666992188 l 1
 416.666992188 375.333007812 l 1
 333.333007812 375.333007812 l 1
 333.333007812 333.666992188 l 1025
333.333007812 292 m 1
 416.666992188 292 l 1
 416.666992188 333.666992188 l 1
 333.333007812 333.666992188 l 1
 333.333007812 292 l 1025
333.333007812 250.333007812 m 1
 416.666992188 250.333007812 l 1
 416.666992188 292 l 1
 333.333007812 292 l 1
 333.333007812 250.333007812 l 1025
333.333007812 208.666992188 m 1
 416.666992188 208.666992188 l 1
 416.666992188 250.333007812 l 1
 333.333007812 250.333007812 l 1
 333.333007812 208.666992188 l 1025
333.333007812 167 m 1
 416.666992188 167 l 1
 416.666992188 208.666992188 l 1
 333.333007812 208.666992188 l 1
 333.333007812 167 l 1025
333.333007812 125.333007812 m 1
 416.666992188 125.333007812 l 1
 416.666992188 167 l 1
 333.333007812 167 l 1
 333.333007812 125.333007812 l 1025
291.666992188 83.6669921875 m 1
 375 83.6669921875 l 1
 375 125.333007812 l 1
 291.666992188 125.333007812 l 1
 291.666992188 83.6669921875 l 1025
291.666992188 42 m 1
 375 42 l 1
 375 83.6669921875 l 1
 291.666992188 83.6669921875 l 1
 291.666992188 42 l 1025
250 0.3330078125 m 1
 375 0.3330078125 l 1
 375 42 l 1
 250 42 l 1
 250 0.3330078125 l 1025
250 -41.3330078125 m 1
 333.333007812 -41.3330078125 l 1
 333.333007812 0.3330078125 l 1
 250 0.3330078125 l 1
 250 -41.3330078125 l 1025
166.666992188 -83 m 1
 291.666992188 -83 l 1
 291.666992188 -41.3330078125 l 1
 166.666992188 -41.3330078125 l 1
 166.666992188 -83 l 1025
83.3330078125 -124.666992188 m 1
 250 -124.666992188 l 1
 250 -83 l 1
 83.3330078125 -83 l 1
 83.3330078125 -124.666992188 l 1025
83.3330078125 -166.333007812 m 1
 83.3330078125 -124.666992188 l 1
 166.666992188 -124.666992188 l 1
 166.666992188 -166.333007812 l 1
 83.3330078125 -166.333007812 l 1
EndSplineSet
EndChar

StartChar: asterisk
Encoding: 42 42 11
Width: 583
Flags: HW
LayerCount: 2
Back
Fore
SplineSet
250 667 m 1
 375 667 l 1
 375 708.666992188 l 1
 250 708.666992188 l 1
 250 667 l 1025
250 625.333007812 m 1
 375 625.333007812 l 1
 375 667 l 1
 250 667 l 1
 250 625.333007812 l 1025
125 583.666992188 m 1
 166.666992188 583.666992188 l 1
 166.666992188 625.333007812 l 1
 125 625.333007812 l 1
 125 583.666992188 l 1025
291.666992188 583.666992188 m 1
 333.333007812 583.666992188 l 1
 333.333007812 625.333007812 l 1
 291.666992188 625.333007812 l 1
 291.666992188 583.666992188 l 1025
500 583.666992188 m 1
 541.666992188 583.666992188 l 1
 541.666992188 625.333007812 l 1
 500 625.333007812 l 1
 500 583.666992188 l 1025
83.3330078125 542 m 1
 208.333007812 542 l 1
 208.333007812 583.666992188 l 1
 83.3330078125 583.666992188 l 1
 83.3330078125 542 l 1025
291.666992188 542 m 1
 333.333007812 542 l 1
 333.333007812 583.666992188 l 1
 291.666992188 583.666992188 l 1
 291.666992188 542 l 1025
416.666992188 542 m 1
 541.666992188 542 l 1
 541.666992188 583.666992188 l 1
 416.666992188 583.666992188 l 1
 416.666992188 542 l 1025
83.3330078125 500.333007812 m 1
 250 500.333007812 l 1
 250 542 l 1
 83.3330078125 542 l 1
 83.3330078125 500.333007812 l 1025
375 500.333007812 m 1
 541.666992188 500.333007812 l 1
 541.666992188 542 l 1
 375 542 l 1
 375 500.333007812 l 1025
208.333007812 417 m 1
 291.666992188 417 l 1
 291.666992188 458.666992188 l 1
 208.333007812 458.666992188 l 1
 208.333007812 417 l 1025
333.333007812 417 m 1
 416.666992188 417 l 1
 416.666992188 458.666992188 l 1
 333.333007812 458.666992188 l 1
 333.333007812 417 l 1025
166.666992188 375.333007812 m 1
 291.666992188 375.333007812 l 1
 291.666992188 417 l 1
 166.666992188 417 l 1
 166.666992188 375.333007812 l 1025
333.333007812 375.333007812 m 1
 458.333007812 375.333007812 l 1
 458.333007812 417 l 1
 333.333007812 417 l 1
 333.333007812 375.333007812 l 1025
125 333.666992188 m 1
 250 333.666992188 l 1
 250 375.333007812 l 1
 125 375.333007812 l 1
 125 333.666992188 l 1025
375 333.666992188 m 1
 500 333.666992188 l 1
 500 375.333007812 l 1
 375 375.333007812 l 1
 375 333.666992188 l 1025
208.333007812 292 m 1
 250 292 l 1
 250 333.666992188 l 1
 208.333007812 333.666992188 l 1
 208.333007812 292 l 1025
375 292 m 1
 375 333.666992188 l 1
 416.666992188 333.666992188 l 1
 416.666992188 292 l 1
 375 292 l 1
EndSplineSet
EndChar

StartChar: plus
Encoding: 43 43 12
Width: 583
Flags: HW
LayerCount: 2
Back
Fore
SplineSet
291.666992188 500.333007812 m 1
 333.333007812 500.333007812 l 1
 333.333007812 542 l 1
 291.666992188 542 l 1
 291.666992188 500.333007812 l 1025
291.666992188 458.666992188 m 1
 333.333007812 458.666992188 l 1
 333.333007812 500.333007812 l 1
 291.666992188 500.333007812 l 1
 291.666992188 458.666992188 l 1025
291.666992188 417 m 1
 333.333007812 417 l 1
 333.333007812 458.666992188 l 1
 291.666992188 458.666992188 l 1
 291.666992188 417 l 1025
291.666992188 375.333007812 m 1
 333.333007812 375.333007812 l 1
 333.333007812 417 l 1
 291.666992188 417 l 1
 291.666992188 375.333007812 l 1025
291.666992188 333.666992188 m 1
 333.333007812 333.666992188 l 1
 333.333007812 375.333007812 l 1
 291.666992188 375.333007812 l 1
 291.666992188 333.666992188 l 1025
291.666992188 292 m 1
 333.333007812 292 l 1
 333.333007812 333.666992188 l 1
 291.666992188 333.666992188 l 1
 291.666992188 292 l 1025
83.3330078125 250.333007812 m 1
 541.666992188 250.333007812 l 1
 541.666992188 292 l 1
 83.3330078125 292 l 1
 83.3330078125 250.333007812 l 1025
291.666992188 208.666992188 m 1
 333.333007812 208.666992188 l 1
 333.333007812 250.333007812 l 1
 291.666992188 250.333007812 l 1
 291.666992188 208.666992188 l 1025
291.666992188 167 m 1
 333.333007812 167 l 1
 333.333007812 208.666992188 l 1
 291.666992188 208.666992188 l 1
 291.666992188 167 l 1025
291.666992188 125.333007812 m 1
 333.333007812 125.333007812 l 1
 333.333007812 167 l 1
 291.666992188 167 l 1
 291.666992188 125.333007812 l 1025
291.666992188 83.6669921875 m 1
 333.333007812 83.6669921875 l 1
 333.333007812 125.333007812 l 1
 291.666992188 125.333007812 l 1
 291.666992188 83.6669921875 l 1025
291.666992188 42 m 1
 333.333007812 42 l 1
 333.333007812 83.6669921875 l 1
 291.666992188 83.6669921875 l 1
 291.666992188 42 l 1025
291.666992188 0.3330078125 m 1
 291.666992188 42 l 1
 333.333007812 42 l 1
 333.333007812 0.3330078125 l 1
 291.666992188 0.3330078125 l 1
EndSplineSet
EndChar

StartChar: comma
Encoding: 44 44 13
Width: 583
Flags: HW
LayerCount: 2
Back
Fore
SplineSet
250 125.333007812 m 1
 375 125.333007812 l 1
 375 167 l 1
 250 167 l 1
 250 125.333007812 l 1025
250 83.6669921875 m 1
 375 83.6669921875 l 1
 375 125.333007812 l 1
 250 125.333007812 l 1
 250 83.6669921875 l 1025
250 42 m 1
 375 42 l 1
 375 83.6669921875 l 1
 250 83.6669921875 l 1
 250 42 l 1025
250 0.3330078125 m 1
 375 0.3330078125 l 1
 375 42 l 1
 250 42 l 1
 250 0.3330078125 l 1025
333.333007812 -41.3330078125 m 1
 375 -41.3330078125 l 1
 375 0.3330078125 l 1
 333.333007812 0.3330078125 l 1
 333.333007812 -41.3330078125 l 1025
291.666992188 -83 m 1
 375 -83 l 1
 375 -41.3330078125 l 1
 291.666992188 -41.3330078125 l 1
 291.666992188 -83 l 1025
291.666992188 -124.666992188 m 1
 333.333007812 -124.666992188 l 1
 333.333007812 -83 l 1
 291.666992188 -83 l 1
 291.666992188 -124.666992188 l 1025
250 -166.333007812 m 1
 250 -124.666992188 l 1
 333.333007812 -124.666992188 l 1
 333.333007812 -166.333007812 l 1
 250 -166.333007812 l 1
EndSplineSet
EndChar

StartChar: period
Encoding: 46 46 15
Width: 583
Flags: HW
LayerCount: 2
Back
Fore
SplineSet
250 83.6669921875 m 1
 375 83.6669921875 l 1
 375 125.333007812 l 1
 250 125.333007812 l 1
 250 83.6669921875 l 1025
250 42 m 1
 375 42 l 1
 375 83.6669921875 l 1
 250 83.6669921875 l 1
 250 42 l 1025
250 0.3330078125 m 1
 250 42 l 1
 375 42 l 1
 375 0.3330078125 l 1
 250 0.3330078125 l 1
EndSplineSet
EndChar

StartChar: slash
Encoding: 47 47 16
Width: 583
Flags: HW
LayerCount: 2
Back
Fore
SplineSet
500 667 m 1
 583.333007812 667 l 1
 583.333007812 708.666992188 l 1
 500 708.666992188 l 1
 500 667 l 1025
500 625.333007812 m 1
 541.666992188 625.333007812 l 1
 541.666992188 667 l 1
 500 667 l 1
 500 625.333007812 l 1025
458.333007812 583.666992188 m 1
 500 583.666992188 l 1
 500 625.333007812 l 1
 458.333007812 625.333007812 l 1
 458.333007812 583.666992188 l 1025
458.333007812 542 m 1
 500 542 l 1
 500 583.666992188 l 1
 458.333007812 583.666992188 l 1
 458.333007812 542 l 1025
416.666992188 500.333007812 m 1
 458.333007812 500.333007812 l 1
 458.333007812 542 l 1
 416.666992188 542 l 1
 416.666992188 500.333007812 l 1025
416.666992188 458.666992188 m 1
 458.333007812 458.666992188 l 1
 458.333007812 500.333007812 l 1
 416.666992188 500.333007812 l 1
 416.666992188 458.666992188 l 1025
375 417 m 1
 416.666992188 417 l 1
 416.666992188 458.666992188 l 1
 375 458.666992188 l 1
 375 417 l 1025
333.333007812 375.333007812 m 1
 416.666992188 375.333007812 l 1
 416.666992188 417 l 1
 333.333007812 417 l 1
 333.333007812 375.333007812 l 1025
333.333007812 333.666992188 m 1
 375 333.666992188 l 1
 375 375.333007812 l 1
 333.333007812 375.333007812 l 1
 333.333007812 333.666992188 l 1025
291.666992188 292 m 1
 375 292 l 1
 375 333.666992188 l 1
 291.666992188 333.666992188 l 1
 291.666992188 292 l 1025
291.666992188 250.333007812 m 1
 333.333007812 250.333007812 l 1
 333.333007812 292 l 1
 291.666992188 292 l 1
 291.666992188 250.333007812 l 1025
250 208.666992188 m 1
 333.333007812 208.666992188 l 1
 333.333007812 250.333007812 l 1
 250 250.333007812 l 1
 250 208.666992188 l 1025
250 167 m 1
 291.666992188 167 l 1
 291.666992188 208.666992188 l 1
 250 208.666992188 l 1
 250 167 l 1025
208.333007812 125.333007812 m 1
 291.666992188 125.333007812 l 1
 291.666992188 167 l 1
 208.333007812 167 l 1
 208.333007812 125.333007812 l 1025
208.333007812 83.6669921875 m 1
 250 83.6669921875 l 1
 250 125.333007812 l 1
 208.333007812 125.333007812 l 1
 208.333007812 83.6669921875 l 1025
166.666992188 42 m 1
 208.333007812 42 l 1
 208.333007812 83.6669921875 l 1
 166.666992188 83.6669921875 l 1
 166.666992188 42 l 1025
166.666992188 0.3330078125 m 1
 208.333007812 0.3330078125 l 1
 208.333007812 42 l 1
 166.666992188 42 l 1
 166.666992188 0.3330078125 l 1025
125 -41.3330078125 m 1
 166.666992188 -41.3330078125 l 1
 166.666992188 0.3330078125 l 1
 125 0.3330078125 l 1
 125 -41.3330078125 l 1025
125 -83 m 1
 166.666992188 -83 l 1
 166.666992188 -41.3330078125 l 1
 125 -41.3330078125 l 1
 125 -83 l 1025
83.3330078125 -124.666992188 m 1
 125 -124.666992188 l 1
 125 -83 l 1
 83.3330078125 -83 l 1
 83.3330078125 -124.666992188 l 1025
41.6669921875 -166.333007812 m 1
 41.6669921875 -124.666992188 l 1
 125 -124.666992188 l 1
 125 -166.333007812 l 1
 41.6669921875 -166.333007812 l 1
EndSplineSet
EndChar

StartChar: zero
Encoding: 48 48 17
Width: 583
Flags: HW
LayerCount: 2
Back
Fore
SplineSet
208.333007812 667 m 1
 375 667 l 1
 375 708.666992188 l 1
 208.333007812 708.666992188 l 1
 208.333007812 667 l 1025
125 625.333007812 m 1
 208.333007812 625.333007812 l 1
 208.333007812 667 l 1
 125 667 l 1
 125 625.333007812 l 1025
375 625.333007812 m 1
 458.333007812 625.333007812 l 1
 458.333007812 667 l 1
 375 667 l 1
 375 625.333007812 l 1025
83.3330078125 583.666992188 m 1
 166.666992188 583.666992188 l 1
 166.666992188 625.333007812 l 1
 83.3330078125 625.333007812 l 1
 83.3330078125 583.666992188 l 1025
416.666992188 583.666992188 m 1
 500 583.666992188 l 1
 500 625.333007812 l 1
 416.666992188 625.333007812 l 1
 416.666992188 583.666992188 l 1025
83.3330078125 542 m 1
 166.666992188 542 l 1
 166.666992188 583.666992188 l 1
 83.3330078125 583.666992188 l 1
 83.3330078125 542 l 1025
416.666992188 542 m 1
 500 542 l 1
 500 583.666992188 l 1
 416.666992188 583.666992188 l 1
 416.666992188 542 l 1025
83.3330078125 500.333007812 m 1
 125 500.333007812 l 1
 125 542 l 1
 83.3330078125 542 l 1
 83.3330078125 500.333007812 l 1025
458.333007812 500.333007812 m 1
 500 500.333007812 l 1
 500 542 l 1
 458.333007812 542 l 1
 458.333007812 500.333007812 l 1025
41.6669921875 458.666992188 m 1
 125 458.666992188 l 1
 125 500.333007812 l 1
 41.6669921875 500.333007812 l 1
 41.6669921875 458.666992188 l 1025
458.333007812 458.666992188 m 1
 541.666992188 458.666992188 l 1
 541.666992188 500.333007812 l 1
 458.333007812 500.333007812 l 1
 458.333007812 458.666992188 l 1025
41.6669921875 417 m 1
 125 417 l 1
 125 458.666992188 l 1
 41.6669921875 458.666992188 l 1
 41.6669921875 417 l 1025
458.333007812 417 m 1
 541.666992188 417 l 1
 541.666992188 458.666992188 l 1
 458.333007812 458.666992188 l 1
 458.333007812 417 l 1025
41.6669921875 375.333007812 m 1
 125 375.333007812 l 1
 125 417 l 1
 41.6669921875 417 l 1
 41.6669921875 375.333007812 l 1025
458.333007812 375.333007812 m 1
 541.666992188 375.333007812 l 1
 541.666992188 417 l 1
 458.333007812 417 l 1
 458.333007812 375.333007812 l 1025
41.6669921875 333.666992188 m 1
 125 333.666992188 l 1
 125 375.333007812 l 1
 41.6669921875 375.333007812 l 1
 41.6669921875 333.666992188 l 1025
458.333007812 333.666992188 m 1
 541.666992188 333.666992188 l 1
 541.666992188 375.333007812 l 1
 458.333007812 375.333007812 l 1
 458.333007812 333.666992188 l 1025
41.6669921875 292 m 1
 125 292 l 1
 125 333.666992188 l 1
 41.6669921875 333.666992188 l 1
 41.6669921875 292 l 1025
458.333007812 292 m 1
 541.666992188 292 l 1
 541.666992188 333.666992188 l 1
 458.333007812 333.666992188 l 1
 458.333007812 292 l 1025
41.6669921875 250.333007812 m 1
 125 250.333007812 l 1
 125 292 l 1
 41.6669921875 292 l 1
 41.6669921875 250.333007812 l 1025
458.333007812 250.333007812 m 1
 541.666992188 250.333007812 l 1
 541.666992188 292 l 1
 458.333007812 292 l 1
 458.333007812 250.333007812 l 1025
41.6669921875 208.666992188 m 1
 125 208.666992188 l 1
 125 250.333007812 l 1
 41.6669921875 250.333007812 l 1
 41.6669921875 208.666992188 l 1025
458.333007812 208.666992188 m 1
 541.666992188 208.666992188 l 1
 541.666992188 250.333007812 l 1
 458.333007812 250.333007812 l 1
 458.333007812 208.666992188 l 1025
83.3330078125 167 m 1
 125 167 l 1
 125 208.666992188 l 1
 83.3330078125 208.666992188 l 1
 83.3330078125 167 l 1025
458.333007812 167 m 1
 500 167 l 1
 500 208.666992188 l 1
 458.333007812 208.666992188 l 1
 458.333007812 167 l 1025
83.3330078125 125.333007812 m 1
 166.666992188 125.333007812 l 1
 166.666992188 167 l 1
 83.3330078125 167 l 1
 83.3330078125 125.333007812 l 1025
416.666992188 125.333007812 m 1
 500 125.333007812 l 1
 500 167 l 1
 416.666992188 167 l 1
 416.666992188 125.333007812 l 1025
83.3330078125 83.6669921875 m 1
 166.666992188 83.6669921875 l 1
 166.666992188 125.333007812 l 1
 83.3330078125 125.333007812 l 1
 83.3330078125 83.6669921875 l 1025
416.666992188 83.6669921875 m 1
 500 83.6669921875 l 1
 500 125.333007812 l 1
 416.666992188 125.333007812 l 1
 416.666992188 83.6669921875 l 1025
125 42 m 1
 208.333007812 42 l 1
 208.333007812 83.6669921875 l 1
 125 83.6669921875 l 1
 125 42 l 1025
375 42 m 1
 458.333007812 42 l 1
 458.333007812 83.6669921875 l 1
 375 83.6669921875 l 1
 375 42 l 1025
208.333007812 0.3330078125 m 1
 208.333007812 42 l 1
 375 42 l 1
 375 0.3330078125 l 1
 208.333007812 0.3330078125 l 1
EndSplineSet
EndChar

StartChar: one
Encoding: 49 49 18
Width: 583
Flags: HW
LayerCount: 2
Back
Fore
SplineSet
333.333007812 667 m 1
 375 667 l 1
 375 708.666992188 l 1
 333.333007812 708.666992188 l 1
 333.333007812 667 l 1025
208.333007812 625.333007812 m 1
 375 625.333007812 l 1
 375 667 l 1
 208.333007812 667 l 1
 208.333007812 625.333007812 l 1025
83.3330078125 583.666992188 m 1
 250 583.666992188 l 1
 250 625.333007812 l 1
 83.3330078125 625.333007812 l 1
 83.3330078125 583.666992188 l 1025
291.666992188 583.666992188 m 1
 375 583.666992188 l 1
 375 625.333007812 l 1
 291.666992188 625.333007812 l 1
 291.666992188 583.666992188 l 1025
291.666992188 542 m 1
 375 542 l 1
 375 583.666992188 l 1
 291.666992188 583.666992188 l 1
 291.666992188 542 l 1025
291.666992188 500.333007812 m 1
 375 500.333007812 l 1
 375 542 l 1
 291.666992188 542 l 1
 291.666992188 500.333007812 l 1025
291.666992188 458.666992188 m 1
 375 458.666992188 l 1
 375 500.333007812 l 1
 291.666992188 500.333007812 l 1
 291.666992188 458.666992188 l 1025
291.666992188 417 m 1
 375 417 l 1
 375 458.666992188 l 1
 291.666992188 458.666992188 l 1
 291.666992188 417 l 1025
291.666992188 375.333007812 m 1
 375 375.333007812 l 1
 375 417 l 1
 291.666992188 417 l 1
 291.666992188 375.333007812 l 1025
291.666992188 333.666992188 m 1
 375 333.666992188 l 1
 375 375.333007812 l 1
 291.666992188 375.333007812 l 1
 291.666992188 333.666992188 l 1025
291.666992188 292 m 1
 375 292 l 1
 375 333.666992188 l 1
 291.666992188 333.666992188 l 1
 291.666992188 292 l 1025
291.666992188 250.333007812 m 1
 375 250.333007812 l 1
 375 292 l 1
 291.666992188 292 l 1
 291.666992188 250.333007812 l 1025
291.666992188 208.666992188 m 1
 375 208.666992188 l 1
 375 250.333007812 l 1
 291.666992188 250.333007812 l 1
 291.666992188 208.666992188 l 1025
291.666992188 167 m 1
 375 167 l 1
 375 208.666992188 l 1
 291.666992188 208.666992188 l 1
 291.666992188 167 l 1025
291.666992188 125.333007812 m 1
 375 125.333007812 l 1
 375 167 l 1
 291.666992188 167 l 1
 291.666992188 125.333007812 l 1025
291.666992188 83.6669921875 m 1
 375 83.6669921875 l 1
 375 125.333007812 l 1
 291.666992188 125.333007812 l 1
 291.666992188 83.6669921875 l 1025
291.666992188 42 m 1
 375 42 l 1
 375 83.6669921875 l 1
 291.666992188 83.6669921875 l 1
 291.666992188 42 l 1025
83.3330078125 0.3330078125 m 1
 83.3330078125 42 l 1
 583.333007812 42 l 1
 583.333007812 0.3330078125 l 1
 83.3330078125 0.3330078125 l 1
EndSplineSet
EndChar

StartChar: two
Encoding: 50 50 19
Width: 583
Flags: HW
LayerCount: 2
Back
Fore
SplineSet
125 667 m 1
 375 667 l 1
 375 708.666992188 l 1
 125 708.666992188 l 1
 125 667 l 1025
83.3330078125 625.333007812 m 1
 166.666992188 625.333007812 l 1
 166.666992188 667 l 1
 83.3330078125 667 l 1
 83.3330078125 625.333007812 l 1025
333.333007812 625.333007812 m 1
 416.666992188 625.333007812 l 1
 416.666992188 667 l 1
 333.333007812 667 l 1
 333.333007812 625.333007812 l 1025
375 583.666992188 m 1
 458.333007812 583.666992188 l 1
 458.333007812 625.333007812 l 1
 375 625.333007812 l 1
 375 583.666992188 l 1025
375 542 m 1
 458.333007812 542 l 1
 458.333007812 583.666992188 l 1
 375 583.666992188 l 1
 375 542 l 1025
375 500.333007812 m 1
 458.333007812 500.333007812 l 1
 458.333007812 542 l 1
 375 542 l 1
 375 500.333007812 l 1025
375 458.666992188 m 1
 458.333007812 458.666992188 l 1
 458.333007812 500.333007812 l 1
 375 500.333007812 l 1
 375 458.666992188 l 1025
375 417 m 1
 416.666992188 417 l 1
 416.666992188 458.666992188 l 1
 375 458.666992188 l 1
 375 417 l 1025
333.333007812 375.333007812 m 1
 416.666992188 375.333007812 l 1
 416.666992188 417 l 1
 333.333007812 417 l 1
 333.333007812 375.333007812 l 1025
333.333007812 333.666992188 m 1
 375 333.666992188 l 1
 375 375.333007812 l 1
 333.333007812 375.333007812 l 1
 333.333007812 333.666992188 l 1025
291.666992188 292 m 1
 333.333007812 292 l 1
 333.333007812 333.666992188 l 1
 291.666992188 333.666992188 l 1
 291.666992188 292 l 1025
250 250.333007812 m 1
 291.666992188 250.333007812 l 1
 291.666992188 292 l 1
 250 292 l 1
 250 250.333007812 l 1025
208.333007812 208.666992188 m 1
 250 208.666992188 l 1
 250 250.333007812 l 1
 208.333007812 250.333007812 l 1
 208.333007812 208.666992188 l 1025
166.666992188 167 m 1
 250 167 l 1
 250 208.666992188 l 1
 166.666992188 208.666992188 l 1
 166.666992188 167 l 1025
125 125.333007812 m 1
 208.333007812 125.333007812 l 1
 208.333007812 167 l 1
 125 167 l 1
 125 125.333007812 l 1025
83.3330078125 83.6669921875 m 1
 208.333007812 83.6669921875 l 1
 208.333007812 125.333007812 l 1
 83.3330078125 125.333007812 l 1
 83.3330078125 83.6669921875 l 1025
83.3330078125 42 m 1
 208.333007812 42 l 1
 208.333007812 83.6669921875 l 1
 83.3330078125 83.6669921875 l 1
 83.3330078125 42 l 1025
83.3330078125 0.3330078125 m 1
 83.3330078125 42 l 1
 458.333007812 42 l 1
 458.333007812 0.3330078125 l 1
 83.3330078125 0.3330078125 l 1
EndSplineSet
EndChar

StartChar: three
Encoding: 51 51 20
Width: 583
Flags: HW
LayerCount: 2
Back
Fore
SplineSet
125 667 m 1
 416.666992188 667 l 1
 416.666992188 708.666992188 l 1
 125 708.666992188 l 1
 125 667 l 1025
125 625.333007812 m 1
 166.666992188 625.333007812 l 1
 166.666992188 667 l 1
 125 667 l 1
 125 625.333007812 l 1025
375 625.333007812 m 1
 458.333007812 625.333007812 l 1
 458.333007812 667 l 1
 375 667 l 1
 375 625.333007812 l 1025
416.666992188 583.666992188 m 1
 500 583.666992188 l 1
 500 625.333007812 l 1
 416.666992188 625.333007812 l 1
 416.666992188 583.666992188 l 1025
416.666992188 542 m 1
 500 542 l 1
 500 583.666992188 l 1
 416.666992188 583.666992188 l 1
 416.666992188 542 l 1025
416.666992188 500.333007812 m 1
 500 500.333007812 l 1
 500 542 l 1
 416.666992188 542 l 1
 416.666992188 500.333007812 l 1025
416.666992188 458.666992188 m 1
 500 458.666992188 l 1
 500 500.333007812 l 1
 416.666992188 500.333007812 l 1
 416.666992188 458.666992188 l 1025
333.333007812 417 m 1
 458.333007812 417 l 1
 458.333007812 458.666992188 l 1
 333.333007812 458.666992188 l 1
 333.333007812 417 l 1025
166.666992188 375.333007812 m 1
 375 375.333007812 l 1
 375 417 l 1
 166.666992188 417 l 1
 166.666992188 375.333007812 l 1025
333.333007812 333.666992188 m 1
 416.666992188 333.666992188 l 1
 416.666992188 375.333007812 l 1
 333.333007812 375.333007812 l 1
 333.333007812 333.666992188 l 1025
375 292 m 1
 458.333007812 292 l 1
 458.333007812 333.666992188 l 1
 375 333.666992188 l 1
 375 292 l 1025
416.666992188 250.333007812 m 1
 500 250.333007812 l 1
 500 292 l 1
 416.666992188 292 l 1
 416.666992188 250.333007812 l 1025
416.666992188 208.666992188 m 1
 500 208.666992188 l 1
 500 250.333007812 l 1
 416.666992188 250.333007812 l 1
 416.666992188 208.666992188 l 1025
416.666992188 167 m 1
 500 167 l 1
 500 208.666992188 l 1
 416.666992188 208.666992188 l 1
 416.666992188 167 l 1025
416.666992188 125.333007812 m 1
 500 125.333007812 l 1
 500 167 l 1
 416.666992188 167 l 1
 416.666992188 125.333007812 l 1025
375 83.6669921875 m 1
 458.333007812 83.6669921875 l 1
 458.333007812 125.333007812 l 1
 375 125.333007812 l 1
 375 83.6669921875 l 1025
125 42 m 1
 166.666992188 42 l 1
 166.666992188 83.6669921875 l 1
 125 83.6669921875 l 1
 125 42 l 1025
333.333007812 42 m 1
 458.333007812 42 l 1
 458.333007812 83.6669921875 l 1
 333.333007812 83.6669921875 l 1
 333.333007812 42 l 1025
125 0.3330078125 m 1
 125 42 l 1
 375 42 l 1
 375 0.3330078125 l 1
 125 0.3330078125 l 1
EndSplineSet
EndChar

StartChar: four
Encoding: 52 52 21
Width: 583
Flags: HW
LayerCount: 2
Back
Fore
SplineSet
375 667 m 1
 458.333007812 667 l 1
 458.333007812 708.666992188 l 1
 375 708.666992188 l 1
 375 667 l 1025
333.333007812 625.333007812 m 1
 458.333007812 625.333007812 l 1
 458.333007812 667 l 1
 333.333007812 667 l 1
 333.333007812 625.333007812 l 1025
333.333007812 583.666992188 m 1
 458.333007812 583.666992188 l 1
 458.333007812 625.333007812 l 1
 333.333007812 625.333007812 l 1
 333.333007812 583.666992188 l 1025
291.666992188 542 m 1
 333.333007812 542 l 1
 333.333007812 583.666992188 l 1
 291.666992188 583.666992188 l 1
 291.666992188 542 l 1025
375 542 m 1
 458.333007812 542 l 1
 458.333007812 583.666992188 l 1
 375 583.666992188 l 1
 375 542 l 1025
250 500.333007812 m 1
 333.333007812 500.333007812 l 1
 333.333007812 542 l 1
 250 542 l 1
 250 500.333007812 l 1025
375 500.333007812 m 1
 458.333007812 500.333007812 l 1
 458.333007812 542 l 1
 375 542 l 1
 375 500.333007812 l 1025
250 458.666992188 m 1
 291.666992188 458.666992188 l 1
 291.666992188 500.333007812 l 1
 250 500.333007812 l 1
 250 458.666992188 l 1025
375 458.666992188 m 1
 458.333007812 458.666992188 l 1
 458.333007812 500.333007812 l 1
 375 500.333007812 l 1
 375 458.666992188 l 1025
208.333007812 417 m 1
 250 417 l 1
 250 458.666992188 l 1
 208.333007812 458.666992188 l 1
 208.333007812 417 l 1025
375 417 m 1
 458.333007812 417 l 1
 458.333007812 458.666992188 l 1
 375 458.666992188 l 1
 375 417 l 1025
166.666992188 375.333007812 m 1
 250 375.333007812 l 1
 250 417 l 1
 166.666992188 417 l 1
 166.666992188 375.333007812 l 1025
375 375.333007812 m 1
 458.333007812 375.333007812 l 1
 458.333007812 417 l 1
 375 417 l 1
 375 375.333007812 l 1025
166.666992188 333.666992188 m 1
 208.333007812 333.666992188 l 1
 208.333007812 375.333007812 l 1
 166.666992188 375.333007812 l 1
 166.666992188 333.666992188 l 1025
375 333.666992188 m 1
 458.333007812 333.666992188 l 1
 458.333007812 375.333007812 l 1
 375 375.333007812 l 1
 375 333.666992188 l 1025
125 292 m 1
 166.666992188 292 l 1
 166.666992188 333.666992188 l 1
 125 333.666992188 l 1
 125 292 l 1025
375 292 m 1
 458.333007812 292 l 1
 458.333007812 333.666992188 l 1
 375 333.666992188 l 1
 375 292 l 1025
83.3330078125 250.333007812 m 1
 166.666992188 250.333007812 l 1
 166.666992188 292 l 1
 83.3330078125 292 l 1
 83.3330078125 250.333007812 l 1025
375 250.333007812 m 1
 458.333007812 250.333007812 l 1
 458.333007812 292 l 1
 375 292 l 1
 375 250.333007812 l 1025
83.3330078125 208.666992188 m 1
 541.666992188 208.666992188 l 1
 541.666992188 250.333007812 l 1
 83.3330078125 250.333007812 l 1
 83.3330078125 208.666992188 l 1025
375 167 m 1
 458.333007812 167 l 1
 458.333007812 208.666992188 l 1
 375 208.666992188 l 1
 375 167 l 1025
375 125.333007812 m 1
 458.333007812 125.333007812 l 1
 458.333007812 167 l 1
 375 167 l 1
 375 125.333007812 l 1025
375 83.6669921875 m 1
 458.333007812 83.6669921875 l 1
 458.333007812 125.333007812 l 1
 375 125.333007812 l 1
 375 83.6669921875 l 1025
375 42 m 1
 458.333007812 42 l 1
 458.333007812 83.6669921875 l 1
 375 83.6669921875 l 1
 375 42 l 1025
375 0.3330078125 m 1
 375 42 l 1
 458.333007812 42 l 1
 458.333007812 0.3330078125 l 1
 375 0.3330078125 l 1
EndSplineSet
EndChar

StartChar: five
Encoding: 53 53 22
Width: 583
Flags: HW
LayerCount: 2
Back
Fore
SplineSet
125 667 m 1
 500 667 l 1
 500 708.666992188 l 1
 125 708.666992188 l 1
 125 667 l 1025
125 625.333007812 m 1
 166.666992188 625.333007812 l 1
 166.666992188 667 l 1
 125 667 l 1
 125 625.333007812 l 1025
125 583.666992188 m 1
 166.666992188 583.666992188 l 1
 166.666992188 625.333007812 l 1
 125 625.333007812 l 1
 125 583.666992188 l 1025
125 542 m 1
 166.666992188 542 l 1
 166.666992188 583.666992188 l 1
 125 583.666992188 l 1
 125 542 l 1025
125 500.333007812 m 1
 166.666992188 500.333007812 l 1
 166.666992188 542 l 1
 125 542 l 1
 125 500.333007812 l 1025
125 458.666992188 m 1
 166.666992188 458.666992188 l 1
 166.666992188 500.333007812 l 1
 125 500.333007812 l 1
 125 458.666992188 l 1025
125 417 m 1
 333.333007812 417 l 1
 333.333007812 458.666992188 l 1
 125 458.666992188 l 1
 125 417 l 1025
291.666992188 375.333007812 m 1
 416.666992188 375.333007812 l 1
 416.666992188 417 l 1
 291.666992188 417 l 1
 291.666992188 375.333007812 l 1025
375 333.666992188 m 1
 458.333007812 333.666992188 l 1
 458.333007812 375.333007812 l 1
 375 375.333007812 l 1
 375 333.666992188 l 1025
416.666992188 292 m 1
 500 292 l 1
 500 333.666992188 l 1
 416.666992188 333.666992188 l 1
 416.666992188 292 l 1025
416.666992188 250.333007812 m 1
 500 250.333007812 l 1
 500 292 l 1
 416.666992188 292 l 1
 416.666992188 250.333007812 l 1025
416.666992188 208.666992188 m 1
 500 208.666992188 l 1
 500 250.333007812 l 1
 416.666992188 250.333007812 l 1
 416.666992188 208.666992188 l 1025
416.666992188 167 m 1
 500 167 l 1
 500 208.666992188 l 1
 416.666992188 208.666992188 l 1
 416.666992188 167 l 1025
416.666992188 125.333007812 m 1
 500 125.333007812 l 1
 500 167 l 1
 416.666992188 167 l 1
 416.666992188 125.333007812 l 1025
375 83.6669921875 m 1
 458.333007812 83.6669921875 l 1
 458.333007812 125.333007812 l 1
 375 125.333007812 l 1
 375 83.6669921875 l 1025
125 42 m 1
 166.666992188 42 l 1
 166.666992188 83.6669921875 l 1
 125 83.6669921875 l 1
 125 42 l 1025
333.333007812 42 m 1
 416.666992188 42 l 1
 416.666992188 83.6669921875 l 1
 333.333007812 83.6669921875 l 1
 333.333007812 42 l 1025
125 0.3330078125 m 1
 125 42 l 1
 375 42 l 1
 375 0.3330078125 l 1
 125 0.3330078125 l 1
EndSplineSet
EndChar

StartChar: six
Encoding: 54 54 23
Width: 583
Flags: HW
LayerCount: 2
Back
Fore
SplineSet
250 667 m 1
 500 667 l 1
 500 708.666992188 l 1
 250 708.666992188 l 1
 250 667 l 1025
208.333007812 625.333007812 m 1
 250 625.333007812 l 1
 250 667 l 1
 208.333007812 667 l 1
 208.333007812 625.333007812 l 1025
458.333007812 625.333007812 m 1
 500 625.333007812 l 1
 500 667 l 1
 458.333007812 667 l 1
 458.333007812 625.333007812 l 1025
166.666992188 583.666992188 m 1
 208.333007812 583.666992188 l 1
 208.333007812 625.333007812 l 1
 166.666992188 625.333007812 l 1
 166.666992188 583.666992188 l 1025
125 542 m 1
 208.333007812 542 l 1
 208.333007812 583.666992188 l 1
 125 583.666992188 l 1
 125 542 l 1025
125 500.333007812 m 1
 166.666992188 500.333007812 l 1
 166.666992188 542 l 1
 125 542 l 1
 125 500.333007812 l 1025
83.3330078125 458.666992188 m 1
 166.666992188 458.666992188 l 1
 166.666992188 500.333007812 l 1
 83.3330078125 500.333007812 l 1
 83.3330078125 458.666992188 l 1025
83.3330078125 417 m 1
 166.666992188 417 l 1
 166.666992188 458.666992188 l 1
 83.3330078125 458.666992188 l 1
 83.3330078125 417 l 1025
208.333007812 417 m 1
 416.666992188 417 l 1
 416.666992188 458.666992188 l 1
 208.333007812 458.666992188 l 1
 208.333007812 417 l 1025
83.3330078125 375.333007812 m 1
 250 375.333007812 l 1
 250 417 l 1
 83.3330078125 417 l 1
 83.3330078125 375.333007812 l 1025
375 375.333007812 m 1
 500 375.333007812 l 1
 500 417 l 1
 375 417 l 1
 375 375.333007812 l 1025
83.3330078125 333.666992188 m 1
 208.333007812 333.666992188 l 1
 208.333007812 375.333007812 l 1
 83.3330078125 375.333007812 l 1
 83.3330078125 333.666992188 l 1025
416.666992188 333.666992188 m 1
 500 333.666992188 l 1
 500 375.333007812 l 1
 416.666992188 375.333007812 l 1
 416.666992188 333.666992188 l 1025
83.3330078125 292 m 1
 166.666992188 292 l 1
 166.666992188 333.666992188 l 1
 83.3330078125 333.666992188 l 1
 83.3330078125 292 l 1025
458.333007812 292 m 1
 541.666992188 292 l 1
 541.666992188 333.666992188 l 1
 458.333007812 333.666992188 l 1
 458.333007812 292 l 1025
83.3330078125 250.333007812 m 1
 166.666992188 250.333007812 l 1
 166.666992188 292 l 1
 83.3330078125 292 l 1
 83.3330078125 250.333007812 l 1025
458.333007812 250.333007812 m 1
 541.666992188 250.333007812 l 1
 541.666992188 292 l 1
 458.333007812 292 l 1
 458.333007812 250.333007812 l 1025
83.3330078125 208.666992188 m 1
 166.666992188 208.666992188 l 1
 166.666992188 250.333007812 l 1
 83.3330078125 250.333007812 l 1
 83.3330078125 208.666992188 l 1025
458.333007812 208.666992188 m 1
 541.666992188 208.666992188 l 1
 541.666992188 250.333007812 l 1
 458.333007812 250.333007812 l 1
 458.333007812 208.666992188 l 1025
83.3330078125 167 m 1
 166.666992188 167 l 1
 166.666992188 208.666992188 l 1
 83.3330078125 208.666992188 l 1
 83.3330078125 167 l 1025
458.333007812 167 m 1
 541.666992188 167 l 1
 541.666992188 208.666992188 l 1
 458.333007812 208.666992188 l 1
 458.333007812 167 l 1025
125 125.333007812 m 1
 166.666992188 125.333007812 l 1
 166.666992188 167 l 1
 125 167 l 1
 125 125.333007812 l 1025
458.333007812 125.333007812 m 1
 541.666992188 125.333007812 l 1
 541.666992188 167 l 1
 458.333007812 167 l 1
 458.333007812 125.333007812 l 1025
125 83.6669921875 m 1
 208.333007812 83.6669921875 l 1
 208.333007812 125.333007812 l 1
 125 125.333007812 l 1
 125 83.6669921875 l 1025
416.666992188 83.6669921875 m 1
 500 83.6669921875 l 1
 500 125.333007812 l 1
 416.666992188 125.333007812 l 1
 416.666992188 83.6669921875 l 1025
166.666992188 42 m 1
 250 42 l 1
 250 83.6669921875 l 1
 166.666992188 83.6669921875 l 1
 166.666992188 42 l 1025
375 42 m 1
 458.333007812 42 l 1
 458.333007812 83.6669921875 l 1
 375 83.6669921875 l 1
 375 42 l 1025
208.333007812 0.3330078125 m 1
 208.333007812 42 l 1
 416.666992188 42 l 1
 416.666992188 0.3330078125 l 1
 208.333007812 0.3330078125 l 1
EndSplineSet
EndChar

StartChar: seven
Encoding: 55 55 24
Width: 583
Flags: HW
LayerCount: 2
Back
Fore
SplineSet
125 667 m 1
 541.666992188 667 l 1
 541.666992188 708.666992188 l 1
 125 708.666992188 l 1
 125 667 l 1025
125 625.333007812 m 1
 541.666992188 625.333007812 l 1
 541.666992188 667 l 1
 125 667 l 1
 125 625.333007812 l 1025
458.333007812 583.666992188 m 1
 500 583.666992188 l 1
 500 625.333007812 l 1
 458.333007812 625.333007812 l 1
 458.333007812 583.666992188 l 1025
416.666992188 542 m 1
 500 542 l 1
 500 583.666992188 l 1
 416.666992188 583.666992188 l 1
 416.666992188 542 l 1025
416.666992188 500.333007812 m 1
 458.333007812 500.333007812 l 1
 458.333007812 542 l 1
 416.666992188 542 l 1
 416.666992188 500.333007812 l 1025
375 458.666992188 m 1
 458.333007812 458.666992188 l 1
 458.333007812 500.333007812 l 1
 375 500.333007812 l 1
 375 458.666992188 l 1025
375 417 m 1
 416.666992188 417 l 1
 416.666992188 458.666992188 l 1
 375 458.666992188 l 1
 375 417 l 1025
333.333007812 375.333007812 m 1
 416.666992188 375.333007812 l 1
 416.666992188 417 l 1
 333.333007812 417 l 1
 333.333007812 375.333007812 l 1025
333.333007812 333.666992188 m 1
 375 333.666992188 l 1
 375 375.333007812 l 1
 333.333007812 375.333007812 l 1
 333.333007812 333.666992188 l 1025
291.666992188 292 m 1
 375 292 l 1
 375 333.666992188 l 1
 291.666992188 333.666992188 l 1
 291.666992188 292 l 1025
291.666992188 250.333007812 m 1
 333.333007812 250.333007812 l 1
 333.333007812 292 l 1
 291.666992188 292 l 1
 291.666992188 250.333007812 l 1025
250 208.666992188 m 1
 333.333007812 208.666992188 l 1
 333.333007812 250.333007812 l 1
 250 250.333007812 l 1
 250 208.666992188 l 1025
250 167 m 1
 291.666992188 167 l 1
 291.666992188 208.666992188 l 1
 250 208.666992188 l 1
 250 167 l 1025
208.333007812 125.333007812 m 1
 291.666992188 125.333007812 l 1
 291.666992188 167 l 1
 208.333007812 167 l 1
 208.333007812 125.333007812 l 1025
208.333007812 83.6669921875 m 1
 291.666992188 83.6669921875 l 1
 291.666992188 125.333007812 l 1
 208.333007812 125.333007812 l 1
 208.333007812 83.6669921875 l 1025
166.666992188 42 m 1
 250 42 l 1
 250 83.6669921875 l 1
 166.666992188 83.6669921875 l 1
 166.666992188 42 l 1025
166.666992188 0.3330078125 m 1
 166.666992188 42 l 1
 250 42 l 1
 250 0.3330078125 l 1
 166.666992188 0.3330078125 l 1
EndSplineSet
EndChar

StartChar: eight
Encoding: 56 56 25
Width: 583
Flags: HW
LayerCount: 2
Back
Fore
SplineSet
208.333007812 667 m 1
 416.666992188 667 l 1
 416.666992188 708.666992188 l 1
 208.333007812 708.666992188 l 1
 208.333007812 667 l 1025
166.666992188 625.333007812 m 1
 250 625.333007812 l 1
 250 667 l 1
 166.666992188 667 l 1
 166.666992188 625.333007812 l 1025
416.666992188 625.333007812 m 1
 458.333007812 625.333007812 l 1
 458.333007812 667 l 1
 416.666992188 667 l 1
 416.666992188 625.333007812 l 1025
125 583.666992188 m 1
 208.333007812 583.666992188 l 1
 208.333007812 625.333007812 l 1
 125 625.333007812 l 1
 125 583.666992188 l 1025
458.333007812 583.666992188 m 1
 500 583.666992188 l 1
 500 625.333007812 l 1
 458.333007812 625.333007812 l 1
 458.333007812 583.666992188 l 1025
125 542 m 1
 208.333007812 542 l 1
 208.333007812 583.666992188 l 1
 125 583.666992188 l 1
 125 542 l 1025
458.333007812 542 m 1
 500 542 l 1
 500 583.666992188 l 1
 458.333007812 583.666992188 l 1
 458.333007812 542 l 1025
125 500.333007812 m 1
 208.333007812 500.333007812 l 1
 208.333007812 542 l 1
 125 542 l 1
 125 500.333007812 l 1025
458.333007812 500.333007812 m 1
 500 500.333007812 l 1
 500 542 l 1
 458.333007812 542 l 1
 458.333007812 500.333007812 l 1025
125 458.666992188 m 1
 250 458.666992188 l 1
 250 500.333007812 l 1
 125 500.333007812 l 1
 125 458.666992188 l 1025
416.666992188 458.666992188 m 1
 500 458.666992188 l 1
 500 500.333007812 l 1
 416.666992188 500.333007812 l 1
 416.666992188 458.666992188 l 1025
166.666992188 417 m 1
 333.333007812 417 l 1
 333.333007812 458.666992188 l 1
 166.666992188 458.666992188 l 1
 166.666992188 417 l 1025
375 417 m 1
 458.333007812 417 l 1
 458.333007812 458.666992188 l 1
 375 458.666992188 l 1
 375 417 l 1025
208.333007812 375.333007812 m 1
 416.666992188 375.333007812 l 1
 416.666992188 417 l 1
 208.333007812 417 l 1
 208.333007812 375.333007812 l 1025
208.333007812 333.666992188 m 1
 458.333007812 333.666992188 l 1
 458.333007812 375.333007812 l 1
 208.333007812 375.333007812 l 1
 208.333007812 333.666992188 l 1025
125 292 m 1
 208.333007812 292 l 1
 208.333007812 333.666992188 l 1
 125 333.666992188 l 1
 125 292 l 1025
333.333007812 292 m 1
 500 292 l 1
 500 333.666992188 l 1
 333.333007812 333.666992188 l 1
 333.333007812 292 l 1025
125 250.333007812 m 1
 166.666992188 250.333007812 l 1
 166.666992188 292 l 1
 125 292 l 1
 125 250.333007812 l 1025
416.666992188 250.333007812 m 1
 541.666992188 250.333007812 l 1
 541.666992188 292 l 1
 416.666992188 292 l 1
 416.666992188 250.333007812 l 1025
83.3330078125 208.666992188 m 1
 166.666992188 208.666992188 l 1
 166.666992188 250.333007812 l 1
 83.3330078125 250.333007812 l 1
 83.3330078125 208.666992188 l 1025
458.333007812 208.666992188 m 1
 541.666992188 208.666992188 l 1
 541.666992188 250.333007812 l 1
 458.333007812 250.333007812 l 1
 458.333007812 208.666992188 l 1025
83.3330078125 167 m 1
 166.666992188 167 l 1
 166.666992188 208.666992188 l 1
 83.3330078125 208.666992188 l 1
 83.3330078125 167 l 1025
458.333007812 167 m 1
 541.666992188 167 l 1
 541.666992188 208.666992188 l 1
 458.333007812 208.666992188 l 1
 458.333007812 167 l 1025
83.3330078125 125.333007812 m 1
 166.666992188 125.333007812 l 1
 166.666992188 167 l 1
 83.3330078125 167 l 1
 83.3330078125 125.333007812 l 1025
458.333007812 125.333007812 m 1
 541.666992188 125.333007812 l 1
 541.666992188 167 l 1
 458.333007812 167 l 1
 458.333007812 125.333007812 l 1025
83.3330078125 83.6669921875 m 1
 208.333007812 83.6669921875 l 1
 208.333007812 125.333007812 l 1
 83.3330078125 125.333007812 l 1
 83.3330078125 83.6669921875 l 1025
458.333007812 83.6669921875 m 1
 500 83.6669921875 l 1
 500 125.333007812 l 1
 458.333007812 125.333007812 l 1
 458.333007812 83.6669921875 l 1025
125 42 m 1
 250 42 l 1
 250 83.6669921875 l 1
 125 83.6669921875 l 1
 125 42 l 1025
416.666992188 42 m 1
 500 42 l 1
 500 83.6669921875 l 1
 416.666992188 83.6669921875 l 1
 416.666992188 42 l 1025
208.333007812 0.3330078125 m 1
 208.333007812 42 l 1
 416.666992188 42 l 1
 416.666992188 0.3330078125 l 1
 208.333007812 0.3330078125 l 1
EndSplineSet
EndChar

StartChar: nine
Encoding: 57 57 26
Width: 583
Flags: HW
LayerCount: 2
Back
Fore
SplineSet
208.333007812 667 m 1
 416.666992188 667 l 1
 416.666992188 708.666992188 l 1
 208.333007812 708.666992188 l 1
 208.333007812 667 l 1025
166.666992188 625.333007812 m 1
 250 625.333007812 l 1
 250 667 l 1
 166.666992188 667 l 1
 166.666992188 625.333007812 l 1025
375 625.333007812 m 1
 458.333007812 625.333007812 l 1
 458.333007812 667 l 1
 375 667 l 1
 375 625.333007812 l 1025
125 583.666992188 m 1
 208.333007812 583.666992188 l 1
 208.333007812 625.333007812 l 1
 125 625.333007812 l 1
 125 583.666992188 l 1025
416.666992188 583.666992188 m 1
 500 583.666992188 l 1
 500 625.333007812 l 1
 416.666992188 625.333007812 l 1
 416.666992188 583.666992188 l 1025
83.3330078125 542 m 1
 166.666992188 542 l 1
 166.666992188 583.666992188 l 1
 83.3330078125 583.666992188 l 1
 83.3330078125 542 l 1025
458.333007812 542 m 1
 500 542 l 1
 500 583.666992188 l 1
 458.333007812 583.666992188 l 1
 458.333007812 542 l 1025
83.3330078125 500.333007812 m 1
 166.666992188 500.333007812 l 1
 166.666992188 542 l 1
 83.3330078125 542 l 1
 83.3330078125 500.333007812 l 1025
458.333007812 500.333007812 m 1
 541.666992188 500.333007812 l 1
 541.666992188 542 l 1
 458.333007812 542 l 1
 458.333007812 500.333007812 l 1025
83.3330078125 458.666992188 m 1
 166.666992188 458.666992188 l 1
 166.666992188 500.333007812 l 1
 83.3330078125 500.333007812 l 1
 83.3330078125 458.666992188 l 1025
458.333007812 458.666992188 m 1
 541.666992188 458.666992188 l 1
 541.666992188 500.333007812 l 1
 458.333007812 500.333007812 l 1
 458.333007812 458.666992188 l 1025
83.3330078125 417 m 1
 166.666992188 417 l 1
 166.666992188 458.666992188 l 1
 83.3330078125 458.666992188 l 1
 83.3330078125 417 l 1025
458.333007812 417 m 1
 541.666992188 417 l 1
 541.666992188 458.666992188 l 1
 458.333007812 458.666992188 l 1
 458.333007812 417 l 1025
83.3330078125 375.333007812 m 1
 166.666992188 375.333007812 l 1
 166.666992188 417 l 1
 83.3330078125 417 l 1
 83.3330078125 375.333007812 l 1025
458.333007812 375.333007812 m 1
 541.666992188 375.333007812 l 1
 541.666992188 417 l 1
 458.333007812 417 l 1
 458.333007812 375.333007812 l 1025
125 333.666992188 m 1
 208.333007812 333.666992188 l 1
 208.333007812 375.333007812 l 1
 125 375.333007812 l 1
 125 333.666992188 l 1025
416.666992188 333.666992188 m 1
 541.666992188 333.666992188 l 1
 541.666992188 375.333007812 l 1
 416.666992188 375.333007812 l 1
 416.666992188 333.666992188 l 1025
125 292 m 1
 250 292 l 1
 250 333.666992188 l 1
 125 333.666992188 l 1
 125 292 l 1025
375 292 m 1
 541.666992188 292 l 1
 541.666992188 333.666992188 l 1
 375 333.666992188 l 1
 375 292 l 1025
208.333007812 250.333007812 m 1
 416.666992188 250.333007812 l 1
 416.666992188 292 l 1
 208.333007812 292 l 1
 208.333007812 250.333007812 l 1025
458.333007812 250.333007812 m 1
 541.666992188 250.333007812 l 1
 541.666992188 292 l 1
 458.333007812 292 l 1
 458.333007812 250.333007812 l 1025
458.333007812 208.666992188 m 1
 541.666992188 208.666992188 l 1
 541.666992188 250.333007812 l 1
 458.333007812 250.333007812 l 1
 458.333007812 208.666992188 l 1025
458.333007812 167 m 1
 500 167 l 1
 500 208.666992188 l 1
 458.333007812 208.666992188 l 1
 458.333007812 167 l 1025
416.666992188 125.333007812 m 1
 500 125.333007812 l 1
 500 167 l 1
 416.666992188 167 l 1
 416.666992188 125.333007812 l 1025
416.666992188 83.6669921875 m 1
 458.333007812 83.6669921875 l 1
 458.333007812 125.333007812 l 1
 416.666992188 125.333007812 l 1
 416.666992188 83.6669921875 l 1025
125 42 m 1
 166.666992188 42 l 1
 166.666992188 83.6669921875 l 1
 125 83.6669921875 l 1
 125 42 l 1025
375 42 m 1
 416.666992188 42 l 1
 416.666992188 83.6669921875 l 1
 375 83.6669921875 l 1
 375 42 l 1025
125 0.3330078125 m 1
 125 42 l 1
 375 42 l 1
 375 0.3330078125 l 1
 125 0.3330078125 l 1
EndSplineSet
EndChar

StartChar: colon
Encoding: 58 58 27
Width: 583
Flags: HW
LayerCount: 2
Back
Fore
SplineSet
250 500.333007812 m 1
 375 500.333007812 l 1
 375 542 l 1
 250 542 l 1
 250 500.333007812 l 1025
250 458.666992188 m 1
 375 458.666992188 l 1
 375 500.333007812 l 1
 250 500.333007812 l 1
 250 458.666992188 l 1025
250 417 m 1
 375 417 l 1
 375 458.666992188 l 1
 250 458.666992188 l 1
 250 417 l 1025
250 83.6669921875 m 1
 375 83.6669921875 l 1
 375 125.333007812 l 1
 250 125.333007812 l 1
 250 83.6669921875 l 1025
250 42 m 1
 375 42 l 1
 375 83.6669921875 l 1
 250 83.6669921875 l 1
 250 42 l 1025
250 0.3330078125 m 1
 250 42 l 1
 375 42 l 1
 375 0.3330078125 l 1
 250 0.3330078125 l 1
EndSplineSet
EndChar

StartChar: semicolon
Encoding: 59 59 28
Width: 583
Flags: HW
LayerCount: 2
Back
Fore
SplineSet
250 500.333007812 m 1
 375 500.333007812 l 1
 375 542 l 1
 250 542 l 1
 250 500.333007812 l 1025
250 458.666992188 m 1
 375 458.666992188 l 1
 375 500.333007812 l 1
 250 500.333007812 l 1
 250 458.666992188 l 1025
250 417 m 1
 375 417 l 1
 375 458.666992188 l 1
 250 458.666992188 l 1
 250 417 l 1025
250 125.333007812 m 1
 375 125.333007812 l 1
 375 167 l 1
 250 167 l 1
 250 125.333007812 l 1025
250 83.6669921875 m 1
 375 83.6669921875 l 1
 375 125.333007812 l 1
 250 125.333007812 l 1
 250 83.6669921875 l 1025
250 42 m 1
 375 42 l 1
 375 83.6669921875 l 1
 250 83.6669921875 l 1
 250 42 l 1025
250 0.3330078125 m 1
 375 0.3330078125 l 1
 375 42 l 1
 250 42 l 1
 250 0.3330078125 l 1025
333.333007812 -41.3330078125 m 1
 375 -41.3330078125 l 1
 375 0.3330078125 l 1
 333.333007812 0.3330078125 l 1
 333.333007812 -41.3330078125 l 1025
291.666992188 -83 m 1
 375 -83 l 1
 375 -41.3330078125 l 1
 291.666992188 -41.3330078125 l 1
 291.666992188 -83 l 1025
291.666992188 -124.666992188 m 1
 333.333007812 -124.666992188 l 1
 333.333007812 -83 l 1
 291.666992188 -83 l 1
 291.666992188 -124.666992188 l 1025
250 -166.333007812 m 1
 250 -124.666992188 l 1
 333.333007812 -124.666992188 l 1
 333.333007812 -166.333007812 l 1
 250 -166.333007812 l 1
EndSplineSet
EndChar

StartChar: less
Encoding: 60 60 29
Width: 583
Flags: HW
LayerCount: 2
Back
Fore
SplineSet
416.666992188 500.333007812 m 1
 458.333007812 500.333007812 l 1
 458.333007812 542 l 1
 416.666992188 542 l 1
 416.666992188 500.333007812 l 1025
375 458.666992188 m 1
 458.333007812 458.666992188 l 1
 458.333007812 500.333007812 l 1
 375 500.333007812 l 1
 375 458.666992188 l 1025
291.666992188 417 m 1
 375 417 l 1
 375 458.666992188 l 1
 291.666992188 458.666992188 l 1
 291.666992188 417 l 1025
208.333007812 375.333007812 m 1
 291.666992188 375.333007812 l 1
 291.666992188 417 l 1
 208.333007812 417 l 1
 208.333007812 375.333007812 l 1025
166.666992188 333.666992188 m 1
 250 333.666992188 l 1
 250 375.333007812 l 1
 166.666992188 375.333007812 l 1
 166.666992188 333.666992188 l 1025
83.3330078125 292 m 1
 166.666992188 292 l 1
 166.666992188 333.666992188 l 1
 83.3330078125 333.666992188 l 1
 83.3330078125 292 l 1025
0 250.333007812 m 1
 83.3330078125 250.333007812 l 1
 83.3330078125 292 l 1
 0 292 l 1
 0 250.333007812 l 1025
83.3330078125 208.666992188 m 1
 166.666992188 208.666992188 l 1
 166.666992188 250.333007812 l 1
 83.3330078125 250.333007812 l 1
 83.3330078125 208.666992188 l 1025
166.666992188 167 m 1
 250 167 l 1
 250 208.666992188 l 1
 166.666992188 208.666992188 l 1
 166.666992188 167 l 1025
208.333007812 125.333007812 m 1
 291.666992188 125.333007812 l 1
 291.666992188 167 l 1
 208.333007812 167 l 1
 208.333007812 125.333007812 l 1025
291.666992188 83.6669921875 m 1
 375 83.6669921875 l 1
 375 125.333007812 l 1
 291.666992188 125.333007812 l 1
 291.666992188 83.6669921875 l 1025
375 42 m 1
 458.333007812 42 l 1
 458.333007812 83.6669921875 l 1
 375 83.6669921875 l 1
 375 42 l 1025
416.666992188 0.3330078125 m 1
 416.666992188 42 l 1
 458.333007812 42 l 1
 458.333007812 0.3330078125 l 1
 416.666992188 0.3330078125 l 1
EndSplineSet
EndChar

StartChar: equal
Encoding: 61 61 30
Width: 583
Flags: HW
LayerCount: 2
Back
Fore
SplineSet
41.6669921875 375.333007812 m 1
 541.666992188 375.333007812 l 1
 541.666992188 417 l 1
 41.6669921875 417 l 1
 41.6669921875 375.333007812 l 1025
41.6669921875 125.333007812 m 1
 41.6669921875 167 l 1
 541.666992188 167 l 1
 541.666992188 125.333007812 l 1
 41.6669921875 125.333007812 l 1
EndSplineSet
EndChar

StartChar: greater
Encoding: 62 62 31
Width: 583
Flags: HW
LayerCount: 2
Back
Fore
SplineSet
41.6669921875 500.333007812 m 1
 83.3330078125 500.333007812 l 1
 83.3330078125 542 l 1
 41.6669921875 542 l 1
 41.6669921875 500.333007812 l 1025
41.6669921875 458.666992188 m 1
 125 458.666992188 l 1
 125 500.333007812 l 1
 41.6669921875 500.333007812 l 1
 41.6669921875 458.666992188 l 1025
125 417 m 1
 208.333007812 417 l 1
 208.333007812 458.666992188 l 1
 125 458.666992188 l 1
 125 417 l 1025
208.333007812 375.333007812 m 1
 291.666992188 375.333007812 l 1
 291.666992188 417 l 1
 208.333007812 417 l 1
 208.333007812 375.333007812 l 1025
250 333.666992188 m 1
 333.333007812 333.666992188 l 1
 333.333007812 375.333007812 l 1
 250 375.333007812 l 1
 250 333.666992188 l 1025
333.333007812 292 m 1
 416.666992188 292 l 1
 416.666992188 333.666992188 l 1
 333.333007812 333.666992188 l 1
 333.333007812 292 l 1025
416.666992188 250.333007812 m 1
 500 250.333007812 l 1
 500 292 l 1
 416.666992188 292 l 1
 416.666992188 250.333007812 l 1025
333.333007812 208.666992188 m 1
 416.666992188 208.666992188 l 1
 416.666992188 250.333007812 l 1
 333.333007812 250.333007812 l 1
 333.333007812 208.666992188 l 1025
250 167 m 1
 333.333007812 167 l 1
 333.333007812 208.666992188 l 1
 250 208.666992188 l 1
 250 167 l 1025
208.333007812 125.333007812 m 1
 291.666992188 125.333007812 l 1
 291.666992188 167 l 1
 208.333007812 167 l 1
 208.333007812 125.333007812 l 1025
125 83.6669921875 m 1
 208.333007812 83.6669921875 l 1
 208.333007812 125.333007812 l 1
 125 125.333007812 l 1
 125 83.6669921875 l 1025
41.6669921875 42 m 1
 125 42 l 1
 125 83.6669921875 l 1
 41.6669921875 83.6669921875 l 1
 41.6669921875 42 l 1025
41.6669921875 0.3330078125 m 1
 41.6669921875 42 l 1
 83.3330078125 42 l 1
 83.3330078125 0.3330078125 l 1
 41.6669921875 0.3330078125 l 1
EndSplineSet
EndChar

StartChar: question
Encoding: 63 63 32
Width: 583
Flags: HW
LayerCount: 2
Back
Fore
SplineSet
83.3330078125 667 m 1
 416.666992188 667 l 1
 416.666992188 708.666992188 l 1
 83.3330078125 708.666992188 l 1
 83.3330078125 667 l 1025
83.3330078125 625.333007812 m 1
 125 625.333007812 l 1
 125 667 l 1
 83.3330078125 667 l 1
 83.3330078125 625.333007812 l 1025
375 625.333007812 m 1
 458.333007812 625.333007812 l 1
 458.333007812 667 l 1
 375 667 l 1
 375 625.333007812 l 1025
83.3330078125 583.666992188 m 1
 125 583.666992188 l 1
 125 625.333007812 l 1
 83.3330078125 625.333007812 l 1
 83.3330078125 583.666992188 l 1025
416.666992188 583.666992188 m 1
 500 583.666992188 l 1
 500 625.333007812 l 1
 416.666992188 625.333007812 l 1
 416.666992188 583.666992188 l 1025
416.666992188 542 m 1
 500 542 l 1
 500 583.666992188 l 1
 416.666992188 583.666992188 l 1
 416.666992188 542 l 1025
416.666992188 500.333007812 m 1
 500 500.333007812 l 1
 500 542 l 1
 416.666992188 542 l 1
 416.666992188 500.333007812 l 1025
375 458.666992188 m 1
 458.333007812 458.666992188 l 1
 458.333007812 500.333007812 l 1
 375 500.333007812 l 1
 375 458.666992188 l 1025
333.333007812 417 m 1
 416.666992188 417 l 1
 416.666992188 458.666992188 l 1
 333.333007812 458.666992188 l 1
 333.333007812 417 l 1025
291.666992188 375.333007812 m 1
 375 375.333007812 l 1
 375 417 l 1
 291.666992188 417 l 1
 291.666992188 375.333007812 l 1025
250 333.666992188 m 1
 333.333007812 333.666992188 l 1
 333.333007812 375.333007812 l 1
 250 375.333007812 l 1
 250 333.666992188 l 1025
250 292 m 1
 291.666992188 292 l 1
 291.666992188 333.666992188 l 1
 250 333.666992188 l 1
 250 292 l 1025
208.333007812 250.333007812 m 1
 291.666992188 250.333007812 l 1
 291.666992188 292 l 1
 208.333007812 292 l 1
 208.333007812 250.333007812 l 1025
208.333007812 208.666992188 m 1
 291.666992188 208.666992188 l 1
 291.666992188 250.333007812 l 1
 208.333007812 250.333007812 l 1
 208.333007812 208.666992188 l 1025
250 42 m 1
 333.333007812 42 l 1
 333.333007812 83.6669921875 l 1
 250 83.6669921875 l 1
 250 42 l 1025
250 0.3330078125 m 1
 250 42 l 1
 333.333007812 42 l 1
 333.333007812 0.3330078125 l 1
 250 0.3330078125 l 1
EndSplineSet
EndChar

StartChar: at
Encoding: 64 64 33
Width: 583
Flags: HW
LayerCount: 2
Back
Fore
SplineSet
250 667 m 1
 500 667 l 1
 500 708.666992188 l 1
 250 708.666992188 l 1
 250 667 l 1025
166.666992188 625.333007812 m 1
 291.666992188 625.333007812 l 1
 291.666992188 667 l 1
 166.666992188 667 l 1
 166.666992188 625.333007812 l 1025
500 625.333007812 m 1
 541.666992188 625.333007812 l 1
 541.666992188 667 l 1
 500 667 l 1
 500 625.333007812 l 1025
125 583.666992188 m 1
 208.333007812 583.666992188 l 1
 208.333007812 625.333007812 l 1
 125 625.333007812 l 1
 125 583.666992188 l 1025
541.666992188 583.666992188 m 1
 583.333007812 583.666992188 l 1
 583.333007812 625.333007812 l 1
 541.666992188 625.333007812 l 1
 541.666992188 583.666992188 l 1025
83.3330078125 542 m 1
 166.666992188 542 l 1
 166.666992188 583.666992188 l 1
 83.3330078125 583.666992188 l 1
 83.3330078125 542 l 1025
375 542 m 1
 583.333007812 542 l 1
 583.333007812 583.666992188 l 1
 375 583.666992188 l 1
 375 542 l 1025
83.3330078125 500.333007812 m 1
 125 500.333007812 l 1
 125 542 l 1
 83.3330078125 542 l 1
 83.3330078125 500.333007812 l 1025
333.333007812 500.333007812 m 1
 375 500.333007812 l 1
 375 542 l 1
 333.333007812 542 l 1
 333.333007812 500.333007812 l 1025
541.666992188 500.333007812 m 1
 583.333007812 500.333007812 l 1
 583.333007812 542 l 1
 541.666992188 542 l 1
 541.666992188 500.333007812 l 1025
41.6669921875 458.666992188 m 1
 125 458.666992188 l 1
 125 500.333007812 l 1
 41.6669921875 500.333007812 l 1
 41.6669921875 458.666992188 l 1025
291.666992188 458.666992188 m 1
 333.333007812 458.666992188 l 1
 333.333007812 500.333007812 l 1
 291.666992188 500.333007812 l 1
 291.666992188 458.666992188 l 1025
541.666992188 458.666992188 m 1
 583.333007812 458.666992188 l 1
 583.333007812 500.333007812 l 1
 541.666992188 500.333007812 l 1
 541.666992188 458.666992188 l 1025
41.6669921875 417 m 1
 83.3330078125 417 l 1
 83.3330078125 458.666992188 l 1
 41.6669921875 458.666992188 l 1
 41.6669921875 417 l 1025
291.666992188 417 m 1
 333.333007812 417 l 1
 333.333007812 458.666992188 l 1
 291.666992188 458.666992188 l 1
 291.666992188 417 l 1025
541.666992188 417 m 1
 583.333007812 417 l 1
 583.333007812 458.666992188 l 1
 541.666992188 458.666992188 l 1
 541.666992188 417 l 1025
41.6669921875 375.333007812 m 1
 83.3330078125 375.333007812 l 1
 83.3330078125 417 l 1
 41.6669921875 417 l 1
 41.6669921875 375.333007812 l 1025
250 375.333007812 m 1
 291.666992188 375.333007812 l 1
 291.666992188 417 l 1
 250 417 l 1
 250 375.333007812 l 1025
541.666992188 375.333007812 m 1
 583.333007812 375.333007812 l 1
 583.333007812 417 l 1
 541.666992188 417 l 1
 541.666992188 375.333007812 l 1025
41.6669921875 333.666992188 m 1
 83.3330078125 333.666992188 l 1
 83.3330078125 375.333007812 l 1
 41.6669921875 375.333007812 l 1
 41.6669921875 333.666992188 l 1025
250 333.666992188 m 1
 291.666992188 333.666992188 l 1
 291.666992188 375.333007812 l 1
 250 375.333007812 l 1
 250 333.666992188 l 1025
541.666992188 333.666992188 m 1
 583.333007812 333.666992188 l 1
 583.333007812 375.333007812 l 1
 541.666992188 375.333007812 l 1
 541.666992188 333.666992188 l 1025
41.6669921875 292 m 1
 83.3330078125 292 l 1
 83.3330078125 333.666992188 l 1
 41.6669921875 333.666992188 l 1
 41.6669921875 292 l 1025
250 292 m 1
 291.666992188 292 l 1
 291.666992188 333.666992188 l 1
 250 333.666992188 l 1
 250 292 l 1025
500 292 m 1
 583.333007812 292 l 1
 583.333007812 333.666992188 l 1
 500 333.666992188 l 1
 500 292 l 1025
41.6669921875 250.333007812 m 1
 83.3330078125 250.333007812 l 1
 83.3330078125 292 l 1
 41.6669921875 292 l 1
 41.6669921875 250.333007812 l 1025
250 250.333007812 m 1
 291.666992188 250.333007812 l 1
 291.666992188 292 l 1
 250 292 l 1
 250 250.333007812 l 1025
458.333007812 250.333007812 m 1
 583.333007812 250.333007812 l 1
 583.333007812 292 l 1
 458.333007812 292 l 1
 458.333007812 250.333007812 l 1025
41.6669921875 208.666992188 m 1
 83.3330078125 208.666992188 l 1
 83.3330078125 250.333007812 l 1
 41.6669921875 250.333007812 l 1
 41.6669921875 208.666992188 l 1025
250 208.666992188 m 1
 291.666992188 208.666992188 l 1
 291.666992188 250.333007812 l 1
 250 250.333007812 l 1
 250 208.666992188 l 1025
458.333007812 208.666992188 m 1
 500 208.666992188 l 1
 500 250.333007812 l 1
 458.333007812 250.333007812 l 1
 458.333007812 208.666992188 l 1025
541.666992188 208.666992188 m 1
 583.333007812 208.666992188 l 1
 583.333007812 250.333007812 l 1
 541.666992188 250.333007812 l 1
 541.666992188 208.666992188 l 1025
83.3330078125 167 m 1
 125 167 l 1
 125 208.666992188 l 1
 83.3330078125 208.666992188 l 1
 83.3330078125 167 l 1025
291.666992188 167 m 1
 333.333007812 167 l 1
 333.333007812 208.666992188 l 1
 291.666992188 208.666992188 l 1
 291.666992188 167 l 1025
416.666992188 167 m 1
 500 167 l 1
 500 208.666992188 l 1
 416.666992188 208.666992188 l 1
 416.666992188 167 l 1025
541.666992188 167 m 1
 583.333007812 167 l 1
 583.333007812 208.666992188 l 1
 541.666992188 208.666992188 l 1
 541.666992188 167 l 1025
83.3330078125 125.333007812 m 1
 125 125.333007812 l 1
 125 167 l 1
 83.3330078125 167 l 1
 83.3330078125 125.333007812 l 1025
333.333007812 125.333007812 m 1
 458.333007812 125.333007812 l 1
 458.333007812 167 l 1
 333.333007812 167 l 1
 333.333007812 125.333007812 l 1025
541.666992188 125.333007812 m 1
 625 125.333007812 l 1
 625 167 l 1
 541.666992188 167 l 1
 541.666992188 125.333007812 l 1025
125 83.6669921875 m 1
 166.666992188 83.6669921875 l 1
 166.666992188 125.333007812 l 1
 125 125.333007812 l 1
 125 83.6669921875 l 1025
166.666992188 42 m 1
 250 42 l 1
 250 83.6669921875 l 1
 166.666992188 83.6669921875 l 1
 166.666992188 42 l 1025
500 42 m 1
 541.666992188 42 l 1
 541.666992188 83.6669921875 l 1
 500 83.6669921875 l 1
 500 42 l 1025
250 0.3330078125 m 1
 250 42 l 1
 500 42 l 1
 500 0.3330078125 l 1
 250 0.3330078125 l 1
EndSplineSet
EndChar

StartChar: A
Encoding: 65 65 34
Width: 583
Flags: HW
LayerCount: 2
Back
Fore
SplineSet
166.666992188 667 m 1
 250 667 l 1
 250 708.666992188 l 1
 166.666992188 708.666992188 l 1
 166.666992188 667 l 1025
166.666992188 625.333007812 m 1
 291.666992188 625.333007812 l 1
 291.666992188 667 l 1
 166.666992188 667 l 1
 166.666992188 625.333007812 l 1025
125 583.666992188 m 1
 166.666992188 583.666992188 l 1
 166.666992188 625.333007812 l 1
 125 625.333007812 l 1
 125 583.666992188 l 1025
208.333007812 583.666992188 m 1
 291.666992188 583.666992188 l 1
 291.666992188 625.333007812 l 1
 208.333007812 625.333007812 l 1
 208.333007812 583.666992188 l 1025
125 542 m 1
 166.666992188 542 l 1
 166.666992188 583.666992188 l 1
 125 583.666992188 l 1
 125 542 l 1025
208.333007812 542 m 1
 291.666992188 542 l 1
 291.666992188 583.666992188 l 1
 208.333007812 583.666992188 l 1
 208.333007812 542 l 1025
125 500.333007812 m 1
 166.666992188 500.333007812 l 1
 166.666992188 542 l 1
 125 542 l 1
 125 500.333007812 l 1025
250 500.333007812 m 1
 333.333007812 500.333007812 l 1
 333.333007812 542 l 1
 250 542 l 1
 250 500.333007812 l 1025
83.3330078125 458.666992188 m 1
 125 458.666992188 l 1
 125 500.333007812 l 1
 83.3330078125 500.333007812 l 1
 83.3330078125 458.666992188 l 1025
250 458.666992188 m 1
 333.333007812 458.666992188 l 1
 333.333007812 500.333007812 l 1
 250 500.333007812 l 1
 250 458.666992188 l 1025
83.3330078125 417 m 1
 125 417 l 1
 125 458.666992188 l 1
 83.3330078125 458.666992188 l 1
 83.3330078125 417 l 1025
250 417 m 1
 333.333007812 417 l 1
 333.333007812 458.666992188 l 1
 250 458.666992188 l 1
 250 417 l 1025
83.3330078125 375.333007812 m 1
 125 375.333007812 l 1
 125 417 l 1
 83.3330078125 417 l 1
 83.3330078125 375.333007812 l 1025
291.666992188 375.333007812 m 1
 375 375.333007812 l 1
 375 417 l 1
 291.666992188 417 l 1
 291.666992188 375.333007812 l 1025
41.6669921875 333.666992188 m 1
 125 333.666992188 l 1
 125 375.333007812 l 1
 41.6669921875 375.333007812 l 1
 41.6669921875 333.666992188 l 1025
291.666992188 333.666992188 m 1
 375 333.666992188 l 1
 375 375.333007812 l 1
 291.666992188 375.333007812 l 1
 291.666992188 333.666992188 l 1025
41.6669921875 292 m 1
 83.3330078125 292 l 1
 83.3330078125 333.666992188 l 1
 41.6669921875 333.666992188 l 1
 41.6669921875 292 l 1025
291.666992188 292 m 1
 375 292 l 1
 375 333.666992188 l 1
 291.666992188 333.666992188 l 1
 291.666992188 292 l 1025
41.6669921875 250.333007812 m 1
 83.3330078125 250.333007812 l 1
 83.3330078125 292 l 1
 41.6669921875 292 l 1
 41.6669921875 250.333007812 l 1025
291.666992188 250.333007812 m 1
 416.666992188 250.333007812 l 1
 416.666992188 292 l 1
 291.666992188 292 l 1
 291.666992188 250.333007812 l 1025
0 208.666992188 m 1
 416.666992188 208.666992188 l 1
 416.666992188 250.333007812 l 1
 0 250.333007812 l 1
 0 208.666992188 l 1025
0 167 m 1
 41.6669921875 167 l 1
 41.6669921875 208.666992188 l 1
 0 208.666992188 l 1
 0 167 l 1025
333.333007812 167 m 1
 416.666992188 167 l 1
 416.666992188 208.666992188 l 1
 333.333007812 208.666992188 l 1
 333.333007812 167 l 1025
0 125.333007812 m 1
 41.6669921875 125.333007812 l 1
 41.6669921875 167 l 1
 0 167 l 1
 0 125.333007812 l 1025
375 125.333007812 m 1
 458.333007812 125.333007812 l 1
 458.333007812 167 l 1
 375 167 l 1
 375 125.333007812 l 1025
-41.6669921875 83.6669921875 m 1
 0 83.6669921875 l 1
 0 125.333007812 l 1
 -41.6669921875 125.333007812 l 1
 -41.6669921875 83.6669921875 l 1025
375 83.6669921875 m 1
 458.333007812 83.6669921875 l 1
 458.333007812 125.333007812 l 1
 375 125.333007812 l 1
 375 83.6669921875 l 1025
-41.6669921875 42 m 1
 0 42 l 1
 0 83.6669921875 l 1
 -41.6669921875 83.6669921875 l 1
 -41.6669921875 42 l 1025
375 42 m 1
 458.333007812 42 l 1
 458.333007812 83.6669921875 l 1
 375 83.6669921875 l 1
 375 42 l 1025
-41.6669921875 0.3330078125 m 1
 0 0.3330078125 l 1
 0 42 l 1
 -41.6669921875 42 l 1
 -41.6669921875 0.3330078125 l 1025
416.666992188 0.3330078125 m 1
 416.666992188 42 l 1
 500 42 l 1
 500 0.3330078125 l 1
 416.666992188 0.3330078125 l 1
EndSplineSet
EndChar

StartChar: B
Encoding: 66 66 35
Width: 583
Flags: HW
LayerCount: 2
Back
Fore
SplineSet
83.3330078125 667 m 1
 416.666992188 667 l 1
 416.666992188 708.666992188 l 1
 83.3330078125 708.666992188 l 1
 83.3330078125 667 l 1025
83.3330078125 625.333007812 m 1
 166.666992188 625.333007812 l 1
 166.666992188 667 l 1
 83.3330078125 667 l 1
 83.3330078125 625.333007812 l 1025
375 625.333007812 m 1
 458.333007812 625.333007812 l 1
 458.333007812 667 l 1
 375 667 l 1
 375 625.333007812 l 1025
83.3330078125 583.666992188 m 1
 166.666992188 583.666992188 l 1
 166.666992188 625.333007812 l 1
 83.3330078125 625.333007812 l 1
 83.3330078125 583.666992188 l 1025
416.666992188 583.666992188 m 1
 500 583.666992188 l 1
 500 625.333007812 l 1
 416.666992188 625.333007812 l 1
 416.666992188 583.666992188 l 1025
83.3330078125 542 m 1
 166.666992188 542 l 1
 166.666992188 583.666992188 l 1
 83.3330078125 583.666992188 l 1
 83.3330078125 542 l 1025
416.666992188 542 m 1
 500 542 l 1
 500 583.666992188 l 1
 416.666992188 583.666992188 l 1
 416.666992188 542 l 1025
83.3330078125 500.333007812 m 1
 166.666992188 500.333007812 l 1
 166.666992188 542 l 1
 83.3330078125 542 l 1
 83.3330078125 500.333007812 l 1025
416.666992188 500.333007812 m 1
 500 500.333007812 l 1
 500 542 l 1
 416.666992188 542 l 1
 416.666992188 500.333007812 l 1025
83.3330078125 458.666992188 m 1
 166.666992188 458.666992188 l 1
 166.666992188 500.333007812 l 1
 83.3330078125 500.333007812 l 1
 83.3330078125 458.666992188 l 1025
416.666992188 458.666992188 m 1
 500 458.666992188 l 1
 500 500.333007812 l 1
 416.666992188 500.333007812 l 1
 416.666992188 458.666992188 l 1025
83.3330078125 417 m 1
 166.666992188 417 l 1
 166.666992188 458.666992188 l 1
 83.3330078125 458.666992188 l 1
 83.3330078125 417 l 1025
375 417 m 1
 458.333007812 417 l 1
 458.333007812 458.666992188 l 1
 375 458.666992188 l 1
 375 417 l 1025
83.3330078125 375.333007812 m 1
 166.666992188 375.333007812 l 1
 166.666992188 417 l 1
 83.3330078125 417 l 1
 83.3330078125 375.333007812 l 1025
333.333007812 375.333007812 m 1
 416.666992188 375.333007812 l 1
 416.666992188 417 l 1
 333.333007812 417 l 1
 333.333007812 375.333007812 l 1025
83.3330078125 333.666992188 m 1
 416.666992188 333.666992188 l 1
 416.666992188 375.333007812 l 1
 83.3330078125 375.333007812 l 1
 83.3330078125 333.666992188 l 1025
83.3330078125 292 m 1
 166.666992188 292 l 1
 166.666992188 333.666992188 l 1
 83.3330078125 333.666992188 l 1
 83.3330078125 292 l 1025
333.333007812 292 m 1
 500 292 l 1
 500 333.666992188 l 1
 333.333007812 333.666992188 l 1
 333.333007812 292 l 1025
83.3330078125 250.333007812 m 1
 166.666992188 250.333007812 l 1
 166.666992188 292 l 1
 83.3330078125 292 l 1
 83.3330078125 250.333007812 l 1025
416.666992188 250.333007812 m 1
 500 250.333007812 l 1
 500 292 l 1
 416.666992188 292 l 1
 416.666992188 250.333007812 l 1025
83.3330078125 208.666992188 m 1
 166.666992188 208.666992188 l 1
 166.666992188 250.333007812 l 1
 83.3330078125 250.333007812 l 1
 83.3330078125 208.666992188 l 1025
458.333007812 208.666992188 m 1
 541.666992188 208.666992188 l 1
 541.666992188 250.333007812 l 1
 458.333007812 250.333007812 l 1
 458.333007812 208.666992188 l 1025
83.3330078125 167 m 1
 166.666992188 167 l 1
 166.666992188 208.666992188 l 1
 83.3330078125 208.666992188 l 1
 83.3330078125 167 l 1025
458.333007812 167 m 1
 541.666992188 167 l 1
 541.666992188 208.666992188 l 1
 458.333007812 208.666992188 l 1
 458.333007812 167 l 1025
83.3330078125 125.333007812 m 1
 166.666992188 125.333007812 l 1
 166.666992188 167 l 1
 83.3330078125 167 l 1
 83.3330078125 125.333007812 l 1025
458.333007812 125.333007812 m 1
 541.666992188 125.333007812 l 1
 541.666992188 167 l 1
 458.333007812 167 l 1
 458.333007812 125.333007812 l 1025
83.3330078125 83.6669921875 m 1
 166.666992188 83.6669921875 l 1
 166.666992188 125.333007812 l 1
 83.3330078125 125.333007812 l 1
 83.3330078125 83.6669921875 l 1025
458.333007812 83.6669921875 m 1
 541.666992188 83.6669921875 l 1
 541.666992188 125.333007812 l 1
 458.333007812 125.333007812 l 1
 458.333007812 83.6669921875 l 1025
83.3330078125 42 m 1
 166.666992188 42 l 1
 166.666992188 83.6669921875 l 1
 83.3330078125 83.6669921875 l 1
 83.3330078125 42 l 1025
416.666992188 42 m 1
 500 42 l 1
 500 83.6669921875 l 1
 416.666992188 83.6669921875 l 1
 416.666992188 42 l 1025
83.3330078125 0.3330078125 m 1
 83.3330078125 42 l 1
 458.333007812 42 l 1
 458.333007812 0.3330078125 l 1
 83.3330078125 0.3330078125 l 1
EndSplineSet
EndChar

StartChar: C
Encoding: 67 67 36
Width: 583
Flags: HW
LayerCount: 2
Back
Fore
SplineSet
250 667 m 1
 541.666992188 667 l 1
 541.666992188 708.666992188 l 1
 250 708.666992188 l 1
 250 667 l 1025
166.666992188 625.333007812 m 1
 250 625.333007812 l 1
 250 667 l 1
 166.666992188 667 l 1
 166.666992188 625.333007812 l 1025
458.333007812 625.333007812 m 1
 541.666992188 625.333007812 l 1
 541.666992188 667 l 1
 458.333007812 667 l 1
 458.333007812 625.333007812 l 1025
125 583.666992188 m 1
 208.333007812 583.666992188 l 1
 208.333007812 625.333007812 l 1
 125 625.333007812 l 1
 125 583.666992188 l 1025
83.3330078125 542 m 1
 166.666992188 542 l 1
 166.666992188 583.666992188 l 1
 83.3330078125 583.666992188 l 1
 83.3330078125 542 l 1025
83.3330078125 500.333007812 m 1
 166.666992188 500.333007812 l 1
 166.666992188 542 l 1
 83.3330078125 542 l 1
 83.3330078125 500.333007812 l 1025
41.6669921875 458.666992188 m 1
 125 458.666992188 l 1
 125 500.333007812 l 1
 41.6669921875 500.333007812 l 1
 41.6669921875 458.666992188 l 1025
41.6669921875 417 m 1
 125 417 l 1
 125 458.666992188 l 1
 41.6669921875 458.666992188 l 1
 41.6669921875 417 l 1025
41.6669921875 375.333007812 m 1
 125 375.333007812 l 1
 125 417 l 1
 41.6669921875 417 l 1
 41.6669921875 375.333007812 l 1025
41.6669921875 333.666992188 m 1
 125 333.666992188 l 1
 125 375.333007812 l 1
 41.6669921875 375.333007812 l 1
 41.6669921875 333.666992188 l 1025
41.6669921875 292 m 1
 125 292 l 1
 125 333.666992188 l 1
 41.6669921875 333.666992188 l 1
 41.6669921875 292 l 1025
41.6669921875 250.333007812 m 1
 125 250.333007812 l 1
 125 292 l 1
 41.6669921875 292 l 1
 41.6669921875 250.333007812 l 1025
41.6669921875 208.666992188 m 1
 125 208.666992188 l 1
 125 250.333007812 l 1
 41.6669921875 250.333007812 l 1
 41.6669921875 208.666992188 l 1025
83.3330078125 167 m 1
 166.666992188 167 l 1
 166.666992188 208.666992188 l 1
 83.3330078125 208.666992188 l 1
 83.3330078125 167 l 1025
83.3330078125 125.333007812 m 1
 166.666992188 125.333007812 l 1
 166.666992188 167 l 1
 83.3330078125 167 l 1
 83.3330078125 125.333007812 l 1025
125 83.6669921875 m 1
 208.333007812 83.6669921875 l 1
 208.333007812 125.333007812 l 1
 125 125.333007812 l 1
 125 83.6669921875 l 1025
166.666992188 42 m 1
 291.666992188 42 l 1
 291.666992188 83.6669921875 l 1
 166.666992188 83.6669921875 l 1
 166.666992188 42 l 1025
500 42 m 1
 541.666992188 42 l 1
 541.666992188 83.6669921875 l 1
 500 83.6669921875 l 1
 500 42 l 1025
250 0.3330078125 m 1
 250 42 l 1
 541.666992188 42 l 1
 541.666992188 0.3330078125 l 1
 250 0.3330078125 l 1
EndSplineSet
EndChar

StartChar: D
Encoding: 68 68 37
Width: 583
Flags: HW
LayerCount: 2
Back
Fore
SplineSet
83.3330078125 667 m 1
 416.666992188 667 l 1
 416.666992188 708.666992188 l 1
 83.3330078125 708.666992188 l 1
 83.3330078125 667 l 1025
83.3330078125 625.333007812 m 1
 166.666992188 625.333007812 l 1
 166.666992188 667 l 1
 83.3330078125 667 l 1
 83.3330078125 625.333007812 l 1025
375 625.333007812 m 1
 500 625.333007812 l 1
 500 667 l 1
 375 667 l 1
 375 625.333007812 l 1025
83.3330078125 583.666992188 m 1
 166.666992188 583.666992188 l 1
 166.666992188 625.333007812 l 1
 83.3330078125 625.333007812 l 1
 83.3330078125 583.666992188 l 1025
416.666992188 583.666992188 m 1
 541.666992188 583.666992188 l 1
 541.666992188 625.333007812 l 1
 416.666992188 625.333007812 l 1
 416.666992188 583.666992188 l 1025
83.3330078125 542 m 1
 166.666992188 542 l 1
 166.666992188 583.666992188 l 1
 83.3330078125 583.666992188 l 1
 83.3330078125 542 l 1025
458.333007812 542 m 1
 541.666992188 542 l 1
 541.666992188 583.666992188 l 1
 458.333007812 583.666992188 l 1
 458.333007812 542 l 1025
83.3330078125 500.333007812 m 1
 166.666992188 500.333007812 l 1
 166.666992188 542 l 1
 83.3330078125 542 l 1
 83.3330078125 500.333007812 l 1025
500 500.333007812 m 1
 583.333007812 500.333007812 l 1
 583.333007812 542 l 1
 500 542 l 1
 500 500.333007812 l 1025
83.3330078125 458.666992188 m 1
 166.666992188 458.666992188 l 1
 166.666992188 500.333007812 l 1
 83.3330078125 500.333007812 l 1
 83.3330078125 458.666992188 l 1025
500 458.666992188 m 1
 583.333007812 458.666992188 l 1
 583.333007812 500.333007812 l 1
 500 500.333007812 l 1
 500 458.666992188 l 1025
83.3330078125 417 m 1
 166.666992188 417 l 1
 166.666992188 458.666992188 l 1
 83.3330078125 458.666992188 l 1
 83.3330078125 417 l 1025
500 417 m 1
 583.333007812 417 l 1
 583.333007812 458.666992188 l 1
 500 458.666992188 l 1
 500 417 l 1025
83.3330078125 375.333007812 m 1
 166.666992188 375.333007812 l 1
 166.666992188 417 l 1
 83.3330078125 417 l 1
 83.3330078125 375.333007812 l 1025
500 375.333007812 m 1
 583.333007812 375.333007812 l 1
 583.333007812 417 l 1
 500 417 l 1
 500 375.333007812 l 1025
83.3330078125 333.666992188 m 1
 166.666992188 333.666992188 l 1
 166.666992188 375.333007812 l 1
 83.3330078125 375.333007812 l 1
 83.3330078125 333.666992188 l 1025
500 333.666992188 m 1
 583.333007812 333.666992188 l 1
 583.333007812 375.333007812 l 1
 500 375.333007812 l 1
 500 333.666992188 l 1025
83.3330078125 292 m 1
 166.666992188 292 l 1
 166.666992188 333.666992188 l 1
 83.3330078125 333.666992188 l 1
 83.3330078125 292 l 1025
500 292 m 1
 583.333007812 292 l 1
 583.333007812 333.666992188 l 1
 500 333.666992188 l 1
 500 292 l 1025
83.3330078125 250.333007812 m 1
 166.666992188 250.333007812 l 1
 166.666992188 292 l 1
 83.3330078125 292 l 1
 83.3330078125 250.333007812 l 1025
500 250.333007812 m 1
 583.333007812 250.333007812 l 1
 583.333007812 292 l 1
 500 292 l 1
 500 250.333007812 l 1025
83.3330078125 208.666992188 m 1
 166.666992188 208.666992188 l 1
 166.666992188 250.333007812 l 1
 83.3330078125 250.333007812 l 1
 83.3330078125 208.666992188 l 1025
500 208.666992188 m 1
 583.333007812 208.666992188 l 1
 583.333007812 250.333007812 l 1
 500 250.333007812 l 1
 500 208.666992188 l 1025
83.3330078125 167 m 1
 166.666992188 167 l 1
 166.666992188 208.666992188 l 1
 83.3330078125 208.666992188 l 1
 83.3330078125 167 l 1025
458.333007812 167 m 1
 541.666992188 167 l 1
 541.666992188 208.666992188 l 1
 458.333007812 208.666992188 l 1
 458.333007812 167 l 1025
83.3330078125 125.333007812 m 1
 166.666992188 125.333007812 l 1
 166.666992188 167 l 1
 83.3330078125 167 l 1
 83.3330078125 125.333007812 l 1025
458.333007812 125.333007812 m 1
 541.666992188 125.333007812 l 1
 541.666992188 167 l 1
 458.333007812 167 l 1
 458.333007812 125.333007812 l 1025
83.3330078125 83.6669921875 m 1
 166.666992188 83.6669921875 l 1
 166.666992188 125.333007812 l 1
 83.3330078125 125.333007812 l 1
 83.3330078125 83.6669921875 l 1025
416.666992188 83.6669921875 m 1
 500 83.6669921875 l 1
 500 125.333007812 l 1
 416.666992188 125.333007812 l 1
 416.666992188 83.6669921875 l 1025
83.3330078125 42 m 1
 166.666992188 42 l 1
 166.666992188 83.6669921875 l 1
 83.3330078125 83.6669921875 l 1
 83.3330078125 42 l 1025
375 42 m 1
 500 42 l 1
 500 83.6669921875 l 1
 375 83.6669921875 l 1
 375 42 l 1025
83.3330078125 0.3330078125 m 1
 83.3330078125 42 l 1
 416.666992188 42 l 1
 416.666992188 0.3330078125 l 1
 83.3330078125 0.3330078125 l 1
EndSplineSet
EndChar

StartChar: E
Encoding: 69 69 38
Width: 583
Flags: HW
LayerCount: 2
Back
Fore
SplineSet
125 667 m 1
 500 667 l 1
 500 708.666992188 l 1
 125 708.666992188 l 1
 125 667 l 1025
125 625.333007812 m 1
 208.333007812 625.333007812 l 1
 208.333007812 667 l 1
 125 667 l 1
 125 625.333007812 l 1025
125 583.666992188 m 1
 208.333007812 583.666992188 l 1
 208.333007812 625.333007812 l 1
 125 625.333007812 l 1
 125 583.666992188 l 1025
125 542 m 1
 208.333007812 542 l 1
 208.333007812 583.666992188 l 1
 125 583.666992188 l 1
 125 542 l 1025
125 500.333007812 m 1
 208.333007812 500.333007812 l 1
 208.333007812 542 l 1
 125 542 l 1
 125 500.333007812 l 1025
125 458.666992188 m 1
 208.333007812 458.666992188 l 1
 208.333007812 500.333007812 l 1
 125 500.333007812 l 1
 125 458.666992188 l 1025
125 417 m 1
 208.333007812 417 l 1
 208.333007812 458.666992188 l 1
 125 458.666992188 l 1
 125 417 l 1025
125 375.333007812 m 1
 458.333007812 375.333007812 l 1
 458.333007812 417 l 1
 125 417 l 1
 125 375.333007812 l 1025
125 333.666992188 m 1
 208.333007812 333.666992188 l 1
 208.333007812 375.333007812 l 1
 125 375.333007812 l 1
 125 333.666992188 l 1025
125 292 m 1
 208.333007812 292 l 1
 208.333007812 333.666992188 l 1
 125 333.666992188 l 1
 125 292 l 1025
125 250.333007812 m 1
 208.333007812 250.333007812 l 1
 208.333007812 292 l 1
 125 292 l 1
 125 250.333007812 l 1025
125 208.666992188 m 1
 208.333007812 208.666992188 l 1
 208.333007812 250.333007812 l 1
 125 250.333007812 l 1
 125 208.666992188 l 1025
125 167 m 1
 208.333007812 167 l 1
 208.333007812 208.666992188 l 1
 125 208.666992188 l 1
 125 167 l 1025
125 125.333007812 m 1
 208.333007812 125.333007812 l 1
 208.333007812 167 l 1
 125 167 l 1
 125 125.333007812 l 1025
125 83.6669921875 m 1
 208.333007812 83.6669921875 l 1
 208.333007812 125.333007812 l 1
 125 125.333007812 l 1
 125 83.6669921875 l 1025
125 42 m 1
 208.333007812 42 l 1
 208.333007812 83.6669921875 l 1
 125 83.6669921875 l 1
 125 42 l 1025
125 0.3330078125 m 1
 125 42 l 1
 541.666992188 42 l 1
 541.666992188 0.3330078125 l 1
 125 0.3330078125 l 1
EndSplineSet
EndChar

StartChar: F
Encoding: 70 70 39
Width: 583
Flags: HW
LayerCount: 2
Back
Fore
SplineSet
125 667 m 1
 541.666992188 667 l 1
 541.666992188 708.666992188 l 1
 125 708.666992188 l 1
 125 667 l 1025
125 625.333007812 m 1
 208.333007812 625.333007812 l 1
 208.333007812 667 l 1
 125 667 l 1
 125 625.333007812 l 1025
125 583.666992188 m 1
 208.333007812 583.666992188 l 1
 208.333007812 625.333007812 l 1
 125 625.333007812 l 1
 125 583.666992188 l 1025
125 542 m 1
 208.333007812 542 l 1
 208.333007812 583.666992188 l 1
 125 583.666992188 l 1
 125 542 l 1025
125 500.333007812 m 1
 208.333007812 500.333007812 l 1
 208.333007812 542 l 1
 125 542 l 1
 125 500.333007812 l 1025
125 458.666992188 m 1
 208.333007812 458.666992188 l 1
 208.333007812 500.333007812 l 1
 125 500.333007812 l 1
 125 458.666992188 l 1025
125 417 m 1
 208.333007812 417 l 1
 208.333007812 458.666992188 l 1
 125 458.666992188 l 1
 125 417 l 1025
125 375.333007812 m 1
 208.333007812 375.333007812 l 1
 208.333007812 417 l 1
 125 417 l 1
 125 375.333007812 l 1025
125 333.666992188 m 1
 500 333.666992188 l 1
 500 375.333007812 l 1
 125 375.333007812 l 1
 125 333.666992188 l 1025
125 292 m 1
 208.333007812 292 l 1
 208.333007812 333.666992188 l 1
 125 333.666992188 l 1
 125 292 l 1025
125 250.333007812 m 1
 208.333007812 250.333007812 l 1
 208.333007812 292 l 1
 125 292 l 1
 125 250.333007812 l 1025
125 208.666992188 m 1
 208.333007812 208.666992188 l 1
 208.333007812 250.333007812 l 1
 125 250.333007812 l 1
 125 208.666992188 l 1025
125 167 m 1
 208.333007812 167 l 1
 208.333007812 208.666992188 l 1
 125 208.666992188 l 1
 125 167 l 1025
125 125.333007812 m 1
 208.333007812 125.333007812 l 1
 208.333007812 167 l 1
 125 167 l 1
 125 125.333007812 l 1025
125 83.6669921875 m 1
 208.333007812 83.6669921875 l 1
 208.333007812 125.333007812 l 1
 125 125.333007812 l 1
 125 83.6669921875 l 1025
125 42 m 1
 208.333007812 42 l 1
 208.333007812 83.6669921875 l 1
 125 83.6669921875 l 1
 125 42 l 1025
125 0.3330078125 m 1
 125 42 l 1
 208.333007812 42 l 1
 208.333007812 0.3330078125 l 1
 125 0.3330078125 l 1
EndSplineSet
EndChar

StartChar: G
Encoding: 71 71 40
Width: 583
Flags: HW
LayerCount: 2
Back
Fore
SplineSet
250 667 m 1
 541.666992188 667 l 1
 541.666992188 708.666992188 l 1
 250 708.666992188 l 1
 250 667 l 1025
166.666992188 625.333007812 m 1
 250 625.333007812 l 1
 250 667 l 1
 166.666992188 667 l 1
 166.666992188 625.333007812 l 1025
500 625.333007812 m 1
 541.666992188 625.333007812 l 1
 541.666992188 667 l 1
 500 667 l 1
 500 625.333007812 l 1025
125 583.666992188 m 1
 208.333007812 583.666992188 l 1
 208.333007812 625.333007812 l 1
 125 625.333007812 l 1
 125 583.666992188 l 1025
83.3330078125 542 m 1
 166.666992188 542 l 1
 166.666992188 583.666992188 l 1
 83.3330078125 583.666992188 l 1
 83.3330078125 542 l 1025
83.3330078125 500.333007812 m 1
 166.666992188 500.333007812 l 1
 166.666992188 542 l 1
 83.3330078125 542 l 1
 83.3330078125 500.333007812 l 1025
41.6669921875 458.666992188 m 1
 125 458.666992188 l 1
 125 500.333007812 l 1
 41.6669921875 500.333007812 l 1
 41.6669921875 458.666992188 l 1025
41.6669921875 417 m 1
 125 417 l 1
 125 458.666992188 l 1
 41.6669921875 458.666992188 l 1
 41.6669921875 417 l 1025
41.6669921875 375.333007812 m 1
 125 375.333007812 l 1
 125 417 l 1
 41.6669921875 417 l 1
 41.6669921875 375.333007812 l 1025
41.6669921875 333.666992188 m 1
 125 333.666992188 l 1
 125 375.333007812 l 1
 41.6669921875 375.333007812 l 1
 41.6669921875 333.666992188 l 1025
41.6669921875 292 m 1
 125 292 l 1
 125 333.666992188 l 1
 41.6669921875 333.666992188 l 1
 41.6669921875 292 l 1025
41.6669921875 250.333007812 m 1
 125 250.333007812 l 1
 125 292 l 1
 41.6669921875 292 l 1
 41.6669921875 250.333007812 l 1025
458.333007812 250.333007812 m 1
 541.666992188 250.333007812 l 1
 541.666992188 292 l 1
 458.333007812 292 l 1
 458.333007812 250.333007812 l 1025
41.6669921875 208.666992188 m 1
 125 208.666992188 l 1
 125 250.333007812 l 1
 41.6669921875 250.333007812 l 1
 41.6669921875 208.666992188 l 1025
458.333007812 208.666992188 m 1
 541.666992188 208.666992188 l 1
 541.666992188 250.333007812 l 1
 458.333007812 250.333007812 l 1
 458.333007812 208.666992188 l 1025
83.3330078125 167 m 1
 166.666992188 167 l 1
 166.666992188 208.666992188 l 1
 83.3330078125 208.666992188 l 1
 83.3330078125 167 l 1025
458.333007812 167 m 1
 541.666992188 167 l 1
 541.666992188 208.666992188 l 1
 458.333007812 208.666992188 l 1
 458.333007812 167 l 1025
83.3330078125 125.333007812 m 1
 166.666992188 125.333007812 l 1
 166.666992188 167 l 1
 83.3330078125 167 l 1
 83.3330078125 125.333007812 l 1025
458.333007812 125.333007812 m 1
 541.666992188 125.333007812 l 1
 541.666992188 167 l 1
 458.333007812 167 l 1
 458.333007812 125.333007812 l 1025
125 83.6669921875 m 1
 208.333007812 83.6669921875 l 1
 208.333007812 125.333007812 l 1
 125 125.333007812 l 1
 125 83.6669921875 l 1025
458.333007812 83.6669921875 m 1
 541.666992188 83.6669921875 l 1
 541.666992188 125.333007812 l 1
 458.333007812 125.333007812 l 1
 458.333007812 83.6669921875 l 1025
166.666992188 42 m 1
 291.666992188 42 l 1
 291.666992188 83.6669921875 l 1
 166.666992188 83.6669921875 l 1
 166.666992188 42 l 1025
458.333007812 42 m 1
 541.666992188 42 l 1
 541.666992188 83.6669921875 l 1
 458.333007812 83.6669921875 l 1
 458.333007812 42 l 1025
250 0.3330078125 m 1
 250 42 l 1
 500 42 l 1
 500 0.3330078125 l 1
 250 0.3330078125 l 1
EndSplineSet
EndChar

StartChar: H
Encoding: 72 72 41
Width: 583
Flags: HW
LayerCount: 2
Back
Fore
SplineSet
83.3330078125 667 m 1
 166.666992188 667 l 1
 166.666992188 708.666992188 l 1
 83.3330078125 708.666992188 l 1
 83.3330078125 667 l 1025
458.333007812 667 m 1
 541.666992188 667 l 1
 541.666992188 708.666992188 l 1
 458.333007812 708.666992188 l 1
 458.333007812 667 l 1025
83.3330078125 625.333007812 m 1
 166.666992188 625.333007812 l 1
 166.666992188 667 l 1
 83.3330078125 667 l 1
 83.3330078125 625.333007812 l 1025
458.333007812 625.333007812 m 1
 541.666992188 625.333007812 l 1
 541.666992188 667 l 1
 458.333007812 667 l 1
 458.333007812 625.333007812 l 1025
83.3330078125 583.666992188 m 1
 166.666992188 583.666992188 l 1
 166.666992188 625.333007812 l 1
 83.3330078125 625.333007812 l 1
 83.3330078125 583.666992188 l 1025
458.333007812 583.666992188 m 1
 541.666992188 583.666992188 l 1
 541.666992188 625.333007812 l 1
 458.333007812 625.333007812 l 1
 458.333007812 583.666992188 l 1025
83.3330078125 542 m 1
 166.666992188 542 l 1
 166.666992188 583.666992188 l 1
 83.3330078125 583.666992188 l 1
 83.3330078125 542 l 1025
458.333007812 542 m 1
 541.666992188 542 l 1
 541.666992188 583.666992188 l 1
 458.333007812 583.666992188 l 1
 458.333007812 542 l 1025
83.3330078125 500.333007812 m 1
 166.666992188 500.333007812 l 1
 166.666992188 542 l 1
 83.3330078125 542 l 1
 83.3330078125 500.333007812 l 1025
458.333007812 500.333007812 m 1
 541.666992188 500.333007812 l 1
 541.666992188 542 l 1
 458.333007812 542 l 1
 458.333007812 500.333007812 l 1025
83.3330078125 458.666992188 m 1
 166.666992188 458.666992188 l 1
 166.666992188 500.333007812 l 1
 83.3330078125 500.333007812 l 1
 83.3330078125 458.666992188 l 1025
458.333007812 458.666992188 m 1
 541.666992188 458.666992188 l 1
 541.666992188 500.333007812 l 1
 458.333007812 500.333007812 l 1
 458.333007812 458.666992188 l 1025
83.3330078125 417 m 1
 166.666992188 417 l 1
 166.666992188 458.666992188 l 1
 83.3330078125 458.666992188 l 1
 83.3330078125 417 l 1025
458.333007812 417 m 1
 541.666992188 417 l 1
 541.666992188 458.666992188 l 1
 458.333007812 458.666992188 l 1
 458.333007812 417 l 1025
83.3330078125 375.333007812 m 1
 166.666992188 375.333007812 l 1
 166.666992188 417 l 1
 83.3330078125 417 l 1
 83.3330078125 375.333007812 l 1025
458.333007812 375.333007812 m 1
 541.666992188 375.333007812 l 1
 541.666992188 417 l 1
 458.333007812 417 l 1
 458.333007812 375.333007812 l 1025
83.3330078125 333.666992188 m 1
 541.666992188 333.666992188 l 1
 541.666992188 375.333007812 l 1
 83.3330078125 375.333007812 l 1
 83.3330078125 333.666992188 l 1025
83.3330078125 292 m 1
 166.666992188 292 l 1
 166.666992188 333.666992188 l 1
 83.3330078125 333.666992188 l 1
 83.3330078125 292 l 1025
458.333007812 292 m 1
 541.666992188 292 l 1
 541.666992188 333.666992188 l 1
 458.333007812 333.666992188 l 1
 458.333007812 292 l 1025
83.3330078125 250.333007812 m 1
 166.666992188 250.333007812 l 1
 166.666992188 292 l 1
 83.3330078125 292 l 1
 83.3330078125 250.333007812 l 1025
458.333007812 250.333007812 m 1
 541.666992188 250.333007812 l 1
 541.666992188 292 l 1
 458.333007812 292 l 1
 458.333007812 250.333007812 l 1025
83.3330078125 208.666992188 m 1
 166.666992188 208.666992188 l 1
 166.666992188 250.333007812 l 1
 83.3330078125 250.333007812 l 1
 83.3330078125 208.666992188 l 1025
458.333007812 208.666992188 m 1
 541.666992188 208.666992188 l 1
 541.666992188 250.333007812 l 1
 458.333007812 250.333007812 l 1
 458.333007812 208.666992188 l 1025
83.3330078125 167 m 1
 166.666992188 167 l 1
 166.666992188 208.666992188 l 1
 83.3330078125 208.666992188 l 1
 83.3330078125 167 l 1025
458.333007812 167 m 1
 541.666992188 167 l 1
 541.666992188 208.666992188 l 1
 458.333007812 208.666992188 l 1
 458.333007812 167 l 1025
83.3330078125 125.333007812 m 1
 166.666992188 125.333007812 l 1
 166.666992188 167 l 1
 83.3330078125 167 l 1
 83.3330078125 125.333007812 l 1025
458.333007812 125.333007812 m 1
 541.666992188 125.333007812 l 1
 541.666992188 167 l 1
 458.333007812 167 l 1
 458.333007812 125.333007812 l 1025
83.3330078125 83.6669921875 m 1
 166.666992188 83.6669921875 l 1
 166.666992188 125.333007812 l 1
 83.3330078125 125.333007812 l 1
 83.3330078125 83.6669921875 l 1025
458.333007812 83.6669921875 m 1
 541.666992188 83.6669921875 l 1
 541.666992188 125.333007812 l 1
 458.333007812 125.333007812 l 1
 458.333007812 83.6669921875 l 1025
83.3330078125 42 m 1
 166.666992188 42 l 1
 166.666992188 83.6669921875 l 1
 83.3330078125 83.6669921875 l 1
 83.3330078125 42 l 1025
458.333007812 42 m 1
 541.666992188 42 l 1
 541.666992188 83.6669921875 l 1
 458.333007812 83.6669921875 l 1
 458.333007812 42 l 1025
83.3330078125 0.3330078125 m 1
 166.666992188 0.3330078125 l 1
 166.666992188 42 l 1
 83.3330078125 42 l 1
 83.3330078125 0.3330078125 l 1025
458.333007812 0.3330078125 m 1
 458.333007812 42 l 1
 541.666992188 42 l 1
 541.666992188 0.3330078125 l 1
 458.333007812 0.3330078125 l 1
EndSplineSet
EndChar

StartChar: I
Encoding: 73 73 42
Width: 583
Flags: HW
LayerCount: 2
Back
Fore
SplineSet
83.3330078125 667 m 1
 500 667 l 1
 500 708.666992188 l 1
 83.3330078125 708.666992188 l 1
 83.3330078125 667 l 1025
250 625.333007812 m 1
 333.333007812 625.333007812 l 1
 333.333007812 667 l 1
 250 667 l 1
 250 625.333007812 l 1025
250 583.666992188 m 1
 333.333007812 583.666992188 l 1
 333.333007812 625.333007812 l 1
 250 625.333007812 l 1
 250 583.666992188 l 1025
250 542 m 1
 333.333007812 542 l 1
 333.333007812 583.666992188 l 1
 250 583.666992188 l 1
 250 542 l 1025
250 500.333007812 m 1
 333.333007812 500.333007812 l 1
 333.333007812 542 l 1
 250 542 l 1
 250 500.333007812 l 1025
250 458.666992188 m 1
 333.333007812 458.666992188 l 1
 333.333007812 500.333007812 l 1
 250 500.333007812 l 1
 250 458.666992188 l 1025
250 417 m 1
 333.333007812 417 l 1
 333.333007812 458.666992188 l 1
 250 458.666992188 l 1
 250 417 l 1025
250 375.333007812 m 1
 333.333007812 375.333007812 l 1
 333.333007812 417 l 1
 250 417 l 1
 250 375.333007812 l 1025
250 333.666992188 m 1
 333.333007812 333.666992188 l 1
 333.333007812 375.333007812 l 1
 250 375.333007812 l 1
 250 333.666992188 l 1025
250 292 m 1
 333.333007812 292 l 1
 333.333007812 333.666992188 l 1
 250 333.666992188 l 1
 250 292 l 1025
250 250.333007812 m 1
 333.333007812 250.333007812 l 1
 333.333007812 292 l 1
 250 292 l 1
 250 250.333007812 l 1025
250 208.666992188 m 1
 333.333007812 208.666992188 l 1
 333.333007812 250.333007812 l 1
 250 250.333007812 l 1
 250 208.666992188 l 1025
250 167 m 1
 333.333007812 167 l 1
 333.333007812 208.666992188 l 1
 250 208.666992188 l 1
 250 167 l 1025
250 125.333007812 m 1
 333.333007812 125.333007812 l 1
 333.333007812 167 l 1
 250 167 l 1
 250 125.333007812 l 1025
250 83.6669921875 m 1
 333.333007812 83.6669921875 l 1
 333.333007812 125.333007812 l 1
 250 125.333007812 l 1
 250 83.6669921875 l 1025
250 42 m 1
 333.333007812 42 l 1
 333.333007812 83.6669921875 l 1
 250 83.6669921875 l 1
 250 42 l 1025
83.3330078125 0.3330078125 m 1
 83.3330078125 42 l 1
 500 42 l 1
 500 0.3330078125 l 1
 83.3330078125 0.3330078125 l 1
EndSplineSet
EndChar

StartChar: J
Encoding: 74 74 43
Width: 583
Flags: HW
LayerCount: 2
Back
Fore
SplineSet
166.666992188 667 m 1
 458.333007812 667 l 1
 458.333007812 708.666992188 l 1
 166.666992188 708.666992188 l 1
 166.666992188 667 l 1025
375 625.333007812 m 1
 458.333007812 625.333007812 l 1
 458.333007812 667 l 1
 375 667 l 1
 375 625.333007812 l 1025
375 583.666992188 m 1
 458.333007812 583.666992188 l 1
 458.333007812 625.333007812 l 1
 375 625.333007812 l 1
 375 583.666992188 l 1025
375 542 m 1
 458.333007812 542 l 1
 458.333007812 583.666992188 l 1
 375 583.666992188 l 1
 375 542 l 1025
375 500.333007812 m 1
 458.333007812 500.333007812 l 1
 458.333007812 542 l 1
 375 542 l 1
 375 500.333007812 l 1025
375 458.666992188 m 1
 458.333007812 458.666992188 l 1
 458.333007812 500.333007812 l 1
 375 500.333007812 l 1
 375 458.666992188 l 1025
375 417 m 1
 458.333007812 417 l 1
 458.333007812 458.666992188 l 1
 375 458.666992188 l 1
 375 417 l 1025
375 375.333007812 m 1
 458.333007812 375.333007812 l 1
 458.333007812 417 l 1
 375 417 l 1
 375 375.333007812 l 1025
375 333.666992188 m 1
 458.333007812 333.666992188 l 1
 458.333007812 375.333007812 l 1
 375 375.333007812 l 1
 375 333.666992188 l 1025
375 292 m 1
 458.333007812 292 l 1
 458.333007812 333.666992188 l 1
 375 333.666992188 l 1
 375 292 l 1025
375 250.333007812 m 1
 458.333007812 250.333007812 l 1
 458.333007812 292 l 1
 375 292 l 1
 375 250.333007812 l 1025
375 208.666992188 m 1
 458.333007812 208.666992188 l 1
 458.333007812 250.333007812 l 1
 375 250.333007812 l 1
 375 208.666992188 l 1025
375 167 m 1
 458.333007812 167 l 1
 458.333007812 208.666992188 l 1
 375 208.666992188 l 1
 375 167 l 1025
375 125.333007812 m 1
 458.333007812 125.333007812 l 1
 458.333007812 167 l 1
 375 167 l 1
 375 125.333007812 l 1025
375 83.6669921875 m 1
 458.333007812 83.6669921875 l 1
 458.333007812 125.333007812 l 1
 375 125.333007812 l 1
 375 83.6669921875 l 1025
125 42 m 1
 166.666992188 42 l 1
 166.666992188 83.6669921875 l 1
 125 83.6669921875 l 1
 125 42 l 1025
333.333007812 42 m 1
 416.666992188 42 l 1
 416.666992188 83.6669921875 l 1
 333.333007812 83.6669921875 l 1
 333.333007812 42 l 1025
125 0.3330078125 m 1
 125 42 l 1
 375 42 l 1
 375 0.3330078125 l 1
 125 0.3330078125 l 1
EndSplineSet
EndChar

StartChar: K
Encoding: 75 75 44
Width: 583
Flags: HW
LayerCount: 2
Back
Fore
SplineSet
83.3330078125 667 m 1
 166.666992188 667 l 1
 166.666992188 708.666992188 l 1
 83.3330078125 708.666992188 l 1
 83.3330078125 667 l 1025
458.333007812 667 m 1
 500 667 l 1
 500 708.666992188 l 1
 458.333007812 708.666992188 l 1
 458.333007812 667 l 1025
83.3330078125 625.333007812 m 1
 166.666992188 625.333007812 l 1
 166.666992188 667 l 1
 83.3330078125 667 l 1
 83.3330078125 625.333007812 l 1025
416.666992188 625.333007812 m 1
 458.333007812 625.333007812 l 1
 458.333007812 667 l 1
 416.666992188 667 l 1
 416.666992188 625.333007812 l 1025
83.3330078125 583.666992188 m 1
 166.666992188 583.666992188 l 1
 166.666992188 625.333007812 l 1
 83.3330078125 625.333007812 l 1
 83.3330078125 583.666992188 l 1025
375 583.666992188 m 1
 416.666992188 583.666992188 l 1
 416.666992188 625.333007812 l 1
 375 625.333007812 l 1
 375 583.666992188 l 1025
83.3330078125 542 m 1
 166.666992188 542 l 1
 166.666992188 583.666992188 l 1
 83.3330078125 583.666992188 l 1
 83.3330078125 542 l 1025
333.333007812 542 m 1
 416.666992188 542 l 1
 416.666992188 583.666992188 l 1
 333.333007812 583.666992188 l 1
 333.333007812 542 l 1025
83.3330078125 500.333007812 m 1
 166.666992188 500.333007812 l 1
 166.666992188 542 l 1
 83.3330078125 542 l 1
 83.3330078125 500.333007812 l 1025
333.333007812 500.333007812 m 1
 375 500.333007812 l 1
 375 542 l 1
 333.333007812 542 l 1
 333.333007812 500.333007812 l 1025
83.3330078125 458.666992188 m 1
 166.666992188 458.666992188 l 1
 166.666992188 500.333007812 l 1
 83.3330078125 500.333007812 l 1
 83.3330078125 458.666992188 l 1025
291.666992188 458.666992188 m 1
 333.333007812 458.666992188 l 1
 333.333007812 500.333007812 l 1
 291.666992188 500.333007812 l 1
 291.666992188 458.666992188 l 1025
83.3330078125 417 m 1
 166.666992188 417 l 1
 166.666992188 458.666992188 l 1
 83.3330078125 458.666992188 l 1
 83.3330078125 417 l 1025
250 417 m 1
 291.666992188 417 l 1
 291.666992188 458.666992188 l 1
 250 458.666992188 l 1
 250 417 l 1025
83.3330078125 375.333007812 m 1
 166.666992188 375.333007812 l 1
 166.666992188 417 l 1
 83.3330078125 417 l 1
 83.3330078125 375.333007812 l 1025
208.333007812 375.333007812 m 1
 250 375.333007812 l 1
 250 417 l 1
 208.333007812 417 l 1
 208.333007812 375.333007812 l 1025
83.3330078125 333.666992188 m 1
 291.666992188 333.666992188 l 1
 291.666992188 375.333007812 l 1
 83.3330078125 375.333007812 l 1
 83.3330078125 333.666992188 l 1025
83.3330078125 292 m 1
 166.666992188 292 l 1
 166.666992188 333.666992188 l 1
 83.3330078125 333.666992188 l 1
 83.3330078125 292 l 1025
208.333007812 292 m 1
 333.333007812 292 l 1
 333.333007812 333.666992188 l 1
 208.333007812 333.666992188 l 1
 208.333007812 292 l 1025
83.3330078125 250.333007812 m 1
 166.666992188 250.333007812 l 1
 166.666992188 292 l 1
 83.3330078125 292 l 1
 83.3330078125 250.333007812 l 1025
250 250.333007812 m 1
 333.333007812 250.333007812 l 1
 333.333007812 292 l 1
 250 292 l 1
 250 250.333007812 l 1025
83.3330078125 208.666992188 m 1
 166.666992188 208.666992188 l 1
 166.666992188 250.333007812 l 1
 83.3330078125 250.333007812 l 1
 83.3330078125 208.666992188 l 1025
291.666992188 208.666992188 m 1
 375 208.666992188 l 1
 375 250.333007812 l 1
 291.666992188 250.333007812 l 1
 291.666992188 208.666992188 l 1025
83.3330078125 167 m 1
 166.666992188 167 l 1
 166.666992188 208.666992188 l 1
 83.3330078125 208.666992188 l 1
 83.3330078125 167 l 1025
333.333007812 167 m 1
 416.666992188 167 l 1
 416.666992188 208.666992188 l 1
 333.333007812 208.666992188 l 1
 333.333007812 167 l 1025
83.3330078125 125.333007812 m 1
 166.666992188 125.333007812 l 1
 166.666992188 167 l 1
 83.3330078125 167 l 1
 83.3330078125 125.333007812 l 1025
333.333007812 125.333007812 m 1
 458.333007812 125.333007812 l 1
 458.333007812 167 l 1
 333.333007812 167 l 1
 333.333007812 125.333007812 l 1025
83.3330078125 83.6669921875 m 1
 166.666992188 83.6669921875 l 1
 166.666992188 125.333007812 l 1
 83.3330078125 125.333007812 l 1
 83.3330078125 83.6669921875 l 1025
375 83.6669921875 m 1
 500 83.6669921875 l 1
 500 125.333007812 l 1
 375 125.333007812 l 1
 375 83.6669921875 l 1025
83.3330078125 42 m 1
 166.666992188 42 l 1
 166.666992188 83.6669921875 l 1
 83.3330078125 83.6669921875 l 1
 83.3330078125 42 l 1025
416.666992188 42 m 1
 541.666992188 42 l 1
 541.666992188 83.6669921875 l 1
 416.666992188 83.6669921875 l 1
 416.666992188 42 l 1025
83.3330078125 0.3330078125 m 1
 166.666992188 0.3330078125 l 1
 166.666992188 42 l 1
 83.3330078125 42 l 1
 83.3330078125 0.3330078125 l 1025
458.333007812 0.3330078125 m 1
 458.333007812 42 l 1
 583.333007812 42 l 1
 583.333007812 0.3330078125 l 1
 458.333007812 0.3330078125 l 1
EndSplineSet
EndChar

StartChar: L
Encoding: 76 76 45
Width: 583
Flags: HW
LayerCount: 2
Back
Fore
SplineSet
125 667 m 1
 208.333007812 667 l 1
 208.333007812 708.666992188 l 1
 125 708.666992188 l 1
 125 667 l 1025
125 625.333007812 m 1
 208.333007812 625.333007812 l 1
 208.333007812 667 l 1
 125 667 l 1
 125 625.333007812 l 1025
125 583.666992188 m 1
 208.333007812 583.666992188 l 1
 208.333007812 625.333007812 l 1
 125 625.333007812 l 1
 125 583.666992188 l 1025
125 542 m 1
 208.333007812 542 l 1
 208.333007812 583.666992188 l 1
 125 583.666992188 l 1
 125 542 l 1025
125 500.333007812 m 1
 208.333007812 500.333007812 l 1
 208.333007812 542 l 1
 125 542 l 1
 125 500.333007812 l 1025
125 458.666992188 m 1
 208.333007812 458.666992188 l 1
 208.333007812 500.333007812 l 1
 125 500.333007812 l 1
 125 458.666992188 l 1025
125 417 m 1
 208.333007812 417 l 1
 208.333007812 458.666992188 l 1
 125 458.666992188 l 1
 125 417 l 1025
125 375.333007812 m 1
 208.333007812 375.333007812 l 1
 208.333007812 417 l 1
 125 417 l 1
 125 375.333007812 l 1025
125 333.666992188 m 1
 208.333007812 333.666992188 l 1
 208.333007812 375.333007812 l 1
 125 375.333007812 l 1
 125 333.666992188 l 1025
125 292 m 1
 208.333007812 292 l 1
 208.333007812 333.666992188 l 1
 125 333.666992188 l 1
 125 292 l 1025
125 250.333007812 m 1
 208.333007812 250.333007812 l 1
 208.333007812 292 l 1
 125 292 l 1
 125 250.333007812 l 1025
125 208.666992188 m 1
 208.333007812 208.666992188 l 1
 208.333007812 250.333007812 l 1
 125 250.333007812 l 1
 125 208.666992188 l 1025
125 167 m 1
 208.333007812 167 l 1
 208.333007812 208.666992188 l 1
 125 208.666992188 l 1
 125 167 l 1025
125 125.333007812 m 1
 208.333007812 125.333007812 l 1
 208.333007812 167 l 1
 125 167 l 1
 125 125.333007812 l 1025
125 83.6669921875 m 1
 208.333007812 83.6669921875 l 1
 208.333007812 125.333007812 l 1
 125 125.333007812 l 1
 125 83.6669921875 l 1025
125 42 m 1
 208.333007812 42 l 1
 208.333007812 83.6669921875 l 1
 125 83.6669921875 l 1
 125 42 l 1025
125 0.3330078125 m 1
 125 42 l 1
 541.666992188 42 l 1
 541.666992188 0.3330078125 l 1
 125 0.3330078125 l 1
EndSplineSet
EndChar

StartChar: M
Encoding: 77 77 46
Width: 583
Flags: HW
LayerCount: 2
Back
Fore
SplineSet
41.6669921875 667 m 1
 125 667 l 1
 125 708.666992188 l 1
 41.6669921875 708.666992188 l 1
 41.6669921875 667 l 1025
458.333007812 667 m 1
 541.666992188 667 l 1
 541.666992188 708.666992188 l 1
 458.333007812 708.666992188 l 1
 458.333007812 667 l 1025
41.6669921875 625.333007812 m 1
 166.666992188 625.333007812 l 1
 166.666992188 667 l 1
 41.6669921875 667 l 1
 41.6669921875 625.333007812 l 1025
416.666992188 625.333007812 m 1
 541.666992188 625.333007812 l 1
 541.666992188 667 l 1
 416.666992188 667 l 1
 416.666992188 625.333007812 l 1025
41.6669921875 583.666992188 m 1
 166.666992188 583.666992188 l 1
 166.666992188 625.333007812 l 1
 41.6669921875 625.333007812 l 1
 41.6669921875 583.666992188 l 1025
416.666992188 583.666992188 m 1
 541.666992188 583.666992188 l 1
 541.666992188 625.333007812 l 1
 416.666992188 625.333007812 l 1
 416.666992188 583.666992188 l 1025
41.6669921875 542 m 1
 83.3330078125 542 l 1
 83.3330078125 583.666992188 l 1
 41.6669921875 583.666992188 l 1
 41.6669921875 542 l 1025
125 542 m 1
 166.666992188 542 l 1
 166.666992188 583.666992188 l 1
 125 583.666992188 l 1
 125 542 l 1025
416.666992188 542 m 1
 458.333007812 542 l 1
 458.333007812 583.666992188 l 1
 416.666992188 583.666992188 l 1
 416.666992188 542 l 1025
500 542 m 1
 541.666992188 542 l 1
 541.666992188 583.666992188 l 1
 500 583.666992188 l 1
 500 542 l 1025
41.6669921875 500.333007812 m 1
 83.3330078125 500.333007812 l 1
 83.3330078125 542 l 1
 41.6669921875 542 l 1
 41.6669921875 500.333007812 l 1025
125 500.333007812 m 1
 166.666992188 500.333007812 l 1
 166.666992188 542 l 1
 125 542 l 1
 125 500.333007812 l 1025
416.666992188 500.333007812 m 1
 458.333007812 500.333007812 l 1
 458.333007812 542 l 1
 416.666992188 542 l 1
 416.666992188 500.333007812 l 1025
500 500.333007812 m 1
 541.666992188 500.333007812 l 1
 541.666992188 542 l 1
 500 542 l 1
 500 500.333007812 l 1025
41.6669921875 458.666992188 m 1
 83.3330078125 458.666992188 l 1
 83.3330078125 500.333007812 l 1
 41.6669921875 500.333007812 l 1
 41.6669921875 458.666992188 l 1025
125 458.666992188 m 1
 208.333007812 458.666992188 l 1
 208.333007812 500.333007812 l 1
 125 500.333007812 l 1
 125 458.666992188 l 1025
375 458.666992188 m 1
 458.333007812 458.666992188 l 1
 458.333007812 500.333007812 l 1
 375 500.333007812 l 1
 375 458.666992188 l 1025
500 458.666992188 m 1
 541.666992188 458.666992188 l 1
 541.666992188 500.333007812 l 1
 500 500.333007812 l 1
 500 458.666992188 l 1025
41.6669921875 417 m 1
 83.3330078125 417 l 1
 83.3330078125 458.666992188 l 1
 41.6669921875 458.666992188 l 1
 41.6669921875 417 l 1025
166.666992188 417 m 1
 208.333007812 417 l 1
 208.333007812 458.666992188 l 1
 166.666992188 458.666992188 l 1
 166.666992188 417 l 1025
375 417 m 1
 416.666992188 417 l 1
 416.666992188 458.666992188 l 1
 375 458.666992188 l 1
 375 417 l 1025
500 417 m 1
 541.666992188 417 l 1
 541.666992188 458.666992188 l 1
 500 458.666992188 l 1
 500 417 l 1025
41.6669921875 375.333007812 m 1
 83.3330078125 375.333007812 l 1
 83.3330078125 417 l 1
 41.6669921875 417 l 1
 41.6669921875 375.333007812 l 1025
166.666992188 375.333007812 m 1
 208.333007812 375.333007812 l 1
 208.333007812 417 l 1
 166.666992188 417 l 1
 166.666992188 375.333007812 l 1025
375 375.333007812 m 1
 416.666992188 375.333007812 l 1
 416.666992188 417 l 1
 375 417 l 1
 375 375.333007812 l 1025
500 375.333007812 m 1
 541.666992188 375.333007812 l 1
 541.666992188 417 l 1
 500 417 l 1
 500 375.333007812 l 1025
41.6669921875 333.666992188 m 1
 83.3330078125 333.666992188 l 1
 83.3330078125 375.333007812 l 1
 41.6669921875 375.333007812 l 1
 41.6669921875 333.666992188 l 1025
166.666992188 333.666992188 m 1
 208.333007812 333.666992188 l 1
 208.333007812 375.333007812 l 1
 166.666992188 375.333007812 l 1
 166.666992188 333.666992188 l 1025
375 333.666992188 m 1
 416.666992188 333.666992188 l 1
 416.666992188 375.333007812 l 1
 375 375.333007812 l 1
 375 333.666992188 l 1025
500 333.666992188 m 1
 541.666992188 333.666992188 l 1
 541.666992188 375.333007812 l 1
 500 375.333007812 l 1
 500 333.666992188 l 1025
41.6669921875 292 m 1
 83.3330078125 292 l 1
 83.3330078125 333.666992188 l 1
 41.6669921875 333.666992188 l 1
 41.6669921875 292 l 1025
208.333007812 292 m 1
 250 292 l 1
 250 333.666992188 l 1
 208.333007812 333.666992188 l 1
 208.333007812 292 l 1025
333.333007812 292 m 1
 375 292 l 1
 375 333.666992188 l 1
 333.333007812 333.666992188 l 1
 333.333007812 292 l 1025
500 292 m 1
 541.666992188 292 l 1
 541.666992188 333.666992188 l 1
 500 333.666992188 l 1
 500 292 l 1025
41.6669921875 250.333007812 m 1
 83.3330078125 250.333007812 l 1
 83.3330078125 292 l 1
 41.6669921875 292 l 1
 41.6669921875 250.333007812 l 1025
208.333007812 250.333007812 m 1
 250 250.333007812 l 1
 250 292 l 1
 208.333007812 292 l 1
 208.333007812 250.333007812 l 1025
333.333007812 250.333007812 m 1
 375 250.333007812 l 1
 375 292 l 1
 333.333007812 292 l 1
 333.333007812 250.333007812 l 1025
500 250.333007812 m 1
 541.666992188 250.333007812 l 1
 541.666992188 292 l 1
 500 292 l 1
 500 250.333007812 l 1025
41.6669921875 208.666992188 m 1
 83.3330078125 208.666992188 l 1
 83.3330078125 250.333007812 l 1
 41.6669921875 250.333007812 l 1
 41.6669921875 208.666992188 l 1025
208.333007812 208.666992188 m 1
 250 208.666992188 l 1
 250 250.333007812 l 1
 208.333007812 250.333007812 l 1
 208.333007812 208.666992188 l 1025
333.333007812 208.666992188 m 1
 375 208.666992188 l 1
 375 250.333007812 l 1
 333.333007812 250.333007812 l 1
 333.333007812 208.666992188 l 1025
500 208.666992188 m 1
 541.666992188 208.666992188 l 1
 541.666992188 250.333007812 l 1
 500 250.333007812 l 1
 500 208.666992188 l 1025
41.6669921875 167 m 1
 83.3330078125 167 l 1
 83.3330078125 208.666992188 l 1
 41.6669921875 208.666992188 l 1
 41.6669921875 167 l 1025
208.333007812 167 m 1
 250 167 l 1
 250 208.666992188 l 1
 208.333007812 208.666992188 l 1
 208.333007812 167 l 1025
333.333007812 167 m 1
 375 167 l 1
 375 208.666992188 l 1
 333.333007812 208.666992188 l 1
 333.333007812 167 l 1025
500 167 m 1
 541.666992188 167 l 1
 541.666992188 208.666992188 l 1
 500 208.666992188 l 1
 500 167 l 1025
41.6669921875 125.333007812 m 1
 83.3330078125 125.333007812 l 1
 83.3330078125 167 l 1
 41.6669921875 167 l 1
 41.6669921875 125.333007812 l 1025
250 125.333007812 m 1
 333.333007812 125.333007812 l 1
 333.333007812 167 l 1
 250 167 l 1
 250 125.333007812 l 1025
500 125.333007812 m 1
 541.666992188 125.333007812 l 1
 541.666992188 167 l 1
 500 167 l 1
 500 125.333007812 l 1025
41.6669921875 83.6669921875 m 1
 83.3330078125 83.6669921875 l 1
 83.3330078125 125.333007812 l 1
 41.6669921875 125.333007812 l 1
 41.6669921875 83.6669921875 l 1025
250 83.6669921875 m 1
 333.333007812 83.6669921875 l 1
 333.333007812 125.333007812 l 1
 250 125.333007812 l 1
 250 83.6669921875 l 1025
500 83.6669921875 m 1
 541.666992188 83.6669921875 l 1
 541.666992188 125.333007812 l 1
 500 125.333007812 l 1
 500 83.6669921875 l 1025
41.6669921875 42 m 1
 83.3330078125 42 l 1
 83.3330078125 83.6669921875 l 1
 41.6669921875 83.6669921875 l 1
 41.6669921875 42 l 1025
250 42 m 1
 333.333007812 42 l 1
 333.333007812 83.6669921875 l 1
 250 83.6669921875 l 1
 250 42 l 1025
500 42 m 1
 541.666992188 42 l 1
 541.666992188 83.6669921875 l 1
 500 83.6669921875 l 1
 500 42 l 1025
41.6669921875 0.3330078125 m 1
 83.3330078125 0.3330078125 l 1
 83.3330078125 42 l 1
 41.6669921875 42 l 1
 41.6669921875 0.3330078125 l 1025
500 0.3330078125 m 1
 500 42 l 1
 541.666992188 42 l 1
 541.666992188 0.3330078125 l 1
 500 0.3330078125 l 1
EndSplineSet
EndChar

StartChar: N
Encoding: 78 78 47
Width: 583
Flags: HW
LayerCount: 2
Back
Fore
SplineSet
83.3330078125 667 m 1
 166.666992188 667 l 1
 166.666992188 708.666992188 l 1
 83.3330078125 708.666992188 l 1
 83.3330078125 667 l 1025
500 667 m 1
 541.666992188 667 l 1
 541.666992188 708.666992188 l 1
 500 708.666992188 l 1
 500 667 l 1025
83.3330078125 625.333007812 m 1
 208.333007812 625.333007812 l 1
 208.333007812 667 l 1
 83.3330078125 667 l 1
 83.3330078125 625.333007812 l 1025
500 625.333007812 m 1
 541.666992188 625.333007812 l 1
 541.666992188 667 l 1
 500 667 l 1
 500 625.333007812 l 1025
83.3330078125 583.666992188 m 1
 208.333007812 583.666992188 l 1
 208.333007812 625.333007812 l 1
 83.3330078125 625.333007812 l 1
 83.3330078125 583.666992188 l 1025
500 583.666992188 m 1
 541.666992188 583.666992188 l 1
 541.666992188 625.333007812 l 1
 500 625.333007812 l 1
 500 583.666992188 l 1025
83.3330078125 542 m 1
 250 542 l 1
 250 583.666992188 l 1
 83.3330078125 583.666992188 l 1
 83.3330078125 542 l 1025
500 542 m 1
 541.666992188 542 l 1
 541.666992188 583.666992188 l 1
 500 583.666992188 l 1
 500 542 l 1025
83.3330078125 500.333007812 m 1
 125 500.333007812 l 1
 125 542 l 1
 83.3330078125 542 l 1
 83.3330078125 500.333007812 l 1025
166.666992188 500.333007812 m 1
 250 500.333007812 l 1
 250 542 l 1
 166.666992188 542 l 1
 166.666992188 500.333007812 l 1025
500 500.333007812 m 1
 541.666992188 500.333007812 l 1
 541.666992188 542 l 1
 500 542 l 1
 500 500.333007812 l 1025
83.3330078125 458.666992188 m 1
 125 458.666992188 l 1
 125 500.333007812 l 1
 83.3330078125 500.333007812 l 1
 83.3330078125 458.666992188 l 1025
208.333007812 458.666992188 m 1
 291.666992188 458.666992188 l 1
 291.666992188 500.333007812 l 1
 208.333007812 500.333007812 l 1
 208.333007812 458.666992188 l 1025
500 458.666992188 m 1
 541.666992188 458.666992188 l 1
 541.666992188 500.333007812 l 1
 500 500.333007812 l 1
 500 458.666992188 l 1025
83.3330078125 417 m 1
 125 417 l 1
 125 458.666992188 l 1
 83.3330078125 458.666992188 l 1
 83.3330078125 417 l 1025
208.333007812 417 m 1
 291.666992188 417 l 1
 291.666992188 458.666992188 l 1
 208.333007812 458.666992188 l 1
 208.333007812 417 l 1025
500 417 m 1
 541.666992188 417 l 1
 541.666992188 458.666992188 l 1
 500 458.666992188 l 1
 500 417 l 1025
83.3330078125 375.333007812 m 1
 125 375.333007812 l 1
 125 417 l 1
 83.3330078125 417 l 1
 83.3330078125 375.333007812 l 1025
250 375.333007812 m 1
 333.333007812 375.333007812 l 1
 333.333007812 417 l 1
 250 417 l 1
 250 375.333007812 l 1025
500 375.333007812 m 1
 541.666992188 375.333007812 l 1
 541.666992188 417 l 1
 500 417 l 1
 500 375.333007812 l 1025
83.3330078125 333.666992188 m 1
 125 333.666992188 l 1
 125 375.333007812 l 1
 83.3330078125 375.333007812 l 1
 83.3330078125 333.666992188 l 1025
250 333.666992188 m 1
 375 333.666992188 l 1
 375 375.333007812 l 1
 250 375.333007812 l 1
 250 333.666992188 l 1025
500 333.666992188 m 1
 541.666992188 333.666992188 l 1
 541.666992188 375.333007812 l 1
 500 375.333007812 l 1
 500 333.666992188 l 1025
83.3330078125 292 m 1
 125 292 l 1
 125 333.666992188 l 1
 83.3330078125 333.666992188 l 1
 83.3330078125 292 l 1025
291.666992188 292 m 1
 375 292 l 1
 375 333.666992188 l 1
 291.666992188 333.666992188 l 1
 291.666992188 292 l 1025
500 292 m 1
 541.666992188 292 l 1
 541.666992188 333.666992188 l 1
 500 333.666992188 l 1
 500 292 l 1025
83.3330078125 250.333007812 m 1
 125 250.333007812 l 1
 125 292 l 1
 83.3330078125 292 l 1
 83.3330078125 250.333007812 l 1025
333.333007812 250.333007812 m 1
 416.666992188 250.333007812 l 1
 416.666992188 292 l 1
 333.333007812 292 l 1
 333.333007812 250.333007812 l 1025
500 250.333007812 m 1
 541.666992188 250.333007812 l 1
 541.666992188 292 l 1
 500 292 l 1
 500 250.333007812 l 1025
83.3330078125 208.666992188 m 1
 125 208.666992188 l 1
 125 250.333007812 l 1
 83.3330078125 250.333007812 l 1
 83.3330078125 208.666992188 l 1025
333.333007812 208.666992188 m 1
 416.666992188 208.666992188 l 1
 416.666992188 250.333007812 l 1
 333.333007812 250.333007812 l 1
 333.333007812 208.666992188 l 1025
500 208.666992188 m 1
 541.666992188 208.666992188 l 1
 541.666992188 250.333007812 l 1
 500 250.333007812 l 1
 500 208.666992188 l 1025
83.3330078125 167 m 1
 125 167 l 1
 125 208.666992188 l 1
 83.3330078125 208.666992188 l 1
 83.3330078125 167 l 1025
375 167 m 1
 458.333007812 167 l 1
 458.333007812 208.666992188 l 1
 375 208.666992188 l 1
 375 167 l 1025
500 167 m 1
 541.666992188 167 l 1
 541.666992188 208.666992188 l 1
 500 208.666992188 l 1
 500 167 l 1025
83.3330078125 125.333007812 m 1
 125 125.333007812 l 1
 125 167 l 1
 83.3330078125 167 l 1
 83.3330078125 125.333007812 l 1025
375 125.333007812 m 1
 541.666992188 125.333007812 l 1
 541.666992188 167 l 1
 375 167 l 1
 375 125.333007812 l 1025
83.3330078125 83.6669921875 m 1
 125 83.6669921875 l 1
 125 125.333007812 l 1
 83.3330078125 125.333007812 l 1
 83.3330078125 83.6669921875 l 1025
416.666992188 83.6669921875 m 1
 541.666992188 83.6669921875 l 1
 541.666992188 125.333007812 l 1
 416.666992188 125.333007812 l 1
 416.666992188 83.6669921875 l 1025
83.3330078125 42 m 1
 125 42 l 1
 125 83.6669921875 l 1
 83.3330078125 83.6669921875 l 1
 83.3330078125 42 l 1025
458.333007812 42 m 1
 541.666992188 42 l 1
 541.666992188 83.6669921875 l 1
 458.333007812 83.6669921875 l 1
 458.333007812 42 l 1025
83.3330078125 0.3330078125 m 1
 125 0.3330078125 l 1
 125 42 l 1
 83.3330078125 42 l 1
 83.3330078125 0.3330078125 l 1025
458.333007812 0.3330078125 m 1
 458.333007812 42 l 1
 541.666992188 42 l 1
 541.666992188 0.3330078125 l 1
 458.333007812 0.3330078125 l 1
EndSplineSet
EndChar

StartChar: O
Encoding: 79 79 48
Width: 583
Flags: HW
LayerCount: 2
Back
Fore
SplineSet
208.333007812 667 m 1
 416.666992188 667 l 1
 416.666992188 708.666992188 l 1
 208.333007812 708.666992188 l 1
 208.333007812 667 l 1025
125 625.333007812 m 1
 250 625.333007812 l 1
 250 667 l 1
 125 667 l 1
 125 625.333007812 l 1025
375 625.333007812 m 1
 500 625.333007812 l 1
 500 667 l 1
 375 667 l 1
 375 625.333007812 l 1025
125 583.666992188 m 1
 208.333007812 583.666992188 l 1
 208.333007812 625.333007812 l 1
 125 625.333007812 l 1
 125 583.666992188 l 1025
416.666992188 583.666992188 m 1
 500 583.666992188 l 1
 500 625.333007812 l 1
 416.666992188 625.333007812 l 1
 416.666992188 583.666992188 l 1025
83.3330078125 542 m 1
 166.666992188 542 l 1
 166.666992188 583.666992188 l 1
 83.3330078125 583.666992188 l 1
 83.3330078125 542 l 1025
458.333007812 542 m 1
 541.666992188 542 l 1
 541.666992188 583.666992188 l 1
 458.333007812 583.666992188 l 1
 458.333007812 542 l 1025
83.3330078125 500.333007812 m 1
 166.666992188 500.333007812 l 1
 166.666992188 542 l 1
 83.3330078125 542 l 1
 83.3330078125 500.333007812 l 1025
458.333007812 500.333007812 m 1
 541.666992188 500.333007812 l 1
 541.666992188 542 l 1
 458.333007812 542 l 1
 458.333007812 500.333007812 l 1025
41.6669921875 458.666992188 m 1
 125 458.666992188 l 1
 125 500.333007812 l 1
 41.6669921875 500.333007812 l 1
 41.6669921875 458.666992188 l 1025
500 458.666992188 m 1
 583.333007812 458.666992188 l 1
 583.333007812 500.333007812 l 1
 500 500.333007812 l 1
 500 458.666992188 l 1025
41.6669921875 417 m 1
 125 417 l 1
 125 458.666992188 l 1
 41.6669921875 458.666992188 l 1
 41.6669921875 417 l 1025
500 417 m 1
 583.333007812 417 l 1
 583.333007812 458.666992188 l 1
 500 458.666992188 l 1
 500 417 l 1025
41.6669921875 375.333007812 m 1
 125 375.333007812 l 1
 125 417 l 1
 41.6669921875 417 l 1
 41.6669921875 375.333007812 l 1025
500 375.333007812 m 1
 583.333007812 375.333007812 l 1
 583.333007812 417 l 1
 500 417 l 1
 500 375.333007812 l 1025
41.6669921875 333.666992188 m 1
 125 333.666992188 l 1
 125 375.333007812 l 1
 41.6669921875 375.333007812 l 1
 41.6669921875 333.666992188 l 1025
500 333.666992188 m 1
 583.333007812 333.666992188 l 1
 583.333007812 375.333007812 l 1
 500 375.333007812 l 1
 500 333.666992188 l 1025
41.6669921875 292 m 1
 125 292 l 1
 125 333.666992188 l 1
 41.6669921875 333.666992188 l 1
 41.6669921875 292 l 1025
500 292 m 1
 583.333007812 292 l 1
 583.333007812 333.666992188 l 1
 500 333.666992188 l 1
 500 292 l 1025
41.6669921875 250.333007812 m 1
 125 250.333007812 l 1
 125 292 l 1
 41.6669921875 292 l 1
 41.6669921875 250.333007812 l 1025
500 250.333007812 m 1
 583.333007812 250.333007812 l 1
 583.333007812 292 l 1
 500 292 l 1
 500 250.333007812 l 1025
41.6669921875 208.666992188 m 1
 125 208.666992188 l 1
 125 250.333007812 l 1
 41.6669921875 250.333007812 l 1
 41.6669921875 208.666992188 l 1025
500 208.666992188 m 1
 583.333007812 208.666992188 l 1
 583.333007812 250.333007812 l 1
 500 250.333007812 l 1
 500 208.666992188 l 1025
83.3330078125 167 m 1
 166.666992188 167 l 1
 166.666992188 208.666992188 l 1
 83.3330078125 208.666992188 l 1
 83.3330078125 167 l 1025
458.333007812 167 m 1
 541.666992188 167 l 1
 541.666992188 208.666992188 l 1
 458.333007812 208.666992188 l 1
 458.333007812 167 l 1025
83.3330078125 125.333007812 m 1
 166.666992188 125.333007812 l 1
 166.666992188 167 l 1
 83.3330078125 167 l 1
 83.3330078125 125.333007812 l 1025
458.333007812 125.333007812 m 1
 541.666992188 125.333007812 l 1
 541.666992188 167 l 1
 458.333007812 167 l 1
 458.333007812 125.333007812 l 1025
125 83.6669921875 m 1
 208.333007812 83.6669921875 l 1
 208.333007812 125.333007812 l 1
 125 125.333007812 l 1
 125 83.6669921875 l 1025
416.666992188 83.6669921875 m 1
 500 83.6669921875 l 1
 500 125.333007812 l 1
 416.666992188 125.333007812 l 1
 416.666992188 83.6669921875 l 1025
125 42 m 1
 250 42 l 1
 250 83.6669921875 l 1
 125 83.6669921875 l 1
 125 42 l 1025
375 42 m 1
 500 42 l 1
 500 83.6669921875 l 1
 375 83.6669921875 l 1
 375 42 l 1025
208.333007812 0.3330078125 m 1
 208.333007812 42 l 1
 416.666992188 42 l 1
 416.666992188 0.3330078125 l 1
 208.333007812 0.3330078125 l 1
EndSplineSet
EndChar

StartChar: P
Encoding: 80 80 49
Width: 583
Flags: HW
LayerCount: 2
Back
Fore
SplineSet
125 667 m 1
 500 667 l 1
 500 708.666992188 l 1
 125 708.666992188 l 1
 125 667 l 1025
125 625.333007812 m 1
 208.333007812 625.333007812 l 1
 208.333007812 667 l 1
 125 667 l 1
 125 625.333007812 l 1025
458.333007812 625.333007812 m 1
 541.666992188 625.333007812 l 1
 541.666992188 667 l 1
 458.333007812 667 l 1
 458.333007812 625.333007812 l 1025
125 583.666992188 m 1
 208.333007812 583.666992188 l 1
 208.333007812 625.333007812 l 1
 125 625.333007812 l 1
 125 583.666992188 l 1025
500 583.666992188 m 1
 583.333007812 583.666992188 l 1
 583.333007812 625.333007812 l 1
 500 625.333007812 l 1
 500 583.666992188 l 1025
125 542 m 1
 208.333007812 542 l 1
 208.333007812 583.666992188 l 1
 125 583.666992188 l 1
 125 542 l 1025
500 542 m 1
 583.333007812 542 l 1
 583.333007812 583.666992188 l 1
 500 583.666992188 l 1
 500 542 l 1025
125 500.333007812 m 1
 208.333007812 500.333007812 l 1
 208.333007812 542 l 1
 125 542 l 1
 125 500.333007812 l 1025
500 500.333007812 m 1
 583.333007812 500.333007812 l 1
 583.333007812 542 l 1
 500 542 l 1
 500 500.333007812 l 1025
125 458.666992188 m 1
 208.333007812 458.666992188 l 1
 208.333007812 500.333007812 l 1
 125 500.333007812 l 1
 125 458.666992188 l 1025
500 458.666992188 m 1
 583.333007812 458.666992188 l 1
 583.333007812 500.333007812 l 1
 500 500.333007812 l 1
 500 458.666992188 l 1025
125 417 m 1
 208.333007812 417 l 1
 208.333007812 458.666992188 l 1
 125 458.666992188 l 1
 125 417 l 1025
500 417 m 1
 583.333007812 417 l 1
 583.333007812 458.666992188 l 1
 500 458.666992188 l 1
 500 417 l 1025
125 375.333007812 m 1
 208.333007812 375.333007812 l 1
 208.333007812 417 l 1
 125 417 l 1
 125 375.333007812 l 1025
458.333007812 375.333007812 m 1
 541.666992188 375.333007812 l 1
 541.666992188 417 l 1
 458.333007812 417 l 1
 458.333007812 375.333007812 l 1025
125 333.666992188 m 1
 208.333007812 333.666992188 l 1
 208.333007812 375.333007812 l 1
 125 375.333007812 l 1
 125 333.666992188 l 1025
416.666992188 333.666992188 m 1
 500 333.666992188 l 1
 500 375.333007812 l 1
 416.666992188 375.333007812 l 1
 416.666992188 333.666992188 l 1025
125 292 m 1
 416.666992188 292 l 1
 416.666992188 333.666992188 l 1
 125 333.666992188 l 1
 125 292 l 1025
125 250.333007812 m 1
 208.333007812 250.333007812 l 1
 208.333007812 292 l 1
 125 292 l 1
 125 250.333007812 l 1025
125 208.666992188 m 1
 208.333007812 208.666992188 l 1
 208.333007812 250.333007812 l 1
 125 250.333007812 l 1
 125 208.666992188 l 1025
125 167 m 1
 208.333007812 167 l 1
 208.333007812 208.666992188 l 1
 125 208.666992188 l 1
 125 167 l 1025
125 125.333007812 m 1
 208.333007812 125.333007812 l 1
 208.333007812 167 l 1
 125 167 l 1
 125 125.333007812 l 1025
125 83.6669921875 m 1
 208.333007812 83.6669921875 l 1
 208.333007812 125.333007812 l 1
 125 125.333007812 l 1
 125 83.6669921875 l 1025
125 42 m 1
 208.333007812 42 l 1
 208.333007812 83.6669921875 l 1
 125 83.6669921875 l 1
 125 42 l 1025
125 0.3330078125 m 1
 125 42 l 1
 208.333007812 42 l 1
 208.333007812 0.3330078125 l 1
 125 0.3330078125 l 1
EndSplineSet
EndChar

StartChar: Q
Encoding: 81 81 50
Width: 583
Flags: HW
LayerCount: 2
Back
Fore
SplineSet
208.333007812 667 m 1
 416.666992188 667 l 1
 416.666992188 708.666992188 l 1
 208.333007812 708.666992188 l 1
 208.333007812 667 l 1025
125 625.333007812 m 1
 250 625.333007812 l 1
 250 667 l 1
 125 667 l 1
 125 625.333007812 l 1025
375 625.333007812 m 1
 458.333007812 625.333007812 l 1
 458.333007812 667 l 1
 375 667 l 1
 375 625.333007812 l 1025
125 583.666992188 m 1
 208.333007812 583.666992188 l 1
 208.333007812 625.333007812 l 1
 125 625.333007812 l 1
 125 583.666992188 l 1025
416.666992188 583.666992188 m 1
 500 583.666992188 l 1
 500 625.333007812 l 1
 416.666992188 625.333007812 l 1
 416.666992188 583.666992188 l 1025
83.3330078125 542 m 1
 166.666992188 542 l 1
 166.666992188 583.666992188 l 1
 83.3330078125 583.666992188 l 1
 83.3330078125 542 l 1025
458.333007812 542 m 1
 541.666992188 542 l 1
 541.666992188 583.666992188 l 1
 458.333007812 583.666992188 l 1
 458.333007812 542 l 1025
83.3330078125 500.333007812 m 1
 166.666992188 500.333007812 l 1
 166.666992188 542 l 1
 83.3330078125 542 l 1
 83.3330078125 500.333007812 l 1025
458.333007812 500.333007812 m 1
 541.666992188 500.333007812 l 1
 541.666992188 542 l 1
 458.333007812 542 l 1
 458.333007812 500.333007812 l 1025
41.6669921875 458.666992188 m 1
 125 458.666992188 l 1
 125 500.333007812 l 1
 41.6669921875 500.333007812 l 1
 41.6669921875 458.666992188 l 1025
500 458.666992188 m 1
 583.333007812 458.666992188 l 1
 583.333007812 500.333007812 l 1
 500 500.333007812 l 1
 500 458.666992188 l 1025
41.6669921875 417 m 1
 125 417 l 1
 125 458.666992188 l 1
 41.6669921875 458.666992188 l 1
 41.6669921875 417 l 1025
500 417 m 1
 583.333007812 417 l 1
 583.333007812 458.666992188 l 1
 500 458.666992188 l 1
 500 417 l 1025
41.6669921875 375.333007812 m 1
 125 375.333007812 l 1
 125 417 l 1
 41.6669921875 417 l 1
 41.6669921875 375.333007812 l 1025
500 375.333007812 m 1
 583.333007812 375.333007812 l 1
 583.333007812 417 l 1
 500 417 l 1
 500 375.333007812 l 1025
41.6669921875 333.666992188 m 1
 125 333.666992188 l 1
 125 375.333007812 l 1
 41.6669921875 375.333007812 l 1
 41.6669921875 333.666992188 l 1025
500 333.666992188 m 1
 583.333007812 333.666992188 l 1
 583.333007812 375.333007812 l 1
 500 375.333007812 l 1
 500 333.666992188 l 1025
41.6669921875 292 m 1
 125 292 l 1
 125 333.666992188 l 1
 41.6669921875 333.666992188 l 1
 41.6669921875 292 l 1025
500 292 m 1
 583.333007812 292 l 1
 583.333007812 333.666992188 l 1
 500 333.666992188 l 1
 500 292 l 1025
41.6669921875 250.333007812 m 1
 125 250.333007812 l 1
 125 292 l 1
 41.6669921875 292 l 1
 41.6669921875 250.333007812 l 1025
500 250.333007812 m 1
 583.333007812 250.333007812 l 1
 583.333007812 292 l 1
 500 292 l 1
 500 250.333007812 l 1025
41.6669921875 208.666992188 m 1
 125 208.666992188 l 1
 125 250.333007812 l 1
 41.6669921875 250.333007812 l 1
 41.6669921875 208.666992188 l 1025
500 208.666992188 m 1
 583.333007812 208.666992188 l 1
 583.333007812 250.333007812 l 1
 500 250.333007812 l 1
 500 208.666992188 l 1025
83.3330078125 167 m 1
 166.666992188 167 l 1
 166.666992188 208.666992188 l 1
 83.3330078125 208.666992188 l 1
 83.3330078125 167 l 1025
458.333007812 167 m 1
 583.333007812 167 l 1
 583.333007812 208.666992188 l 1
 458.333007812 208.666992188 l 1
 458.333007812 167 l 1025
83.3330078125 125.333007812 m 1
 166.666992188 125.333007812 l 1
 166.666992188 167 l 1
 83.3330078125 167 l 1
 83.3330078125 125.333007812 l 1025
458.333007812 125.333007812 m 1
 541.666992188 125.333007812 l 1
 541.666992188 167 l 1
 458.333007812 167 l 1
 458.333007812 125.333007812 l 1025
125 83.6669921875 m 1
 208.333007812 83.6669921875 l 1
 208.333007812 125.333007812 l 1
 125 125.333007812 l 1
 125 83.6669921875 l 1025
416.666992188 83.6669921875 m 1
 541.666992188 83.6669921875 l 1
 541.666992188 125.333007812 l 1
 416.666992188 125.333007812 l 1
 416.666992188 83.6669921875 l 1025
125 42 m 1
 250 42 l 1
 250 83.6669921875 l 1
 125 83.6669921875 l 1
 125 42 l 1025
375 42 m 1
 500 42 l 1
 500 83.6669921875 l 1
 375 83.6669921875 l 1
 375 42 l 1025
208.333007812 0.3330078125 m 1
 500 0.3330078125 l 1
 500 42 l 1
 208.333007812 42 l 1
 208.333007812 0.3330078125 l 1025
375 -41.3330078125 m 1
 458.333007812 -41.3330078125 l 1
 458.333007812 0.3330078125 l 1
 375 0.3330078125 l 1
 375 -41.3330078125 l 1025
416.666992188 -83 m 1
 541.666992188 -83 l 1
 541.666992188 -41.3330078125 l 1
 416.666992188 -41.3330078125 l 1
 416.666992188 -83 l 1025
458.333007812 -124.666992188 m 1
 625 -124.666992188 l 1
 625 -83 l 1
 458.333007812 -83 l 1
 458.333007812 -124.666992188 l 1025
500 -166.333007812 m 1
 500 -124.666992188 l 1
 583.333007812 -124.666992188 l 1
 583.333007812 -166.333007812 l 1
 500 -166.333007812 l 1
EndSplineSet
EndChar

StartChar: R
Encoding: 82 82 51
Width: 583
Flags: HW
LayerCount: 2
Back
Fore
SplineSet
83.3330078125 667 m 1
 416.666992188 667 l 1
 416.666992188 708.666992188 l 1
 83.3330078125 708.666992188 l 1
 83.3330078125 667 l 1025
83.3330078125 625.333007812 m 1
 166.666992188 625.333007812 l 1
 166.666992188 667 l 1
 83.3330078125 667 l 1
 83.3330078125 625.333007812 l 1025
375 625.333007812 m 1
 458.333007812 625.333007812 l 1
 458.333007812 667 l 1
 375 667 l 1
 375 625.333007812 l 1025
83.3330078125 583.666992188 m 1
 166.666992188 583.666992188 l 1
 166.666992188 625.333007812 l 1
 83.3330078125 625.333007812 l 1
 83.3330078125 583.666992188 l 1025
416.666992188 583.666992188 m 1
 500 583.666992188 l 1
 500 625.333007812 l 1
 416.666992188 625.333007812 l 1
 416.666992188 583.666992188 l 1025
83.3330078125 542 m 1
 166.666992188 542 l 1
 166.666992188 583.666992188 l 1
 83.3330078125 583.666992188 l 1
 83.3330078125 542 l 1025
416.666992188 542 m 1
 500 542 l 1
 500 583.666992188 l 1
 416.666992188 583.666992188 l 1
 416.666992188 542 l 1025
83.3330078125 500.333007812 m 1
 166.666992188 500.333007812 l 1
 166.666992188 542 l 1
 83.3330078125 542 l 1
 83.3330078125 500.333007812 l 1025
416.666992188 500.333007812 m 1
 500 500.333007812 l 1
 500 542 l 1
 416.666992188 542 l 1
 416.666992188 500.333007812 l 1025
83.3330078125 458.666992188 m 1
 166.666992188 458.666992188 l 1
 166.666992188 500.333007812 l 1
 83.3330078125 500.333007812 l 1
 83.3330078125 458.666992188 l 1025
416.666992188 458.666992188 m 1
 500 458.666992188 l 1
 500 500.333007812 l 1
 416.666992188 500.333007812 l 1
 416.666992188 458.666992188 l 1025
83.3330078125 417 m 1
 166.666992188 417 l 1
 166.666992188 458.666992188 l 1
 83.3330078125 458.666992188 l 1
 83.3330078125 417 l 1025
375 417 m 1
 500 417 l 1
 500 458.666992188 l 1
 375 458.666992188 l 1
 375 417 l 1025
83.3330078125 375.333007812 m 1
 166.666992188 375.333007812 l 1
 166.666992188 417 l 1
 83.3330078125 417 l 1
 83.3330078125 375.333007812 l 1025
333.333007812 375.333007812 m 1
 458.333007812 375.333007812 l 1
 458.333007812 417 l 1
 333.333007812 417 l 1
 333.333007812 375.333007812 l 1025
83.3330078125 333.666992188 m 1
 416.666992188 333.666992188 l 1
 416.666992188 375.333007812 l 1
 83.3330078125 375.333007812 l 1
 83.3330078125 333.666992188 l 1025
83.3330078125 292 m 1
 166.666992188 292 l 1
 166.666992188 333.666992188 l 1
 83.3330078125 333.666992188 l 1
 83.3330078125 292 l 1025
291.666992188 292 m 1
 375 292 l 1
 375 333.666992188 l 1
 291.666992188 333.666992188 l 1
 291.666992188 292 l 1025
83.3330078125 250.333007812 m 1
 166.666992188 250.333007812 l 1
 166.666992188 292 l 1
 83.3330078125 292 l 1
 83.3330078125 250.333007812 l 1025
291.666992188 250.333007812 m 1
 416.666992188 250.333007812 l 1
 416.666992188 292 l 1
 291.666992188 292 l 1
 291.666992188 250.333007812 l 1025
83.3330078125 208.666992188 m 1
 166.666992188 208.666992188 l 1
 166.666992188 250.333007812 l 1
 83.3330078125 250.333007812 l 1
 83.3330078125 208.666992188 l 1025
333.333007812 208.666992188 m 1
 416.666992188 208.666992188 l 1
 416.666992188 250.333007812 l 1
 333.333007812 250.333007812 l 1
 333.333007812 208.666992188 l 1025
83.3330078125 167 m 1
 166.666992188 167 l 1
 166.666992188 208.666992188 l 1
 83.3330078125 208.666992188 l 1
 83.3330078125 167 l 1025
375 167 m 1
 458.333007812 167 l 1
 458.333007812 208.666992188 l 1
 375 208.666992188 l 1
 375 167 l 1025
83.3330078125 125.333007812 m 1
 166.666992188 125.333007812 l 1
 166.666992188 167 l 1
 83.3330078125 167 l 1
 83.3330078125 125.333007812 l 1025
375 125.333007812 m 1
 500 125.333007812 l 1
 500 167 l 1
 375 167 l 1
 375 125.333007812 l 1025
83.3330078125 83.6669921875 m 1
 166.666992188 83.6669921875 l 1
 166.666992188 125.333007812 l 1
 83.3330078125 125.333007812 l 1
 83.3330078125 83.6669921875 l 1025
416.666992188 83.6669921875 m 1
 500 83.6669921875 l 1
 500 125.333007812 l 1
 416.666992188 125.333007812 l 1
 416.666992188 83.6669921875 l 1025
83.3330078125 42 m 1
 166.666992188 42 l 1
 166.666992188 83.6669921875 l 1
 83.3330078125 83.6669921875 l 1
 83.3330078125 42 l 1025
416.666992188 42 m 1
 541.666992188 42 l 1
 541.666992188 83.6669921875 l 1
 416.666992188 83.6669921875 l 1
 416.666992188 42 l 1025
83.3330078125 0.3330078125 m 1
 166.666992188 0.3330078125 l 1
 166.666992188 42 l 1
 83.3330078125 42 l 1
 83.3330078125 0.3330078125 l 1025
458.333007812 0.3330078125 m 1
 458.333007812 42 l 1
 583.333007812 42 l 1
 583.333007812 0.3330078125 l 1
 458.333007812 0.3330078125 l 1
EndSplineSet
EndChar

StartChar: S
Encoding: 83 83 52
Width: 583
Flags: HW
LayerCount: 2
Back
Fore
SplineSet
208.333007812 667 m 1
 500 667 l 1
 500 708.666992188 l 1
 208.333007812 708.666992188 l 1
 208.333007812 667 l 1025
125 625.333007812 m 1
 208.333007812 625.333007812 l 1
 208.333007812 667 l 1
 125 667 l 1
 125 625.333007812 l 1025
458.333007812 625.333007812 m 1
 500 625.333007812 l 1
 500 667 l 1
 458.333007812 667 l 1
 458.333007812 625.333007812 l 1025
83.3330078125 583.666992188 m 1
 166.666992188 583.666992188 l 1
 166.666992188 625.333007812 l 1
 83.3330078125 625.333007812 l 1
 83.3330078125 583.666992188 l 1025
83.3330078125 542 m 1
 166.666992188 542 l 1
 166.666992188 583.666992188 l 1
 83.3330078125 583.666992188 l 1
 83.3330078125 542 l 1025
83.3330078125 500.333007812 m 1
 166.666992188 500.333007812 l 1
 166.666992188 542 l 1
 83.3330078125 542 l 1
 83.3330078125 500.333007812 l 1025
83.3330078125 458.666992188 m 1
 208.333007812 458.666992188 l 1
 208.333007812 500.333007812 l 1
 83.3330078125 500.333007812 l 1
 83.3330078125 458.666992188 l 1025
125 417 m 1
 250 417 l 1
 250 458.666992188 l 1
 125 458.666992188 l 1
 125 417 l 1025
166.666992188 375.333007812 m 1
 333.333007812 375.333007812 l 1
 333.333007812 417 l 1
 166.666992188 417 l 1
 166.666992188 375.333007812 l 1025
250 333.666992188 m 1
 416.666992188 333.666992188 l 1
 416.666992188 375.333007812 l 1
 250 375.333007812 l 1
 250 333.666992188 l 1025
333.333007812 292 m 1
 500 292 l 1
 500 333.666992188 l 1
 333.333007812 333.666992188 l 1
 333.333007812 292 l 1025
416.666992188 250.333007812 m 1
 541.666992188 250.333007812 l 1
 541.666992188 292 l 1
 416.666992188 292 l 1
 416.666992188 250.333007812 l 1025
458.333007812 208.666992188 m 1
 541.666992188 208.666992188 l 1
 541.666992188 250.333007812 l 1
 458.333007812 250.333007812 l 1
 458.333007812 208.666992188 l 1025
458.333007812 167 m 1
 541.666992188 167 l 1
 541.666992188 208.666992188 l 1
 458.333007812 208.666992188 l 1
 458.333007812 167 l 1025
458.333007812 125.333007812 m 1
 541.666992188 125.333007812 l 1
 541.666992188 167 l 1
 458.333007812 167 l 1
 458.333007812 125.333007812 l 1025
458.333007812 83.6669921875 m 1
 500 83.6669921875 l 1
 500 125.333007812 l 1
 458.333007812 125.333007812 l 1
 458.333007812 83.6669921875 l 1025
83.3330078125 42 m 1
 125 42 l 1
 125 83.6669921875 l 1
 83.3330078125 83.6669921875 l 1
 83.3330078125 42 l 1025
416.666992188 42 m 1
 500 42 l 1
 500 83.6669921875 l 1
 416.666992188 83.6669921875 l 1
 416.666992188 42 l 1025
125 0.3330078125 m 1
 125 42 l 1
 416.666992188 42 l 1
 416.666992188 0.3330078125 l 1
 125 0.3330078125 l 1
EndSplineSet
EndChar

StartChar: T
Encoding: 84 84 53
Width: 583
Flags: HW
LayerCount: 2
Back
Fore
SplineSet
0 667 m 1
 583.333007812 667 l 1
 583.333007812 708.666992188 l 1
 0 708.666992188 l 1
 0 667 l 1025
250 625.333007812 m 1
 333.333007812 625.333007812 l 1
 333.333007812 667 l 1
 250 667 l 1
 250 625.333007812 l 1025
250 583.666992188 m 1
 333.333007812 583.666992188 l 1
 333.333007812 625.333007812 l 1
 250 625.333007812 l 1
 250 583.666992188 l 1025
250 542 m 1
 333.333007812 542 l 1
 333.333007812 583.666992188 l 1
 250 583.666992188 l 1
 250 542 l 1025
250 500.333007812 m 1
 333.333007812 500.333007812 l 1
 333.333007812 542 l 1
 250 542 l 1
 250 500.333007812 l 1025
250 458.666992188 m 1
 333.333007812 458.666992188 l 1
 333.333007812 500.333007812 l 1
 250 500.333007812 l 1
 250 458.666992188 l 1025
250 417 m 1
 333.333007812 417 l 1
 333.333007812 458.666992188 l 1
 250 458.666992188 l 1
 250 417 l 1025
250 375.333007812 m 1
 333.333007812 375.333007812 l 1
 333.333007812 417 l 1
 250 417 l 1
 250 375.333007812 l 1025
250 333.666992188 m 1
 333.333007812 333.666992188 l 1
 333.333007812 375.333007812 l 1
 250 375.333007812 l 1
 250 333.666992188 l 1025
250 292 m 1
 333.333007812 292 l 1
 333.333007812 333.666992188 l 1
 250 333.666992188 l 1
 250 292 l 1025
250 250.333007812 m 1
 333.333007812 250.333007812 l 1
 333.333007812 292 l 1
 250 292 l 1
 250 250.333007812 l 1025
250 208.666992188 m 1
 333.333007812 208.666992188 l 1
 333.333007812 250.333007812 l 1
 250 250.333007812 l 1
 250 208.666992188 l 1025
250 167 m 1
 333.333007812 167 l 1
 333.333007812 208.666992188 l 1
 250 208.666992188 l 1
 250 167 l 1025
250 125.333007812 m 1
 333.333007812 125.333007812 l 1
 333.333007812 167 l 1
 250 167 l 1
 250 125.333007812 l 1025
250 83.6669921875 m 1
 333.333007812 83.6669921875 l 1
 333.333007812 125.333007812 l 1
 250 125.333007812 l 1
 250 83.6669921875 l 1025
250 42 m 1
 333.333007812 42 l 1
 333.333007812 83.6669921875 l 1
 250 83.6669921875 l 1
 250 42 l 1025
250 0.3330078125 m 1
 250 42 l 1
 333.333007812 42 l 1
 333.333007812 0.3330078125 l 1
 250 0.3330078125 l 1
EndSplineSet
EndChar

StartChar: U
Encoding: 85 85 54
Width: 583
Flags: HW
LayerCount: 2
Back
Fore
SplineSet
83.3330078125 667 m 1
 166.666992188 667 l 1
 166.666992188 708.666992188 l 1
 83.3330078125 708.666992188 l 1
 83.3330078125 667 l 1025
500 667 m 1
 541.666992188 667 l 1
 541.666992188 708.666992188 l 1
 500 708.666992188 l 1
 500 667 l 1025
83.3330078125 625.333007812 m 1
 166.666992188 625.333007812 l 1
 166.666992188 667 l 1
 83.3330078125 667 l 1
 83.3330078125 625.333007812 l 1025
500 625.333007812 m 1
 541.666992188 625.333007812 l 1
 541.666992188 667 l 1
 500 667 l 1
 500 625.333007812 l 1025
83.3330078125 583.666992188 m 1
 166.666992188 583.666992188 l 1
 166.666992188 625.333007812 l 1
 83.3330078125 625.333007812 l 1
 83.3330078125 583.666992188 l 1025
500 583.666992188 m 1
 541.666992188 583.666992188 l 1
 541.666992188 625.333007812 l 1
 500 625.333007812 l 1
 500 583.666992188 l 1025
83.3330078125 542 m 1
 166.666992188 542 l 1
 166.666992188 583.666992188 l 1
 83.3330078125 583.666992188 l 1
 83.3330078125 542 l 1025
500 542 m 1
 541.666992188 542 l 1
 541.666992188 583.666992188 l 1
 500 583.666992188 l 1
 500 542 l 1025
83.3330078125 500.333007812 m 1
 166.666992188 500.333007812 l 1
 166.666992188 542 l 1
 83.3330078125 542 l 1
 83.3330078125 500.333007812 l 1025
500 500.333007812 m 1
 541.666992188 500.333007812 l 1
 541.666992188 542 l 1
 500 542 l 1
 500 500.333007812 l 1025
83.3330078125 458.666992188 m 1
 166.666992188 458.666992188 l 1
 166.666992188 500.333007812 l 1
 83.3330078125 500.333007812 l 1
 83.3330078125 458.666992188 l 1025
500 458.666992188 m 1
 541.666992188 458.666992188 l 1
 541.666992188 500.333007812 l 1
 500 500.333007812 l 1
 500 458.666992188 l 1025
83.3330078125 417 m 1
 166.666992188 417 l 1
 166.666992188 458.666992188 l 1
 83.3330078125 458.666992188 l 1
 83.3330078125 417 l 1025
500 417 m 1
 541.666992188 417 l 1
 541.666992188 458.666992188 l 1
 500 458.666992188 l 1
 500 417 l 1025
83.3330078125 375.333007812 m 1
 166.666992188 375.333007812 l 1
 166.666992188 417 l 1
 83.3330078125 417 l 1
 83.3330078125 375.333007812 l 1025
500 375.333007812 m 1
 541.666992188 375.333007812 l 1
 541.666992188 417 l 1
 500 417 l 1
 500 375.333007812 l 1025
83.3330078125 333.666992188 m 1
 166.666992188 333.666992188 l 1
 166.666992188 375.333007812 l 1
 83.3330078125 375.333007812 l 1
 83.3330078125 333.666992188 l 1025
500 333.666992188 m 1
 541.666992188 333.666992188 l 1
 541.666992188 375.333007812 l 1
 500 375.333007812 l 1
 500 333.666992188 l 1025
83.3330078125 292 m 1
 166.666992188 292 l 1
 166.666992188 333.666992188 l 1
 83.3330078125 333.666992188 l 1
 83.3330078125 292 l 1025
500 292 m 1
 541.666992188 292 l 1
 541.666992188 333.666992188 l 1
 500 333.666992188 l 1
 500 292 l 1025
83.3330078125 250.333007812 m 1
 166.666992188 250.333007812 l 1
 166.666992188 292 l 1
 83.3330078125 292 l 1
 83.3330078125 250.333007812 l 1025
500 250.333007812 m 1
 541.666992188 250.333007812 l 1
 541.666992188 292 l 1
 500 292 l 1
 500 250.333007812 l 1025
83.3330078125 208.666992188 m 1
 166.666992188 208.666992188 l 1
 166.666992188 250.333007812 l 1
 83.3330078125 250.333007812 l 1
 83.3330078125 208.666992188 l 1025
500 208.666992188 m 1
 541.666992188 208.666992188 l 1
 541.666992188 250.333007812 l 1
 500 250.333007812 l 1
 500 208.666992188 l 1025
83.3330078125 167 m 1
 166.666992188 167 l 1
 166.666992188 208.666992188 l 1
 83.3330078125 208.666992188 l 1
 83.3330078125 167 l 1025
500 167 m 1
 541.666992188 167 l 1
 541.666992188 208.666992188 l 1
 500 208.666992188 l 1
 500 167 l 1025
83.3330078125 125.333007812 m 1
 166.666992188 125.333007812 l 1
 166.666992188 167 l 1
 83.3330078125 167 l 1
 83.3330078125 125.333007812 l 1025
500 125.333007812 m 1
 541.666992188 125.333007812 l 1
 541.666992188 167 l 1
 500 167 l 1
 500 125.333007812 l 1025
125 83.6669921875 m 1
 166.666992188 83.6669921875 l 1
 166.666992188 125.333007812 l 1
 125 125.333007812 l 1
 125 83.6669921875 l 1025
458.333007812 83.6669921875 m 1
 500 83.6669921875 l 1
 500 125.333007812 l 1
 458.333007812 125.333007812 l 1
 458.333007812 83.6669921875 l 1025
125 42 m 1
 208.333007812 42 l 1
 208.333007812 83.6669921875 l 1
 125 83.6669921875 l 1
 125 42 l 1025
416.666992188 42 m 1
 500 42 l 1
 500 83.6669921875 l 1
 416.666992188 83.6669921875 l 1
 416.666992188 42 l 1025
166.666992188 0.3330078125 m 1
 166.666992188 42 l 1
 458.333007812 42 l 1
 458.333007812 0.3330078125 l 1
 166.666992188 0.3330078125 l 1
EndSplineSet
EndChar

StartChar: V
Encoding: 86 86 55
Width: 583
Flags: HW
LayerCount: 2
Back
Fore
SplineSet
0 667 m 1
 83.3330078125 667 l 1
 83.3330078125 708.666992188 l 1
 0 708.666992188 l 1
 0 667 l 1025
500 667 m 1
 583.333007812 667 l 1
 583.333007812 708.666992188 l 1
 500 708.666992188 l 1
 500 667 l 1025
41.6669921875 625.333007812 m 1
 125 625.333007812 l 1
 125 667 l 1
 41.6669921875 667 l 1
 41.6669921875 625.333007812 l 1025
500 625.333007812 m 1
 541.666992188 625.333007812 l 1
 541.666992188 667 l 1
 500 667 l 1
 500 625.333007812 l 1025
41.6669921875 583.666992188 m 1
 125 583.666992188 l 1
 125 625.333007812 l 1
 41.6669921875 625.333007812 l 1
 41.6669921875 583.666992188 l 1025
500 583.666992188 m 1
 541.666992188 583.666992188 l 1
 541.666992188 625.333007812 l 1
 500 625.333007812 l 1
 500 583.666992188 l 1025
41.6669921875 542 m 1
 125 542 l 1
 125 583.666992188 l 1
 41.6669921875 583.666992188 l 1
 41.6669921875 542 l 1025
458.333007812 542 m 1
 500 542 l 1
 500 583.666992188 l 1
 458.333007812 583.666992188 l 1
 458.333007812 542 l 1025
83.3330078125 500.333007812 m 1
 166.666992188 500.333007812 l 1
 166.666992188 542 l 1
 83.3330078125 542 l 1
 83.3330078125 500.333007812 l 1025
458.333007812 500.333007812 m 1
 500 500.333007812 l 1
 500 542 l 1
 458.333007812 542 l 1
 458.333007812 500.333007812 l 1025
83.3330078125 458.666992188 m 1
 166.666992188 458.666992188 l 1
 166.666992188 500.333007812 l 1
 83.3330078125 500.333007812 l 1
 83.3330078125 458.666992188 l 1025
458.333007812 458.666992188 m 1
 500 458.666992188 l 1
 500 500.333007812 l 1
 458.333007812 500.333007812 l 1
 458.333007812 458.666992188 l 1025
83.3330078125 417 m 1
 166.666992188 417 l 1
 166.666992188 458.666992188 l 1
 83.3330078125 458.666992188 l 1
 83.3330078125 417 l 1025
416.666992188 417 m 1
 458.333007812 417 l 1
 458.333007812 458.666992188 l 1
 416.666992188 458.666992188 l 1
 416.666992188 417 l 1025
125 375.333007812 m 1
 208.333007812 375.333007812 l 1
 208.333007812 417 l 1
 125 417 l 1
 125 375.333007812 l 1025
416.666992188 375.333007812 m 1
 458.333007812 375.333007812 l 1
 458.333007812 417 l 1
 416.666992188 417 l 1
 416.666992188 375.333007812 l 1025
125 333.666992188 m 1
 208.333007812 333.666992188 l 1
 208.333007812 375.333007812 l 1
 125 375.333007812 l 1
 125 333.666992188 l 1025
416.666992188 333.666992188 m 1
 458.333007812 333.666992188 l 1
 458.333007812 375.333007812 l 1
 416.666992188 375.333007812 l 1
 416.666992188 333.666992188 l 1025
125 292 m 1
 208.333007812 292 l 1
 208.333007812 333.666992188 l 1
 125 333.666992188 l 1
 125 292 l 1025
375 292 m 1
 416.666992188 292 l 1
 416.666992188 333.666992188 l 1
 375 333.666992188 l 1
 375 292 l 1025
166.666992188 250.333007812 m 1
 250 250.333007812 l 1
 250 292 l 1
 166.666992188 292 l 1
 166.666992188 250.333007812 l 1025
375 250.333007812 m 1
 416.666992188 250.333007812 l 1
 416.666992188 292 l 1
 375 292 l 1
 375 250.333007812 l 1025
166.666992188 208.666992188 m 1
 250 208.666992188 l 1
 250 250.333007812 l 1
 166.666992188 250.333007812 l 1
 166.666992188 208.666992188 l 1025
333.333007812 208.666992188 m 1
 416.666992188 208.666992188 l 1
 416.666992188 250.333007812 l 1
 333.333007812 250.333007812 l 1
 333.333007812 208.666992188 l 1025
166.666992188 167 m 1
 291.666992188 167 l 1
 291.666992188 208.666992188 l 1
 166.666992188 208.666992188 l 1
 166.666992188 167 l 1025
333.333007812 167 m 1
 375 167 l 1
 375 208.666992188 l 1
 333.333007812 208.666992188 l 1
 333.333007812 167 l 1025
208.333007812 125.333007812 m 1
 291.666992188 125.333007812 l 1
 291.666992188 167 l 1
 208.333007812 167 l 1
 208.333007812 125.333007812 l 1025
333.333007812 125.333007812 m 1
 375 125.333007812 l 1
 375 167 l 1
 333.333007812 167 l 1
 333.333007812 125.333007812 l 1025
208.333007812 83.6669921875 m 1
 333.333007812 83.6669921875 l 1
 333.333007812 125.333007812 l 1
 208.333007812 125.333007812 l 1
 208.333007812 83.6669921875 l 1025
208.333007812 42 m 1
 333.333007812 42 l 1
 333.333007812 83.6669921875 l 1
 208.333007812 83.6669921875 l 1
 208.333007812 42 l 1025
250 0.3330078125 m 1
 250 42 l 1
 333.333007812 42 l 1
 333.333007812 0.3330078125 l 1
 250 0.3330078125 l 1
EndSplineSet
EndChar

StartChar: W
Encoding: 87 87 56
Width: 583
Flags: HW
LayerCount: 2
Back
Fore
SplineSet
0 667 m 1
 41.6669921875 667 l 1
 41.6669921875 708.666992188 l 1
 0 708.666992188 l 1
 0 667 l 1025
541.666992188 667 m 1
 583.333007812 667 l 1
 583.333007812 708.666992188 l 1
 541.666992188 708.666992188 l 1
 541.666992188 667 l 1025
0 625.333007812 m 1
 41.6669921875 625.333007812 l 1
 41.6669921875 667 l 1
 0 667 l 1
 0 625.333007812 l 1025
208.333007812 625.333007812 m 1
 291.666992188 625.333007812 l 1
 291.666992188 667 l 1
 208.333007812 667 l 1
 208.333007812 625.333007812 l 1025
541.666992188 625.333007812 m 1
 583.333007812 625.333007812 l 1
 583.333007812 667 l 1
 541.666992188 667 l 1
 541.666992188 625.333007812 l 1025
0 583.666992188 m 1
 41.6669921875 583.666992188 l 1
 41.6669921875 625.333007812 l 1
 0 625.333007812 l 1
 0 583.666992188 l 1025
208.333007812 583.666992188 m 1
 291.666992188 583.666992188 l 1
 291.666992188 625.333007812 l 1
 208.333007812 625.333007812 l 1
 208.333007812 583.666992188 l 1025
500 583.666992188 m 1
 583.333007812 583.666992188 l 1
 583.333007812 625.333007812 l 1
 500 625.333007812 l 1
 500 583.666992188 l 1025
0 542 m 1
 41.6669921875 542 l 1
 41.6669921875 583.666992188 l 1
 0 583.666992188 l 1
 0 542 l 1025
208.333007812 542 m 1
 333.333007812 542 l 1
 333.333007812 583.666992188 l 1
 208.333007812 583.666992188 l 1
 208.333007812 542 l 1025
500 542 m 1
 541.666992188 542 l 1
 541.666992188 583.666992188 l 1
 500 583.666992188 l 1
 500 542 l 1025
0 500.333007812 m 1
 83.3330078125 500.333007812 l 1
 83.3330078125 542 l 1
 0 542 l 1
 0 500.333007812 l 1025
166.666992188 500.333007812 m 1
 333.333007812 500.333007812 l 1
 333.333007812 542 l 1
 166.666992188 542 l 1
 166.666992188 500.333007812 l 1025
500 500.333007812 m 1
 541.666992188 500.333007812 l 1
 541.666992188 542 l 1
 500 542 l 1
 500 500.333007812 l 1025
0 458.666992188 m 1
 83.3330078125 458.666992188 l 1
 83.3330078125 500.333007812 l 1
 0 500.333007812 l 1
 0 458.666992188 l 1025
166.666992188 458.666992188 m 1
 333.333007812 458.666992188 l 1
 333.333007812 500.333007812 l 1
 166.666992188 500.333007812 l 1
 166.666992188 458.666992188 l 1025
500 458.666992188 m 1
 541.666992188 458.666992188 l 1
 541.666992188 500.333007812 l 1
 500 500.333007812 l 1
 500 458.666992188 l 1025
0 417 m 1
 83.3330078125 417 l 1
 83.3330078125 458.666992188 l 1
 0 458.666992188 l 1
 0 417 l 1025
166.666992188 417 m 1
 250 417 l 1
 250 458.666992188 l 1
 166.666992188 458.666992188 l 1
 166.666992188 417 l 1025
291.666992188 417 m 1
 333.333007812 417 l 1
 333.333007812 458.666992188 l 1
 291.666992188 458.666992188 l 1
 291.666992188 417 l 1025
500 417 m 1
 541.666992188 417 l 1
 541.666992188 458.666992188 l 1
 500 458.666992188 l 1
 500 417 l 1025
0 375.333007812 m 1
 83.3330078125 375.333007812 l 1
 83.3330078125 417 l 1
 0 417 l 1
 0 375.333007812 l 1025
166.666992188 375.333007812 m 1
 208.333007812 375.333007812 l 1
 208.333007812 417 l 1
 166.666992188 417 l 1
 166.666992188 375.333007812 l 1025
291.666992188 375.333007812 m 1
 333.333007812 375.333007812 l 1
 333.333007812 417 l 1
 291.666992188 417 l 1
 291.666992188 375.333007812 l 1025
458.333007812 375.333007812 m 1
 541.666992188 375.333007812 l 1
 541.666992188 417 l 1
 458.333007812 417 l 1
 458.333007812 375.333007812 l 1025
0 333.666992188 m 1
 83.3330078125 333.666992188 l 1
 83.3330078125 375.333007812 l 1
 0 375.333007812 l 1
 0 333.666992188 l 1025
166.666992188 333.666992188 m 1
 208.333007812 333.666992188 l 1
 208.333007812 375.333007812 l 1
 166.666992188 375.333007812 l 1
 166.666992188 333.666992188 l 1025
291.666992188 333.666992188 m 1
 375 333.666992188 l 1
 375 375.333007812 l 1
 291.666992188 375.333007812 l 1
 291.666992188 333.666992188 l 1025
458.333007812 333.666992188 m 1
 541.666992188 333.666992188 l 1
 541.666992188 375.333007812 l 1
 458.333007812 375.333007812 l 1
 458.333007812 333.666992188 l 1025
41.6669921875 292 m 1
 83.3330078125 292 l 1
 83.3330078125 333.666992188 l 1
 41.6669921875 333.666992188 l 1
 41.6669921875 292 l 1025
125 292 m 1
 208.333007812 292 l 1
 208.333007812 333.666992188 l 1
 125 333.666992188 l 1
 125 292 l 1025
291.666992188 292 m 1
 375 292 l 1
 375 333.666992188 l 1
 291.666992188 333.666992188 l 1
 291.666992188 292 l 1025
458.333007812 292 m 1
 500 292 l 1
 500 333.666992188 l 1
 458.333007812 333.666992188 l 1
 458.333007812 292 l 1025
41.6669921875 250.333007812 m 1
 83.3330078125 250.333007812 l 1
 83.3330078125 292 l 1
 41.6669921875 292 l 1
 41.6669921875 250.333007812 l 1025
125 250.333007812 m 1
 208.333007812 250.333007812 l 1
 208.333007812 292 l 1
 125 292 l 1
 125 250.333007812 l 1025
333.333007812 250.333007812 m 1
 375 250.333007812 l 1
 375 292 l 1
 333.333007812 292 l 1
 333.333007812 250.333007812 l 1025
458.333007812 250.333007812 m 1
 500 250.333007812 l 1
 500 292 l 1
 458.333007812 292 l 1
 458.333007812 250.333007812 l 1025
41.6669921875 208.666992188 m 1
 83.3330078125 208.666992188 l 1
 83.3330078125 250.333007812 l 1
 41.6669921875 250.333007812 l 1
 41.6669921875 208.666992188 l 1025
125 208.666992188 m 1
 166.666992188 208.666992188 l 1
 166.666992188 250.333007812 l 1
 125 250.333007812 l 1
 125 208.666992188 l 1025
333.333007812 208.666992188 m 1
 375 208.666992188 l 1
 375 250.333007812 l 1
 333.333007812 250.333007812 l 1
 333.333007812 208.666992188 l 1025
458.333007812 208.666992188 m 1
 500 208.666992188 l 1
 500 250.333007812 l 1
 458.333007812 250.333007812 l 1
 458.333007812 208.666992188 l 1025
41.6669921875 167 m 1
 166.666992188 167 l 1
 166.666992188 208.666992188 l 1
 41.6669921875 208.666992188 l 1
 41.6669921875 167 l 1025
333.333007812 167 m 1
 500 167 l 1
 500 208.666992188 l 1
 333.333007812 208.666992188 l 1
 333.333007812 167 l 1025
41.6669921875 125.333007812 m 1
 166.666992188 125.333007812 l 1
 166.666992188 167 l 1
 41.6669921875 167 l 1
 41.6669921875 125.333007812 l 1025
333.333007812 125.333007812 m 1
 500 125.333007812 l 1
 500 167 l 1
 333.333007812 167 l 1
 333.333007812 125.333007812 l 1025
41.6669921875 83.6669921875 m 1
 166.666992188 83.6669921875 l 1
 166.666992188 125.333007812 l 1
 41.6669921875 125.333007812 l 1
 41.6669921875 83.6669921875 l 1025
333.333007812 83.6669921875 m 1
 458.333007812 83.6669921875 l 1
 458.333007812 125.333007812 l 1
 333.333007812 125.333007812 l 1
 333.333007812 83.6669921875 l 1025
41.6669921875 42 m 1
 125 42 l 1
 125 83.6669921875 l 1
 41.6669921875 83.6669921875 l 1
 41.6669921875 42 l 1025
375 42 m 1
 458.333007812 42 l 1
 458.333007812 83.6669921875 l 1
 375 83.6669921875 l 1
 375 42 l 1025
41.6669921875 0.3330078125 m 1
 125 0.3330078125 l 1
 125 42 l 1
 41.6669921875 42 l 1
 41.6669921875 0.3330078125 l 1025
375 0.3330078125 m 1
 375 42 l 1
 458.333007812 42 l 1
 458.333007812 0.3330078125 l 1
 375 0.3330078125 l 1
EndSplineSet
EndChar

StartChar: X
Encoding: 88 88 57
Width: 583
Flags: HW
LayerCount: 2
Back
Fore
SplineSet
-41.6669921875 667 m 1
 41.6669921875 667 l 1
 41.6669921875 708.666992188 l 1
 -41.6669921875 708.666992188 l 1
 -41.6669921875 667 l 1025
416.666992188 667 m 1
 458.333007812 667 l 1
 458.333007812 708.666992188 l 1
 416.666992188 708.666992188 l 1
 416.666992188 667 l 1025
0 625.333007812 m 1
 83.3330078125 625.333007812 l 1
 83.3330078125 667 l 1
 0 667 l 1
 0 625.333007812 l 1025
375 625.333007812 m 1
 416.666992188 625.333007812 l 1
 416.666992188 667 l 1
 375 667 l 1
 375 625.333007812 l 1025
0 583.666992188 m 1
 125 583.666992188 l 1
 125 625.333007812 l 1
 0 625.333007812 l 1
 0 583.666992188 l 1025
333.333007812 583.666992188 m 1
 416.666992188 583.666992188 l 1
 416.666992188 625.333007812 l 1
 333.333007812 625.333007812 l 1
 333.333007812 583.666992188 l 1025
41.6669921875 542 m 1
 125 542 l 1
 125 583.666992188 l 1
 41.6669921875 583.666992188 l 1
 41.6669921875 542 l 1025
333.333007812 542 m 1
 375 542 l 1
 375 583.666992188 l 1
 333.333007812 583.666992188 l 1
 333.333007812 542 l 1025
41.6669921875 500.333007812 m 1
 166.666992188 500.333007812 l 1
 166.666992188 542 l 1
 41.6669921875 542 l 1
 41.6669921875 500.333007812 l 1025
291.666992188 500.333007812 m 1
 333.333007812 500.333007812 l 1
 333.333007812 542 l 1
 291.666992188 542 l 1
 291.666992188 500.333007812 l 1025
83.3330078125 458.666992188 m 1
 208.333007812 458.666992188 l 1
 208.333007812 500.333007812 l 1
 83.3330078125 500.333007812 l 1
 83.3330078125 458.666992188 l 1025
250 458.666992188 m 1
 333.333007812 458.666992188 l 1
 333.333007812 500.333007812 l 1
 250 500.333007812 l 1
 250 458.666992188 l 1025
125 417 m 1
 208.333007812 417 l 1
 208.333007812 458.666992188 l 1
 125 458.666992188 l 1
 125 417 l 1025
250 417 m 1
 291.666992188 417 l 1
 291.666992188 458.666992188 l 1
 250 458.666992188 l 1
 250 417 l 1025
125 375.333007812 m 1
 250 375.333007812 l 1
 250 417 l 1
 125 417 l 1
 125 375.333007812 l 1025
166.666992188 333.666992188 m 1
 250 333.666992188 l 1
 250 375.333007812 l 1
 166.666992188 375.333007812 l 1
 166.666992188 333.666992188 l 1025
166.666992188 292 m 1
 291.666992188 292 l 1
 291.666992188 333.666992188 l 1
 166.666992188 333.666992188 l 1
 166.666992188 292 l 1025
125 250.333007812 m 1
 166.666992188 250.333007812 l 1
 166.666992188 292 l 1
 125 292 l 1
 125 250.333007812 l 1025
208.333007812 250.333007812 m 1
 333.333007812 250.333007812 l 1
 333.333007812 292 l 1
 208.333007812 292 l 1
 208.333007812 250.333007812 l 1025
83.3330078125 208.666992188 m 1
 125 208.666992188 l 1
 125 250.333007812 l 1
 83.3330078125 250.333007812 l 1
 83.3330078125 208.666992188 l 1025
250 208.666992188 m 1
 333.333007812 208.666992188 l 1
 333.333007812 250.333007812 l 1
 250 250.333007812 l 1
 250 208.666992188 l 1025
83.3330078125 167 m 1
 125 167 l 1
 125 208.666992188 l 1
 83.3330078125 208.666992188 l 1
 83.3330078125 167 l 1025
291.666992188 167 m 1
 375 167 l 1
 375 208.666992188 l 1
 291.666992188 208.666992188 l 1
 291.666992188 167 l 1025
41.6669921875 125.333007812 m 1
 83.3330078125 125.333007812 l 1
 83.3330078125 167 l 1
 41.6669921875 167 l 1
 41.6669921875 125.333007812 l 1025
291.666992188 125.333007812 m 1
 416.666992188 125.333007812 l 1
 416.666992188 167 l 1
 291.666992188 167 l 1
 291.666992188 125.333007812 l 1025
0 83.6669921875 m 1
 41.6669921875 83.6669921875 l 1
 41.6669921875 125.333007812 l 1
 0 125.333007812 l 1
 0 83.6669921875 l 1025
333.333007812 83.6669921875 m 1
 416.666992188 83.6669921875 l 1
 416.666992188 125.333007812 l 1
 333.333007812 125.333007812 l 1
 333.333007812 83.6669921875 l 1025
0 42 m 1
 41.6669921875 42 l 1
 41.6669921875 83.6669921875 l 1
 0 83.6669921875 l 1
 0 42 l 1025
375 42 m 1
 458.333007812 42 l 1
 458.333007812 83.6669921875 l 1
 375 83.6669921875 l 1
 375 42 l 1025
-41.6669921875 0.3330078125 m 1
 0 0.3330078125 l 1
 0 42 l 1
 -41.6669921875 42 l 1
 -41.6669921875 0.3330078125 l 1025
375 0.3330078125 m 1
 375 42 l 1
 500 42 l 1
 500 0.3330078125 l 1
 375 0.3330078125 l 1
EndSplineSet
EndChar

StartChar: Y
Encoding: 89 89 58
Width: 583
Flags: HW
LayerCount: 2
Back
Fore
SplineSet
0 667 m 1
 125 667 l 1
 125 708.666992188 l 1
 0 708.666992188 l 1
 0 667 l 1025
500 667 m 1
 541.666992188 667 l 1
 541.666992188 708.666992188 l 1
 500 708.666992188 l 1
 500 667 l 1025
41.6669921875 625.333007812 m 1
 125 625.333007812 l 1
 125 667 l 1
 41.6669921875 667 l 1
 41.6669921875 625.333007812 l 1025
458.333007812 625.333007812 m 1
 541.666992188 625.333007812 l 1
 541.666992188 667 l 1
 458.333007812 667 l 1
 458.333007812 625.333007812 l 1025
83.3330078125 583.666992188 m 1
 166.666992188 583.666992188 l 1
 166.666992188 625.333007812 l 1
 83.3330078125 625.333007812 l 1
 83.3330078125 583.666992188 l 1025
458.333007812 583.666992188 m 1
 500 583.666992188 l 1
 500 625.333007812 l 1
 458.333007812 625.333007812 l 1
 458.333007812 583.666992188 l 1025
83.3330078125 542 m 1
 208.333007812 542 l 1
 208.333007812 583.666992188 l 1
 83.3330078125 583.666992188 l 1
 83.3330078125 542 l 1025
416.666992188 542 m 1
 458.333007812 542 l 1
 458.333007812 583.666992188 l 1
 416.666992188 583.666992188 l 1
 416.666992188 542 l 1025
125 500.333007812 m 1
 208.333007812 500.333007812 l 1
 208.333007812 542 l 1
 125 542 l 1
 125 500.333007812 l 1025
416.666992188 500.333007812 m 1
 458.333007812 500.333007812 l 1
 458.333007812 542 l 1
 416.666992188 542 l 1
 416.666992188 500.333007812 l 1025
125 458.666992188 m 1
 250 458.666992188 l 1
 250 500.333007812 l 1
 125 500.333007812 l 1
 125 458.666992188 l 1025
375 458.666992188 m 1
 416.666992188 458.666992188 l 1
 416.666992188 500.333007812 l 1
 375 500.333007812 l 1
 375 458.666992188 l 1025
166.666992188 417 m 1
 250 417 l 1
 250 458.666992188 l 1
 166.666992188 458.666992188 l 1
 166.666992188 417 l 1025
333.333007812 417 m 1
 416.666992188 417 l 1
 416.666992188 458.666992188 l 1
 333.333007812 458.666992188 l 1
 333.333007812 417 l 1025
208.333007812 375.333007812 m 1
 291.666992188 375.333007812 l 1
 291.666992188 417 l 1
 208.333007812 417 l 1
 208.333007812 375.333007812 l 1025
333.333007812 375.333007812 m 1
 375 375.333007812 l 1
 375 417 l 1
 333.333007812 417 l 1
 333.333007812 375.333007812 l 1025
208.333007812 333.666992188 m 1
 333.333007812 333.666992188 l 1
 333.333007812 375.333007812 l 1
 208.333007812 375.333007812 l 1
 208.333007812 333.666992188 l 1025
250 292 m 1
 333.333007812 292 l 1
 333.333007812 333.666992188 l 1
 250 333.666992188 l 1
 250 292 l 1025
250 250.333007812 m 1
 333.333007812 250.333007812 l 1
 333.333007812 292 l 1
 250 292 l 1
 250 250.333007812 l 1025
250 208.666992188 m 1
 333.333007812 208.666992188 l 1
 333.333007812 250.333007812 l 1
 250 250.333007812 l 1
 250 208.666992188 l 1025
250 167 m 1
 333.333007812 167 l 1
 333.333007812 208.666992188 l 1
 250 208.666992188 l 1
 250 167 l 1025
250 125.333007812 m 1
 333.333007812 125.333007812 l 1
 333.333007812 167 l 1
 250 167 l 1
 250 125.333007812 l 1025
250 83.6669921875 m 1
 333.333007812 83.6669921875 l 1
 333.333007812 125.333007812 l 1
 250 125.333007812 l 1
 250 83.6669921875 l 1025
250 42 m 1
 333.333007812 42 l 1
 333.333007812 83.6669921875 l 1
 250 83.6669921875 l 1
 250 42 l 1025
250 0.3330078125 m 1
 250 42 l 1
 333.333007812 42 l 1
 333.333007812 0.3330078125 l 1
 250 0.3330078125 l 1
EndSplineSet
EndChar

StartChar: Z
Encoding: 90 90 59
Width: 583
Flags: HW
LayerCount: 2
Back
Fore
SplineSet
83.3330078125 667 m 1
 541.666992188 667 l 1
 541.666992188 708.666992188 l 1
 83.3330078125 708.666992188 l 1
 83.3330078125 667 l 1025
416.666992188 625.333007812 m 1
 541.666992188 625.333007812 l 1
 541.666992188 667 l 1
 416.666992188 667 l 1
 416.666992188 625.333007812 l 1025
416.666992188 583.666992188 m 1
 500 583.666992188 l 1
 500 625.333007812 l 1
 416.666992188 625.333007812 l 1
 416.666992188 583.666992188 l 1025
375 542 m 1
 458.333007812 542 l 1
 458.333007812 583.666992188 l 1
 375 583.666992188 l 1
 375 542 l 1025
333.333007812 500.333007812 m 1
 458.333007812 500.333007812 l 1
 458.333007812 542 l 1
 333.333007812 542 l 1
 333.333007812 500.333007812 l 1025
333.333007812 458.666992188 m 1
 416.666992188 458.666992188 l 1
 416.666992188 500.333007812 l 1
 333.333007812 500.333007812 l 1
 333.333007812 458.666992188 l 1025
291.666992188 417 m 1
 375 417 l 1
 375 458.666992188 l 1
 291.666992188 458.666992188 l 1
 291.666992188 417 l 1025
250 375.333007812 m 1
 375 375.333007812 l 1
 375 417 l 1
 250 417 l 1
 250 375.333007812 l 1025
250 333.666992188 m 1
 333.333007812 333.666992188 l 1
 333.333007812 375.333007812 l 1
 250 375.333007812 l 1
 250 333.666992188 l 1025
208.333007812 292 m 1
 333.333007812 292 l 1
 333.333007812 333.666992188 l 1
 208.333007812 333.666992188 l 1
 208.333007812 292 l 1025
166.666992188 250.333007812 m 1
 291.666992188 250.333007812 l 1
 291.666992188 292 l 1
 166.666992188 292 l 1
 166.666992188 250.333007812 l 1025
166.666992188 208.666992188 m 1
 250 208.666992188 l 1
 250 250.333007812 l 1
 166.666992188 250.333007812 l 1
 166.666992188 208.666992188 l 1025
125 167 m 1
 250 167 l 1
 250 208.666992188 l 1
 125 208.666992188 l 1
 125 167 l 1025
83.3330078125 125.333007812 m 1
 208.333007812 125.333007812 l 1
 208.333007812 167 l 1
 83.3330078125 167 l 1
 83.3330078125 125.333007812 l 1025
83.3330078125 83.6669921875 m 1
 166.666992188 83.6669921875 l 1
 166.666992188 125.333007812 l 1
 83.3330078125 125.333007812 l 1
 83.3330078125 83.6669921875 l 1025
41.6669921875 42 m 1
 166.666992188 42 l 1
 166.666992188 83.6669921875 l 1
 41.6669921875 83.6669921875 l 1
 41.6669921875 42 l 1025
41.6669921875 0.3330078125 m 1
 41.6669921875 42 l 1
 541.666992188 42 l 1
 541.666992188 0.3330078125 l 1
 41.6669921875 0.3330078125 l 1
EndSplineSet
EndChar

StartChar: bracketleft
Encoding: 91 91 60
Width: 583
Flags: HW
LayerCount: 2
Back
Fore
SplineSet
250 667 m 1
 500 667 l 1
 500 708.666992188 l 1
 250 708.666992188 l 1
 250 667 l 1025
250 625.333007812 m 1
 291.666992188 625.333007812 l 1
 291.666992188 667 l 1
 250 667 l 1
 250 625.333007812 l 1025
250 583.666992188 m 1
 291.666992188 583.666992188 l 1
 291.666992188 625.333007812 l 1
 250 625.333007812 l 1
 250 583.666992188 l 1025
250 542 m 1
 291.666992188 542 l 1
 291.666992188 583.666992188 l 1
 250 583.666992188 l 1
 250 542 l 1025
250 500.333007812 m 1
 291.666992188 500.333007812 l 1
 291.666992188 542 l 1
 250 542 l 1
 250 500.333007812 l 1025
250 458.666992188 m 1
 291.666992188 458.666992188 l 1
 291.666992188 500.333007812 l 1
 250 500.333007812 l 1
 250 458.666992188 l 1025
250 417 m 1
 291.666992188 417 l 1
 291.666992188 458.666992188 l 1
 250 458.666992188 l 1
 250 417 l 1025
250 375.333007812 m 1
 291.666992188 375.333007812 l 1
 291.666992188 417 l 1
 250 417 l 1
 250 375.333007812 l 1025
250 333.666992188 m 1
 291.666992188 333.666992188 l 1
 291.666992188 375.333007812 l 1
 250 375.333007812 l 1
 250 333.666992188 l 1025
250 292 m 1
 291.666992188 292 l 1
 291.666992188 333.666992188 l 1
 250 333.666992188 l 1
 250 292 l 1025
250 250.333007812 m 1
 291.666992188 250.333007812 l 1
 291.666992188 292 l 1
 250 292 l 1
 250 250.333007812 l 1025
250 208.666992188 m 1
 291.666992188 208.666992188 l 1
 291.666992188 250.333007812 l 1
 250 250.333007812 l 1
 250 208.666992188 l 1025
250 167 m 1
 291.666992188 167 l 1
 291.666992188 208.666992188 l 1
 250 208.666992188 l 1
 250 167 l 1025
250 125.333007812 m 1
 291.666992188 125.333007812 l 1
 291.666992188 167 l 1
 250 167 l 1
 250 125.333007812 l 1025
250 83.6669921875 m 1
 291.666992188 83.6669921875 l 1
 291.666992188 125.333007812 l 1
 250 125.333007812 l 1
 250 83.6669921875 l 1025
250 42 m 1
 291.666992188 42 l 1
 291.666992188 83.6669921875 l 1
 250 83.6669921875 l 1
 250 42 l 1025
250 0.3330078125 m 1
 291.666992188 0.3330078125 l 1
 291.666992188 42 l 1
 250 42 l 1
 250 0.3330078125 l 1025
250 -41.3330078125 m 1
 291.666992188 -41.3330078125 l 1
 291.666992188 0.3330078125 l 1
 250 0.3330078125 l 1
 250 -41.3330078125 l 1025
250 -83 m 1
 291.666992188 -83 l 1
 291.666992188 -41.3330078125 l 1
 250 -41.3330078125 l 1
 250 -83 l 1025
250 -124.666992188 m 1
 291.666992188 -124.666992188 l 1
 291.666992188 -83 l 1
 250 -83 l 1
 250 -124.666992188 l 1025
250 -166.333007812 m 1
 250 -124.666992188 l 1
 500 -124.666992188 l 1
 500 -166.333007812 l 1
 250 -166.333007812 l 1
EndSplineSet
EndChar

StartChar: backslash
Encoding: 92 92 61
Width: 583
Flags: HW
LayerCount: 2
Back
Fore
SplineSet
41.6669921875 667 m 1
 125 667 l 1
 125 708.666992188 l 1
 41.6669921875 708.666992188 l 1
 41.6669921875 667 l 1025
83.3330078125 625.333007812 m 1
 125 625.333007812 l 1
 125 667 l 1
 83.3330078125 667 l 1
 83.3330078125 625.333007812 l 1025
125 583.666992188 m 1
 166.666992188 583.666992188 l 1
 166.666992188 625.333007812 l 1
 125 625.333007812 l 1
 125 583.666992188 l 1025
125 542 m 1
 166.666992188 542 l 1
 166.666992188 583.666992188 l 1
 125 583.666992188 l 1
 125 542 l 1025
166.666992188 500.333007812 m 1
 208.333007812 500.333007812 l 1
 208.333007812 542 l 1
 166.666992188 542 l 1
 166.666992188 500.333007812 l 1025
166.666992188 458.666992188 m 1
 208.333007812 458.666992188 l 1
 208.333007812 500.333007812 l 1
 166.666992188 500.333007812 l 1
 166.666992188 458.666992188 l 1025
208.333007812 417 m 1
 250 417 l 1
 250 458.666992188 l 1
 208.333007812 458.666992188 l 1
 208.333007812 417 l 1025
208.333007812 375.333007812 m 1
 291.666992188 375.333007812 l 1
 291.666992188 417 l 1
 208.333007812 417 l 1
 208.333007812 375.333007812 l 1025
250 333.666992188 m 1
 291.666992188 333.666992188 l 1
 291.666992188 375.333007812 l 1
 250 375.333007812 l 1
 250 333.666992188 l 1025
250 292 m 1
 333.333007812 292 l 1
 333.333007812 333.666992188 l 1
 250 333.666992188 l 1
 250 292 l 1025
291.666992188 250.333007812 m 1
 333.333007812 250.333007812 l 1
 333.333007812 292 l 1
 291.666992188 292 l 1
 291.666992188 250.333007812 l 1025
291.666992188 208.666992188 m 1
 375 208.666992188 l 1
 375 250.333007812 l 1
 291.666992188 250.333007812 l 1
 291.666992188 208.666992188 l 1025
333.333007812 167 m 1
 375 167 l 1
 375 208.666992188 l 1
 333.333007812 208.666992188 l 1
 333.333007812 167 l 1025
333.333007812 125.333007812 m 1
 416.666992188 125.333007812 l 1
 416.666992188 167 l 1
 333.333007812 167 l 1
 333.333007812 125.333007812 l 1025
375 83.6669921875 m 1
 416.666992188 83.6669921875 l 1
 416.666992188 125.333007812 l 1
 375 125.333007812 l 1
 375 83.6669921875 l 1025
416.666992188 42 m 1
 458.333007812 42 l 1
 458.333007812 83.6669921875 l 1
 416.666992188 83.6669921875 l 1
 416.666992188 42 l 1025
416.666992188 0.3330078125 m 1
 458.333007812 0.3330078125 l 1
 458.333007812 42 l 1
 416.666992188 42 l 1
 416.666992188 0.3330078125 l 1025
458.333007812 -41.3330078125 m 1
 500 -41.3330078125 l 1
 500 0.3330078125 l 1
 458.333007812 0.3330078125 l 1
 458.333007812 -41.3330078125 l 1025
458.333007812 -83 m 1
 500 -83 l 1
 500 -41.3330078125 l 1
 458.333007812 -41.3330078125 l 1
 458.333007812 -83 l 1025
500 -124.666992188 m 1
 541.666992188 -124.666992188 l 1
 541.666992188 -83 l 1
 500 -83 l 1
 500 -124.666992188 l 1025
500 -166.333007812 m 1
 500 -124.666992188 l 1
 583.333007812 -124.666992188 l 1
 583.333007812 -166.333007812 l 1
 500 -166.333007812 l 1
EndSplineSet
EndChar

StartChar: bracketright
Encoding: 93 93 62
Width: 583
Flags: HW
LayerCount: 2
Back
Fore
SplineSet
125 667 m 1
 375 667 l 1
 375 708.666992188 l 1
 125 708.666992188 l 1
 125 667 l 1025
333.333007812 625.333007812 m 1
 375 625.333007812 l 1
 375 667 l 1
 333.333007812 667 l 1
 333.333007812 625.333007812 l 1025
333.333007812 583.666992188 m 1
 375 583.666992188 l 1
 375 625.333007812 l 1
 333.333007812 625.333007812 l 1
 333.333007812 583.666992188 l 1025
333.333007812 542 m 1
 375 542 l 1
 375 583.666992188 l 1
 333.333007812 583.666992188 l 1
 333.333007812 542 l 1025
333.333007812 500.333007812 m 1
 375 500.333007812 l 1
 375 542 l 1
 333.333007812 542 l 1
 333.333007812 500.333007812 l 1025
333.333007812 458.666992188 m 1
 375 458.666992188 l 1
 375 500.333007812 l 1
 333.333007812 500.333007812 l 1
 333.333007812 458.666992188 l 1025
333.333007812 417 m 1
 375 417 l 1
 375 458.666992188 l 1
 333.333007812 458.666992188 l 1
 333.333007812 417 l 1025
333.333007812 375.333007812 m 1
 375 375.333007812 l 1
 375 417 l 1
 333.333007812 417 l 1
 333.333007812 375.333007812 l 1025
333.333007812 333.666992188 m 1
 375 333.666992188 l 1
 375 375.333007812 l 1
 333.333007812 375.333007812 l 1
 333.333007812 333.666992188 l 1025
333.333007812 292 m 1
 375 292 l 1
 375 333.666992188 l 1
 333.333007812 333.666992188 l 1
 333.333007812 292 l 1025
333.333007812 250.333007812 m 1
 375 250.333007812 l 1
 375 292 l 1
 333.333007812 292 l 1
 333.333007812 250.333007812 l 1025
333.333007812 208.666992188 m 1
 375 208.666992188 l 1
 375 250.333007812 l 1
 333.333007812 250.333007812 l 1
 333.333007812 208.666992188 l 1025
333.333007812 167 m 1
 375 167 l 1
 375 208.666992188 l 1
 333.333007812 208.666992188 l 1
 333.333007812 167 l 1025
333.333007812 125.333007812 m 1
 375 125.333007812 l 1
 375 167 l 1
 333.333007812 167 l 1
 333.333007812 125.333007812 l 1025
333.333007812 83.6669921875 m 1
 375 83.6669921875 l 1
 375 125.333007812 l 1
 333.333007812 125.333007812 l 1
 333.333007812 83.6669921875 l 1025
333.333007812 42 m 1
 375 42 l 1
 375 83.6669921875 l 1
 333.333007812 83.6669921875 l 1
 333.333007812 42 l 1025
333.333007812 0.3330078125 m 1
 375 0.3330078125 l 1
 375 42 l 1
 333.333007812 42 l 1
 333.333007812 0.3330078125 l 1025
333.333007812 -41.3330078125 m 1
 375 -41.3330078125 l 1
 375 0.3330078125 l 1
 333.333007812 0.3330078125 l 1
 333.333007812 -41.3330078125 l 1025
333.333007812 -83 m 1
 375 -83 l 1
 375 -41.3330078125 l 1
 333.333007812 -41.3330078125 l 1
 333.333007812 -83 l 1025
333.333007812 -124.666992188 m 1
 375 -124.666992188 l 1
 375 -83 l 1
 333.333007812 -83 l 1
 333.333007812 -124.666992188 l 1025
125 -166.333007812 m 1
 125 -124.666992188 l 1
 375 -124.666992188 l 1
 375 -166.333007812 l 1
 125 -166.333007812 l 1
EndSplineSet
EndChar

StartChar: asciicircum
Encoding: 94 94 63
Width: 583
Flags: HW
LayerCount: 2
Back
Fore
SplineSet
291.666992188 625.333007812 m 1
 333.333007812 625.333007812 l 1
 333.333007812 667 l 1
 291.666992188 667 l 1
 291.666992188 625.333007812 l 1025
250 583.666992188 m 1
 333.333007812 583.666992188 l 1
 333.333007812 625.333007812 l 1
 250 625.333007812 l 1
 250 583.666992188 l 1025
250 542 m 1
 333.333007812 542 l 1
 333.333007812 583.666992188 l 1
 250 583.666992188 l 1
 250 542 l 1025
208.333007812 500.333007812 m 1
 375 500.333007812 l 1
 375 542 l 1
 208.333007812 542 l 1
 208.333007812 500.333007812 l 1025
208.333007812 458.666992188 m 1
 250 458.666992188 l 1
 250 500.333007812 l 1
 208.333007812 500.333007812 l 1
 208.333007812 458.666992188 l 1025
333.333007812 458.666992188 m 1
 375 458.666992188 l 1
 375 500.333007812 l 1
 333.333007812 500.333007812 l 1
 333.333007812 458.666992188 l 1025
208.333007812 417 m 1
 250 417 l 1
 250 458.666992188 l 1
 208.333007812 458.666992188 l 1
 208.333007812 417 l 1025
333.333007812 417 m 1
 375 417 l 1
 375 458.666992188 l 1
 333.333007812 458.666992188 l 1
 333.333007812 417 l 1025
166.666992188 375.333007812 m 1
 208.333007812 375.333007812 l 1
 208.333007812 417 l 1
 166.666992188 417 l 1
 166.666992188 375.333007812 l 1025
375 375.333007812 m 1
 416.666992188 375.333007812 l 1
 416.666992188 417 l 1
 375 417 l 1
 375 375.333007812 l 1025
166.666992188 333.666992188 m 1
 208.333007812 333.666992188 l 1
 208.333007812 375.333007812 l 1
 166.666992188 375.333007812 l 1
 166.666992188 333.666992188 l 1025
375 333.666992188 m 1
 416.666992188 333.666992188 l 1
 416.666992188 375.333007812 l 1
 375 375.333007812 l 1
 375 333.666992188 l 1025
125 292 m 1
 166.666992188 292 l 1
 166.666992188 333.666992188 l 1
 125 333.666992188 l 1
 125 292 l 1025
416.666992188 292 m 1
 458.333007812 292 l 1
 458.333007812 333.666992188 l 1
 416.666992188 333.666992188 l 1
 416.666992188 292 l 1025
125 250.333007812 m 1
 166.666992188 250.333007812 l 1
 166.666992188 292 l 1
 125 292 l 1
 125 250.333007812 l 1025
416.666992188 250.333007812 m 1
 458.333007812 250.333007812 l 1
 458.333007812 292 l 1
 416.666992188 292 l 1
 416.666992188 250.333007812 l 1025
83.3330078125 208.666992188 m 1
 166.666992188 208.666992188 l 1
 166.666992188 250.333007812 l 1
 83.3330078125 250.333007812 l 1
 83.3330078125 208.666992188 l 1025
416.666992188 208.666992188 m 1
 458.333007812 208.666992188 l 1
 458.333007812 250.333007812 l 1
 416.666992188 250.333007812 l 1
 416.666992188 208.666992188 l 1025
83.3330078125 167 m 1
 125 167 l 1
 125 208.666992188 l 1
 83.3330078125 208.666992188 l 1
 83.3330078125 167 l 1025
458.333007812 167 m 1
 500 167 l 1
 500 208.666992188 l 1
 458.333007812 208.666992188 l 1
 458.333007812 167 l 1025
41.6669921875 125.333007812 m 1
 125 125.333007812 l 1
 125 167 l 1
 41.6669921875 167 l 1
 41.6669921875 125.333007812 l 1025
458.333007812 125.333007812 m 1
 458.333007812 167 l 1
 541.666992188 167 l 1
 541.666992188 125.333007812 l 1
 458.333007812 125.333007812 l 1
EndSplineSet
EndChar

StartChar: underscore
Encoding: 95 95 64
Width: 583
Flags: HW
LayerCount: 2
Back
Fore
SplineSet
0 -83 m 1
 0 -41.3330078125 l 1
 583.333007812 -41.3330078125 l 1
 583.333007812 -83 l 1
 0 -83 l 1
EndSplineSet
EndChar

StartChar: grave
Encoding: 96 96 65
Width: 583
Flags: HW
LayerCount: 2
Back
Fore
SplineSet
208.333007812 667 m 1
 333.333007812 667 l 1
 333.333007812 708.666992188 l 1
 208.333007812 708.666992188 l 1
 208.333007812 667 l 1025
291.666992188 625.333007812 m 1
 375 625.333007812 l 1
 375 667 l 1
 291.666992188 667 l 1
 291.666992188 625.333007812 l 1025
333.333007812 583.666992188 m 1
 333.333007812 625.333007812 l 1
 416.666992188 625.333007812 l 1
 416.666992188 583.666992188 l 1
 333.333007812 583.666992188 l 1
EndSplineSet
EndChar

